<?xml version="1.0" encoding="UTF-8"?>
<svg version="1.1" xmlns="http://www.w3.org/2000/svg" width="501" height="498">
<path d="M0 0 C1.1653125 -0.01417969 2.330625 -0.02835938 3.53125 -0.04296875 C6.5 0.1875 6.5 0.1875 8.5 2.1875 C9.49 1.8575 10.48 1.5275 11.5 1.1875 C14.625 1.5 14.625 1.5 17.5 2.1875 C17.995 3.1775 17.995 3.1775 18.5 4.1875 C20.52463255 4.83963292 20.52463255 4.83963292 22.5 5.1875 C22.83 4.1975 23.16 3.2075 23.5 2.1875 C25.81 2.8475 28.12 3.5075 30.5 4.1875 C30.5 4.8475 30.5 5.5075 30.5 6.1875 C35.03483803 7.95719289 38.65869392 8.27715382 43.5 8.1875 C45.9375 8.6875 45.9375 8.6875 47.5 9.1875 C47.5 9.8475 47.5 10.5075 47.5 11.1875 C48.758125 11.084375 50.01625 10.98125 51.3125 10.875 C53.5390625 10.8671875 53.5390625 10.8671875 55.5 11.1875 C57.1875 13.5 57.1875 13.5 58.5 16.1875 C60.13631892 17.23642238 61.80485863 18.23656703 63.5 19.1875 C64.87562854 20.47715176 66.20766393 21.81439293 67.5 23.1875 C68.7065625 24.2703125 68.7065625 24.2703125 69.9375 25.375 C76.14017666 32.18281585 78.36816292 39.14969647 79.5 48.1875 C76.52048117 50.17384589 75.46868376 50.50232475 72.0625 50.8125 C71.30066406 50.88726562 70.53882813 50.96203125 69.75390625 51.0390625 C67.67319114 51.176094 65.58522253 51.1875 63.5 51.1875 C63.5 50.5275 63.5 49.8675 63.5 49.1875 C61.7984375 50.05375 61.7984375 50.05375 60.0625 50.9375 C57.23829527 52.03383708 55.92000848 52.30204777 52.96484375 51.49609375 C50.74209844 50.4851145 48.61081639 49.41392341 46.5 48.1875 C46.83 46.8675 47.16 45.5475 47.5 44.1875 C48.82 44.1875 50.14 44.1875 51.5 44.1875 C51.5 44.8475 51.5 45.5075 51.5 46.1875 C54.08251378 45.56769669 56.53491488 44.84252837 59.0625 44 C60.196875 43.731875 61.33125 43.46375 62.5 43.1875 C63.49 43.8475 64.48 44.5075 65.5 45.1875 C66.82 45.1875 68.14 45.1875 69.5 45.1875 C70.49 45.1875 71.48 45.1875 72.5 45.1875 C72.5 42.5475 72.5 39.9075 72.5 37.1875 C71.84 37.1875 71.18 37.1875 70.5 37.1875 C70.5 36.5275 70.5 35.8675 70.5 35.1875 C69.84 35.1875 69.18 35.1875 68.5 35.1875 C68.29246094 34.63320312 68.08492187 34.07890625 67.87109375 33.5078125 C66.89893305 31.22181119 65.93017954 29.22227439 64.5 27.1875 C61.06544696 25.7060026 61.06544696 25.7060026 57.5 25.1875 C56.14649406 24.56280495 54.80065517 23.9158669 53.5 23.1875 C53.83 22.1975 54.16 21.2075 54.5 20.1875 C52.19 20.1875 49.88 20.1875 47.5 20.1875 C47.17 19.1975 46.84 18.2075 46.5 17.1875 C41.99192684 15.7599435 38.23024354 15.04837519 33.5 15.1875 C32.51 14.6925 32.51 14.6925 31.5 14.1875 C30.18 14.1875 28.86 14.1875 27.5 14.1875 C27.005 13.1975 27.005 13.1975 26.5 12.1875 C25.45199219 12.19910156 24.40398437 12.21070313 23.32421875 12.22265625 C21.94531428 12.23203655 20.56640789 12.2411365 19.1875 12.25 C18.49720703 12.25837891 17.80691406 12.26675781 17.09570312 12.27539062 C13.9516975 12.29057906 11.50579981 12.18943327 8.5 11.1875 C8.5 10.5275 8.5 9.8675 8.5 9.1875 C7.4275 9.6825 6.355 10.1775 5.25 10.6875 C2.24583192 12.07403911 1.04065105 12.1875 -2.5 12.1875 C-2.5 11.5275 -2.5 10.8675 -2.5 10.1875 C-5.72319414 10.03758399 -8.05609716 10.00344273 -11.0625 11.25 C-13.97578317 12.37049353 -15.54504207 12.03177369 -18.5 11.1875 C-18.83 12.1775 -19.16 13.1675 -19.5 14.1875 C-20.19867188 13.66800781 -20.89734375 13.14851562 -21.6171875 12.61328125 C-25.27121015 10.80607493 -26.76173248 11.26636809 -30.625 12.375 C-31.65882813 12.65730469 -32.69265625 12.93960938 -33.7578125 13.23046875 C-36.66459756 14.11700055 -36.66459756 14.11700055 -39.5 16.1875 C-42.1875 16.3125 -42.1875 16.3125 -44.5 16.1875 C-44.5 16.8475 -44.5 17.5075 -44.5 18.1875 C-47.51031744 19.12173645 -48.36650268 19.23199911 -51.5 18.1875 C-51.5 18.8475 -51.5 19.5075 -51.5 20.1875 C-54.14 20.1875 -56.78 20.1875 -59.5 20.1875 C-59.5 20.8475 -59.5 21.5075 -59.5 22.1875 C-62.14 22.8475 -64.78 23.5075 -67.5 24.1875 C-67.83 25.5075 -68.16 26.8275 -68.5 28.1875 C-70.13790712 29.23394066 -71.81008021 30.2273183 -73.5 31.1875 C-77.3359041 34.63194695 -77.3359041 34.63194695 -79.5 39.1875 C-79.40731495 41.25368749 -79.40731495 41.25368749 -79.0625 43.375 C-78.876875 44.633125 -78.69125 45.89125 -78.5 47.1875 C-79.82 46.8575 -81.14 46.5275 -82.5 46.1875 C-82.5 47.5075 -82.5 48.8275 -82.5 50.1875 C-81.84 50.1875 -81.18 50.1875 -80.5 50.1875 C-80.520625 51.095 -80.54125 52.0025 -80.5625 52.9375 C-80.51083082 56.66909998 -80.51083082 56.66909998 -79.5 60.1875 C-78.51 60.5175 -77.52 60.8475 -76.5 61.1875 C-76.5 62.5075 -76.5 63.8275 -76.5 65.1875 C-75.448125 65.47625 -74.39625 65.765 -73.3125 66.0625 C-70.27181289 66.95975193 -67.41287656 67.95173419 -64.5 69.1875 C-64.5 70.5075 -64.5 71.8275 -64.5 73.1875 C-62.85 73.1875 -61.2 73.1875 -59.5 73.1875 C-59.5 73.8475 -59.5 74.5075 -59.5 75.1875 C-57.85 75.8475 -56.2 76.5075 -54.5 77.1875 C-54.5 78.1775 -54.5 79.1675 -54.5 80.1875 C-53.84 80.1875 -53.18 80.1875 -52.5 80.1875 C-52.005 78.7025 -52.005 78.7025 -51.5 77.1875 C-50.51 77.1875 -49.52 77.1875 -48.5 77.1875 C-48.17 78.1775 -47.84 79.1675 -47.5 80.1875 C-46.17696283 80.5596042 -44.84262065 80.89380173 -43.5 81.1875 C-43.17 81.8475 -42.84 82.5075 -42.5 83.1875 C-41.4171875 82.878125 -41.4171875 82.878125 -40.3125 82.5625 C-36.95702944 82.11510393 -35.38395625 82.42508229 -32.5 84.1875 C-31.859375 86.7734375 -31.859375 86.7734375 -31.5 89.1875 C-30.31921875 89.36925781 -29.1384375 89.55101562 -27.921875 89.73828125 C-26.36448627 89.99159146 -24.80719977 90.24553077 -23.25 90.5 C-22.47269531 90.61794922 -21.69539063 90.73589844 -20.89453125 90.85742188 C-16.52576481 91.58554962 -14.0070771 92.39864784 -10.5 95.1875 C-7.85660709 95.65097813 -7.85660709 95.65097813 -5.0625 95.6875 C-0.56047739 95.83777614 1.69596693 96.84435312 5.5 99.1875 C7.83454393 99.93893968 10.19134192 100.62360851 12.5625 101.25 C20.00946151 103.22896843 20.00946151 103.22896843 23.5 105.1875 C23.5 105.8475 23.5 106.5075 23.5 107.1875 C24.5725 107.290625 25.645 107.39375 26.75 107.5 C30.34739269 108.15952199 31.95776191 108.64526191 34.5 111.1875 C34.5 111.8475 34.5 112.5075 34.5 113.1875 C35.16 113.1875 35.82 113.1875 36.5 113.1875 C40.31718642 120.54921667 41.76974828 125.99666924 39.5 134.1875 C39.17 135.1775 38.84 136.1675 38.5 137.1875 C37.84 137.1875 37.18 137.1875 36.5 137.1875 C36.17 138.5075 35.84 139.8275 35.5 141.1875 C34.84 141.1875 34.18 141.1875 33.5 141.1875 C33.17 142.5075 32.84 143.8275 32.5 145.1875 C31.84 145.1875 31.18 145.1875 30.5 145.1875 C30.5 145.8475 30.5 146.5075 30.5 147.1875 C29.51 147.5175 28.52 147.8475 27.5 148.1875 C27.17 148.8475 26.84 149.5075 26.5 150.1875 C24.85 149.8575 23.2 149.5275 21.5 149.1875 C21.17 150.1775 20.84 151.1675 20.5 152.1875 C19.94054687 152.00574219 19.38109375 151.82398438 18.8046875 151.63671875 C16.1148375 151.11242595 14.29580906 151.42174072 11.625 152 C10.74714844 152.18949219 9.86929688 152.37898437 8.96484375 152.57421875 C6.33504197 153.19214216 6.33504197 153.19214216 3.1875 154.3125 C0.42554253 155.21174197 -1.62158418 155.26324778 -4.5 155.1875 C-5.84332728 155.47794914 -7.18225804 155.79705794 -8.5 156.1875 C-8.5 155.5275 -8.5 154.8675 -8.5 154.1875 C-9.551875 154.373125 -10.60375 154.55875 -11.6875 154.75 C-15.07119882 155.13829331 -17.26425888 155.06997485 -20.5 154.1875 C-20.83 155.5075 -21.16 156.8275 -21.5 158.1875 C-22.49 157.8575 -23.48 157.5275 -24.5 157.1875 C-24.5 155.8675 -24.5 154.5475 -24.5 153.1875 C-25.16386719 153.05472656 -25.82773438 152.92195312 -26.51171875 152.78515625 C-29.17447917 152.25260417 -31.83723958 151.72005208 -34.5 151.1875 C-35.40234375 151.04828125 -36.3046875 150.9090625 -37.234375 150.765625 C-39.5 150.1875 -39.5 150.1875 -41.0625 147.875 C-41.536875 146.988125 -42.01125 146.10125 -42.5 145.1875 C-43.139375 144.589375 -43.77875 143.99125 -44.4375 143.375 C-48.17699129 139.40887287 -50.32961261 134.48379849 -51.5 129.1875 C-53.95873768 129.32808476 -56.41685175 129.47472999 -58.875 129.625 C-59.57367188 129.66431641 -60.27234375 129.70363281 -60.9921875 129.74414062 C-64.87360492 129.93030134 -64.87360492 129.93030134 -68.5 131.1875 C-70.625 130.75 -70.625 130.75 -72.5 130.1875 C-72.5 132.4975 -72.5 134.8075 -72.5 137.1875 C-73.82 137.1875 -75.14 137.1875 -76.5 137.1875 C-78.25 135.4375 -78.25 135.4375 -79.5 133.1875 C-79.5 131.8675 -79.5 130.5475 -79.5 129.1875 C-80.716875 129.22875 -81.93375 129.27 -83.1875 129.3125 C-86.71894127 129.32504508 -89.30003566 128.78748217 -92.5 127.1875 C-92.625 121.4375 -92.625 121.4375 -91.5 119.1875 C-89.85 119.1875 -88.2 119.1875 -86.5 119.1875 C-86.005 118.1975 -86.005 118.1975 -85.5 117.1875 C-84.51 117.1875 -83.52 117.1875 -82.5 117.1875 C-82.17 117.8475 -81.84 118.5075 -81.5 119.1875 C-80.51 119.5175 -79.52 119.8475 -78.5 120.1875 C-78.17 119.1975 -77.84 118.2075 -77.5 117.1875 C-77.00886719 117.51621094 -76.51773438 117.84492188 -76.01171875 118.18359375 C-72.46972637 119.59928899 -69.05985404 119.35992239 -65.3125 119.25 C-62.70374412 119.18837585 -60.11048428 119.1668521 -57.5 119.1875 C-57.17 119.5175 -56.84 119.8475 -56.5 120.1875 C-55.84 118.5375 -55.18 116.8875 -54.5 115.1875 C-53.51 115.1875 -52.52 115.1875 -51.5 115.1875 C-51.17 116.1775 -50.84 117.1675 -50.5 118.1875 C-49.489375 118.72375 -48.47875 119.26 -47.4375 119.8125 C-44.5 122.1875 -44.5 122.1875 -44.10546875 124.4453125 C-44.12329008 126.71931462 -44.23941558 128.92910172 -44.5 131.1875 C-43.84 131.1875 -43.18 131.1875 -42.5 131.1875 C-40.94929804 133.39759135 -39.60566858 135.70071393 -38.23046875 138.0234375 C-36.16442601 140.60715686 -34.60754188 141.16910189 -31.5 142.1875 C-30.87996094 142.53554688 -30.25992188 142.88359375 -29.62109375 143.2421875 C-26.65706462 144.56317286 -23.77216239 144.88089118 -20.5625 145.3125 C-18.75458984 145.56386719 -18.75458984 145.56386719 -16.91015625 145.8203125 C-13.099746 146.23059722 -9.74480903 146.46758203 -6 145.625 C-3.18220893 145.13188656 -1.28275021 145.63094996 1.5 146.1875 C3.85065178 145.90183121 3.85065178 145.90183121 6.5 145.1875 C8.06063328 144.80480558 9.62331232 144.43039694 11.1875 144.0625 C11.95449219 143.87429688 12.72148437 143.68609375 13.51171875 143.4921875 C15.5 143.1875 15.5 143.1875 17.5 144.1875 C17.5 143.5275 17.5 142.8675 17.5 142.1875 C18.69625 141.775 19.8925 141.3625 21.125 140.9375 C25.96545235 139.10412513 29.91031734 136.93102292 33.4375 133.0625 C35.07454615 128.6328457 34.69096433 124.71915671 33.5 120.1875 C26.85148089 110.53642387 9.46815858 105.84400813 -1.5 103.1875 C-2.49 103.1875 -3.48 103.1875 -4.5 103.1875 C-5.49 103.1875 -6.48 103.1875 -7.5 103.1875 C-7.5 102.5275 -7.5 101.8675 -7.5 101.1875 C-8.221875 101.27 -8.94375 101.3525 -9.6875 101.4375 C-12.5 101.1875 -12.5 101.1875 -14.75 99.3125 C-17.98116781 96.81568851 -20.42758707 96.35004174 -24.37109375 95.62890625 C-26.5 95.1875 -26.5 95.1875 -29.0625 94 C-32.17678157 92.96190614 -34.38553737 93.50280563 -37.57421875 94.03125 C-40.24009729 94.24754846 -42.10504506 93.28233655 -44.5 92.1875 C-45.49 92.5175 -46.48 92.8475 -47.5 93.1875 C-48.304375 92.5275 -49.10875 91.8675 -49.9375 91.1875 C-50.783125 90.5275 -51.62875 89.8675 -52.5 89.1875 C-54.59821215 89.58688767 -54.59821215 89.58688767 -56.5 90.1875 C-58 88.875 -58 88.875 -59.5 87.1875 C-60.20125 86.836875 -60.9025 86.48625 -61.625 86.125 C-63.5 85.1875 -63.5 85.1875 -64.5 83.1875 C-65.44875 82.89875 -66.3975 82.61 -67.375 82.3125 C-70.87711354 81.05173913 -71.40871851 80.09710902 -73.5 77.1875 C-75.15204456 76.48538106 -76.81923769 75.81778587 -78.5 75.1875 C-80.3125 73.5625 -80.3125 73.5625 -81.5 72.1875 C-81.5 72.8475 -81.5 73.5075 -81.5 74.1875 C-83.48 73.8575 -85.46 73.5275 -87.5 73.1875 C-88.26322748 70.3041962 -88.54087578 68.38733715 -87.9375 65.4375 C-87.5192562 62.33054608 -87.69687696 60.83234896 -88.4375 57.875 C-90.50006385 49.48443413 -90.54042685 39.42756527 -86.1015625 31.77734375 C-84.65426466 29.77583673 -83.27072187 27.91010442 -81.5 26.1875 C-80.84 26.1875 -80.18 26.1875 -79.5 26.1875 C-79.17 24.8675 -78.84 23.5475 -78.5 22.1875 C-77.84 22.1875 -77.18 22.1875 -76.5 22.1875 C-76.17 21.1975 -75.84 20.2075 -75.5 19.1875 C-74.88125 19.06375 -74.2625 18.94 -73.625 18.8125 C-71.21173085 18.36646024 -71.21173085 18.36646024 -70 15.625 C-69.505 14.820625 -69.01 14.01625 -68.5 13.1875 C-67.18 13.1875 -65.86 13.1875 -64.5 13.1875 C-63.860625 12.8575 -63.22125 12.5275 -62.5625 12.1875 C-60.07270294 10.98032567 -58.2326975 11.03568347 -55.5 11.1875 C-55.5 10.5275 -55.5 9.8675 -55.5 9.1875 C-54.18 9.1875 -52.86 9.1875 -51.5 9.1875 C-51.5 8.5275 -51.5 7.8675 -51.5 7.1875 C-50.489375 7.06375 -49.47875 6.94 -48.4375 6.8125 C-44.65612419 6.21228162 -41.16609757 5.27375113 -37.5 4.1875 C-32.79850746 3.03824627 -32.79850746 3.03824627 -30.5 4.1875 C-30.5 3.1975 -30.5 2.2075 -30.5 1.1875 C-28.83388095 1.144779 -27.16617115 1.14686168 -25.5 1.1875 C-25.005 1.6825 -25.005 1.6825 -24.5 2.1875 C-20.90418863 2.26023449 -17.31856215 2.1835295 -13.72265625 2.125 C-10.5 2.1875 -10.5 2.1875 -8.5 3.1875 C-8.5 2.5275 -8.5 1.8675 -8.5 1.1875 C-5.65161879 -0.2366906 -3.17212092 0.01754492 0 0 Z " fill="#BD0F11" transform="translate(252.5,158.8125)"/>
<path d="M0 0 C1.98 0 3.96 0 6 0 C6.2475 0.804375 6.495 1.60875 6.75 2.4375 C7.72238859 5.171081 7.72238859 5.171081 10.125 5.8125 C10.74375 5.874375 11.3625 5.93625 12 6 C11.67 6.99 11.34 7.98 11 9 C8.9375 9.6875 8.9375 9.6875 7 10 C7.55312735 14.02992782 8.1558062 18.02022924 9 22 C7.68 21.67 6.36 21.34 5 21 C4.278125 21.86625 3.55625 22.7325 2.8125 23.625 C2.12607422 24.44097656 2.12607422 24.44097656 1.42578125 25.2734375 C0.50644658 26.38671401 -0.39379507 27.51617446 -1.26953125 28.6640625 C-3.96754287 32.1414997 -5.93539948 33.51382448 -10 35 C-16.84896749 37.87499146 -16.84896749 37.87499146 -22.1875 42.8125 C-22.785625 43.534375 -23.38375 44.25625 -24 45 C-26.3329614 45.04166002 -28.6670386 45.04166002 -31 45 C-33.31377147 46.89584109 -33.31377147 46.89584109 -35 49 C-35.66 49 -36.32 49 -37 49 C-37 48.01 -37 47.02 -37 46 C-37.845625 46.474375 -38.69125 46.94875 -39.5625 47.4375 C-43.15414856 49.07006753 -46.08049908 49.69849993 -50 50 C-50.66 49.67 -51.32 49.34 -52 49 C-53.99896911 49.31763653 -53.99896911 49.31763653 -56.125 49.9375 C-56.84945312 50.13214844 -57.57390625 50.32679688 -58.3203125 50.52734375 C-58.87460937 50.68332031 -59.42890625 50.83929688 -60 51 C-60 51.66 -60 52.32 -60 53 C-60.99 53 -61.98 53 -63 53 C-63.33 52.34 -63.66 51.68 -64 51 C-65.4540625 51.2475 -65.4540625 51.2475 -66.9375 51.5 C-72.59729651 52.30037526 -78.09886988 52.28516952 -83.75 51.4375 C-86.9187006 51.01094415 -88.92569211 51.33528478 -92 52 C-94.3125 51.5625 -94.3125 51.5625 -96 51 C-96.495 51.99 -96.495 51.99 -97 53 C-97.66 53 -98.32 53 -99 53 C-99.33 52.34 -99.66 51.68 -100 51 C-101.92700632 50.71094905 -103.85677448 50.42751536 -105.796875 50.24609375 C-108.23957107 49.9732394 -110.59208275 49.49357015 -113 49 C-114.08152344 48.82082031 -115.16304687 48.64164062 -116.27734375 48.45703125 C-131.94297608 45.69840869 -147.59981523 39.77947531 -157.72265625 26.83984375 C-162.31653207 20.22297674 -164.61342123 15.11815413 -165 7 C-164.01 7 -163.02 7 -162 7 C-161.62875 8.134375 -161.2575 9.26875 -160.875 10.4375 C-158.78471956 16.0314886 -155.62116467 21.45771297 -151.3125 25.63671875 C-150 27 -150 27 -150 29 C-147.06279492 30.52299523 -144.0831351 31.80100302 -141 33 C-141 33.66 -141 34.32 -141 35 C-140.236875 35.12375 -139.47375 35.2475 -138.6875 35.375 C-136 36 -136 36 -133 38 C-123.64034738 41.18626472 -113.78287659 42.12697489 -103.96875 42.78125 C-101.53792361 42.96036352 -99.16102215 43.21806826 -96.75 43.5625 C-93.25201854 43.97059784 -89.9622521 44.0178287 -86.453125 43.96875 C-81.94901565 44.02612719 -77.47711476 44.53136743 -73 45 C-72.67 43.35 -72.34 41.7 -72 40 C-71.34 40 -70.68 40 -70 40 C-70 40.99 -70 41.98 -70 43 C-68.27119018 43.05449838 -66.54187288 43.09301688 -64.8125 43.125 C-63.84957031 43.14820313 -62.88664062 43.17140625 -61.89453125 43.1953125 C-58.8435095 42.98944059 -56.79147638 42.19375331 -54 41 C-51.796875 40.62109375 -51.796875 40.62109375 -49.75 40.4375 C-46.21082486 40.41762589 -46.21082486 40.41762589 -45 39 C-41.96974198 38.46178999 -38.92923012 38.03443179 -35.8828125 37.59765625 C-32.81986187 37.15019525 -32.81986187 37.15019525 -30 35 C-28.68 35 -27.36 35 -26 35 C-26 32.36 -26 29.72 -26 27 C-25.01 27 -24.02 27 -23 27 C-22.67 28.65 -22.34 30.3 -22 32 C-19.02877247 30.7954483 -17.34472323 29.75946836 -16 26.796875 C-15.26325402 24.54413248 -14.59175308 22.29484731 -14 20 C-9.25 21.875 -9.25 21.875 -7 23 C-1.96744644 15.73929296 -0.8283798 8.69180598 0 0 Z M-12 25 C-11 27 -11 27 -11 27 Z " fill="#9D1315" transform="translate(328,282)"/>
<path d="M0 0 C0.99 0 1.98 0 3 0 C3 1.98 3 3.96 3 6 C5.31 6.33 7.62 6.66 10 7 C10.66 6.01 11.32 5.02 12 4 C12.99 4 13.98 4 15 4 C15 5.32 15 6.64 15 8 C17.31 8 19.62 8 22 8 C22 8.66 22 9.32 22 10 C22.66 10 23.32 10 24 10 C24 10.66 24 11.32 24 12 C25.32 12 26.64 12 28 12 C28.99 9.03 29.98 6.06 31 3 C31.99 3.495 31.99 3.495 33 4 C33.31693627 7.07428185 33.37994057 10.1259154 33.4609375 13.21484375 C33.68629819 16.13792322 33.68629819 16.13792322 36.0390625 17.37890625 C36.68617188 17.58386719 37.33328125 17.78882813 38 18 C38.45375 17.505 38.9075 17.01 39.375 16.5 C41 15 41 15 43 15 C42.76908487 18.40968298 42.52967322 21.81838633 42.27734375 25.2265625 C42.10936553 27.51201258 41.95250219 29.79836747 41.81640625 32.0859375 C41.75324219 32.96507812 41.69007813 33.84421875 41.625 34.75 C41.55152344 35.91789062 41.55152344 35.91789062 41.4765625 37.109375 C41 39 41 39 38 41 C35.76108858 35.54873741 34.52393706 30.86809507 34 25 C32.68 24.67 31.36 24.34 30 24 C30 23.01 30 22.02 30 21 C29.0925 21 28.185 21 27.25 21 C20 21 20 21 18 20 C16.875 17.9375 16.875 17.9375 16 16 C11.29582924 15.85896138 11.29582924 15.85896138 6.6875 16.625 C6.130625 16.74875 5.57375 16.8725 5 17 C4.34 16.34 3.68 15.68 3 15 C0.33050591 14.75684344 0.33050591 14.75684344 -2.625 14.875 C-3.62789062 14.89304688 -4.63078125 14.91109375 -5.6640625 14.9296875 C-6.82035156 14.96449219 -6.82035156 14.96449219 -8 15 C-8.33 15.66 -8.66 16.32 -9 17 C-9.99 17 -10.98 17 -12 17 C-12 16.34 -12 15.68 -12 15 C-12.99 15 -13.98 15 -15 15 C-15.33 16.65 -15.66 18.3 -16 20 C-16.66 20 -17.32 20 -18 20 C-18.33 19.34 -18.66 18.68 -19 18 C-25.08408472 17.80185739 -25.08408472 17.80185739 -31 19 C-31.33 20.32 -31.66 21.64 -32 23 C-33.32 23 -34.64 23 -36 23 C-36 23.66 -36 24.32 -36 25 C-36.66 25 -37.32 25 -38 25 C-38 25.99 -38 26.98 -38 28 C-38.66 28 -39.32 28 -40 28 C-40 30.31 -40 32.62 -40 35 C-39.34 35 -38.68 35 -38 35 C-37.773125 35.598125 -37.54625 36.19625 -37.3125 36.8125 C-35.66692986 39.5551169 -33.72964203 40.41968093 -31 42 C-31 42.66 -31 43.32 -31 44 C-30.236875 44.144375 -29.47375 44.28875 -28.6875 44.4375 C-26 45 -26 45 -23 46 C-23 46.66 -23 47.32 -23 48 C-22.05125 48.0825 -21.1025 48.165 -20.125 48.25 C-15.94096829 48.83440929 -12.32027466 50.38233863 -8.4453125 52.01171875 C-5.34101953 53.26632917 -2.23710631 54.15553748 1 55 C1 55.99 1 56.98 1 58 C-7.03687219 58.54487269 -13.4213465 56.52621783 -21 54 C-22.32900405 53.64980417 -23.66060909 53.30809234 -25 53 C-25 52.34 -25 51.68 -25 51 C-26.65 51 -28.3 51 -30 51 C-30.2475 50.360625 -30.495 49.72125 -30.75 49.0625 C-31.77073238 46.85101127 -31.77073238 46.85101127 -33.75 46.5 C-34.4925 46.335 -35.235 46.17 -36 46 C-40.34448369 43.51743789 -42.77580592 41.47410139 -45 37 C-46.1161224 30.80508807 -45.72613949 25.30916899 -42.4375 19.875 C-39.38482087 15.8460464 -36.94630642 14.6924829 -32 14 C-32 13.34 -32 12.68 -32 12 C-29.35261084 10.5393715 -28.10551666 10 -25 10 C-24.44828125 9.67257813 -23.8965625 9.34515625 -23.328125 9.0078125 C-19.87322252 7.51223391 -16.4436704 7.79016305 -12.75 7.875 C-12.00492188 7.88402344 -11.25984375 7.89304688 -10.4921875 7.90234375 C-8.66131941 7.92581642 -6.83061762 7.96168475 -5 8 C-5 7.34 -5 6.68 -5 6 C-3.35 6 -1.7 6 0 6 C0 4.02 0 2.04 0 0 Z " fill="#C50E11" transform="translate(250,175)"/>
<path d="M0 0 C1.1653125 -0.01417969 2.330625 -0.02835938 3.53125 -0.04296875 C6.5 0.1875 6.5 0.1875 8.5 2.1875 C9.49 1.8575 10.48 1.5275 11.5 1.1875 C14.625 1.5 14.625 1.5 17.5 2.1875 C17.995 3.1775 17.995 3.1775 18.5 4.1875 C20.52463255 4.83963292 20.52463255 4.83963292 22.5 5.1875 C22.83 4.1975 23.16 3.2075 23.5 2.1875 C25.81 2.8475 28.12 3.5075 30.5 4.1875 C30.5 4.8475 30.5 5.5075 30.5 6.1875 C35.03483803 7.95719289 38.65869392 8.27715382 43.5 8.1875 C45.9375 8.6875 45.9375 8.6875 47.5 9.1875 C47.5 9.8475 47.5 10.5075 47.5 11.1875 C48.758125 11.084375 50.01625 10.98125 51.3125 10.875 C53.5390625 10.8671875 53.5390625 10.8671875 55.5 11.1875 C57.1875 13.5 57.1875 13.5 58.5 16.1875 C60.13631892 17.23642238 61.80485863 18.23656703 63.5 19.1875 C64.87562854 20.47715176 66.20766393 21.81439293 67.5 23.1875 C68.304375 23.909375 69.10875 24.63125 69.9375 25.375 C76.14017666 32.18281585 78.36816292 39.14969647 79.5 48.1875 C76.52048117 50.17384589 75.46868376 50.50232475 72.0625 50.8125 C71.30066406 50.88726562 70.53882813 50.96203125 69.75390625 51.0390625 C67.67319114 51.176094 65.58522253 51.1875 63.5 51.1875 C63.5 50.5275 63.5 49.8675 63.5 49.1875 C62.365625 49.765 61.23125 50.3425 60.0625 50.9375 C57.23829527 52.03383708 55.92000848 52.30204777 52.96484375 51.49609375 C50.74209844 50.4851145 48.61081639 49.41392341 46.5 48.1875 C46.83 46.8675 47.16 45.5475 47.5 44.1875 C48.82 44.1875 50.14 44.1875 51.5 44.1875 C51.5 44.8475 51.5 45.5075 51.5 46.1875 C54.08251378 45.56769669 56.53491488 44.84252837 59.0625 44 C60.196875 43.731875 61.33125 43.46375 62.5 43.1875 C63.985 44.1775 63.985 44.1775 65.5 45.1875 C66.82 45.1875 68.14 45.1875 69.5 45.1875 C70.49 45.1875 71.48 45.1875 72.5 45.1875 C72.5 42.5475 72.5 39.9075 72.5 37.1875 C71.84 37.1875 71.18 37.1875 70.5 37.1875 C70.5 36.5275 70.5 35.8675 70.5 35.1875 C69.84 35.1875 69.18 35.1875 68.5 35.1875 C68.29246094 34.63320312 68.08492188 34.07890625 67.87109375 33.5078125 C66.89893305 31.22181119 65.93017954 29.22227439 64.5 27.1875 C61.06544696 25.7060026 61.06544696 25.7060026 57.5 25.1875 C56.14649406 24.56280495 54.80065517 23.9158669 53.5 23.1875 C53.995 21.7025 53.995 21.7025 54.5 20.1875 C52.19 20.1875 49.88 20.1875 47.5 20.1875 C47.005 18.7025 47.005 18.7025 46.5 17.1875 C41.99192684 15.7599435 38.23024354 15.04837519 33.5 15.1875 C32.51 14.6925 32.51 14.6925 31.5 14.1875 C30.18 14.1875 28.86 14.1875 27.5 14.1875 C27.005 13.1975 27.005 13.1975 26.5 12.1875 C25.45199219 12.19910156 24.40398437 12.21070313 23.32421875 12.22265625 C21.94531428 12.23203655 20.56640789 12.2411365 19.1875 12.25 C18.49720703 12.25837891 17.80691406 12.26675781 17.09570312 12.27539062 C13.9516975 12.29057906 11.50579981 12.18943327 8.5 11.1875 C8.5 10.5275 8.5 9.8675 8.5 9.1875 C6.89125 9.93 6.89125 9.93 5.25 10.6875 C2.24583192 12.07403911 1.04065105 12.1875 -2.5 12.1875 C-2.5 11.5275 -2.5 10.8675 -2.5 10.1875 C-5.72319414 10.03758399 -8.05609716 10.00344273 -11.0625 11.25 C-13.97578317 12.37049353 -15.54504207 12.03177369 -18.5 11.1875 C-18.83 12.1775 -19.16 13.1675 -19.5 14.1875 C-20.2425 13.6925 -20.985 13.1975 -21.75 12.6875 C-24.56318188 10.86826525 -24.56318188 10.86826525 -28.5 11.1875 C-28.5 10.5275 -28.5 9.8675 -28.5 9.1875 C-27.695625 9.06375 -26.89125 8.94 -26.0625 8.8125 C-25.216875 8.60625 -24.37125 8.4 -23.5 8.1875 C-23.17 7.5275 -22.84 6.8675 -22.5 6.1875 C-21.08847656 6.29578125 -21.08847656 6.29578125 -19.6484375 6.40625 C-18.40320313 6.4990625 -17.15796875 6.591875 -15.875 6.6875 C-14.03035156 6.82671875 -14.03035156 6.82671875 -12.1484375 6.96875 C-8.91962143 7.16234069 -5.73321325 7.22729339 -2.5 7.1875 C-2.5 6.5275 -2.5 5.8675 -2.5 5.1875 C-14.94481914 5.05362601 -14.94481914 5.05362601 -27.33984375 6.03125 C-30.82809572 6.28356479 -34.05891912 5.76101348 -37.5 5.1875 C-34.5 3.1875 -34.5 3.1875 -32.3125 3.5625 C-31.714375 3.76875 -31.11625 3.975 -30.5 4.1875 C-30.5 3.1975 -30.5 2.2075 -30.5 1.1875 C-28.83388095 1.144779 -27.16617115 1.14686168 -25.5 1.1875 C-25.17 1.5175 -24.84 1.8475 -24.5 2.1875 C-20.90418863 2.26023449 -17.31856215 2.1835295 -13.72265625 2.125 C-10.5 2.1875 -10.5 2.1875 -8.5 3.1875 C-8.5 2.5275 -8.5 1.8675 -8.5 1.1875 C-5.65161879 -0.2366906 -3.17212092 0.01754492 0 0 Z " fill="#D20F10" transform="translate(252.5,158.8125)"/>
<path d="M0 0 C0.99 0.33 1.98 0.66 3 1 C2.67 1.99 2.34 2.98 2 4 C2.09268505 6.06618749 2.09268505 6.06618749 2.4375 8.1875 C2.623125 9.445625 2.80875 10.70375 3 12 C1.68 11.67 0.36 11.34 -1 11 C-1 12.32 -1 13.64 -1 15 C-0.34 15 0.32 15 1 15 C0.979375 15.9075 0.95875 16.815 0.9375 17.75 C0.98916918 21.48159998 0.98916918 21.48159998 2 25 C2.99 25.33 3.98 25.66 5 26 C5 27.32 5 28.64 5 30 C6.5778125 30.433125 6.5778125 30.433125 8.1875 30.875 C11.22818711 31.77225193 14.08712344 32.76423419 17 34 C17 35.32 17 36.64 17 38 C18.65 38 20.3 38 22 38 C22 38.66 22 39.32 22 40 C23.65 40.66 25.3 41.32 27 42 C27 42.99 27 43.98 27 45 C27.66 45 28.32 45 29 45 C29.33 44.01 29.66 43.02 30 42 C30.99 42 31.98 42 33 42 C33.33 42.99 33.66 43.98 34 45 C35.32303717 45.3721042 36.65737935 45.70630173 38 46 C38.33 46.66 38.66 47.32 39 48 C39.721875 47.79375 40.44375 47.5875 41.1875 47.375 C44.54297056 46.92760393 46.11604375 47.23758229 49 49 C49.640625 51.5859375 49.640625 51.5859375 50 54 C51.18078125 54.18175781 52.3615625 54.36351562 53.578125 54.55078125 C55.13551373 54.80409146 56.69280023 55.05803077 58.25 55.3125 C59.02730469 55.43044922 59.80460937 55.54839844 60.60546875 55.66992188 C64.97423519 56.39804962 67.4929229 57.21114784 71 60 C73.64339291 60.46347813 73.64339291 60.46347813 76.4375 60.5 C80.82906293 60.77994027 83.35502687 61.42707779 87 64 C89.69254991 64.70670728 89.69254991 64.70670728 92 65 C89 67 89 67 87 68 C89.31 68.33 91.62 68.66 94 69 C94.33 69.99 94.66 70.98 95 72 C96.65 71.67 98.3 71.34 100 71 C99.505 72.485 99.505 72.485 99 74 C96.7895859 73.40349099 94.58174597 72.7974391 92.375 72.1875 C91.14523437 71.85105469 89.91546875 71.51460938 88.6484375 71.16796875 C85 70 85 70 81.71875 68.34375 C78.58012962 66.79247786 77.27022752 66.94198521 74 68 C74 67.34 74 66.68 74 66 C73.278125 66.0825 72.55625 66.165 71.8125 66.25 C69 66 69 66 66.75 64.125 C63.51883219 61.62818851 61.07241293 61.16254174 57.12890625 60.44140625 C55 60 55 60 52.4375 58.8125 C49.79692034 57.93230678 48.68525642 58.10245607 46 58.5625 C42.76638785 59.10143536 42.13659461 59.06545158 39 57.5625 C38.34 57.046875 37.68 56.53125 37 56 C39.52053595 54.73973202 40.8542098 55.08125555 43.625 55.4375 C44.85089844 55.59025391 44.85089844 55.59025391 46.1015625 55.74609375 C46.72804687 55.82988281 47.35453125 55.91367188 48 56 C47.505 54.02 47.505 54.02 47 52 C45.824375 51.87625 44.64875 51.7525 43.4375 51.625 C39.45879574 51.13564065 35.82233441 50.1944795 32 49 C32 48.34 32 47.68 32 47 C29.69 47 27.38 47 25 47 C25 46.01 25 45.02 25 44 C24.34 44 23.68 44 23 44 C22.5875 43.54625 22.175 43.0925 21.75 42.625 C19.41860535 40.46013354 17.02171964 39.87294123 14 39 C14 38.34 14 37.68 14 37 C13.484375 36.7525 12.96875 36.505 12.4375 36.25 C11.2309375 35.63125 11.2309375 35.63125 10 35 C8.88625 34.54625 7.7725 34.0925 6.625 33.625 C0.55763343 30.2121063 -1.90051901 22.29844296 -4 16 C-4.12781786 13.32605036 -4.04391871 10.67904143 -4 8 C-2.68 7.34 -1.36 6.68 0 6 C0 4.02 0 2.04 0 0 Z " fill="#A51114" transform="translate(171,194)"/>
<path d="M0 0 C2.1681203 1.77391661 2.97286922 2.91234672 3.8125 5.625 C5.64390505 10.83004594 8.71521479 15.77853448 12.69140625 19.64453125 C14 21 14 21 14 23 C16.93720508 24.52299523 19.9168649 25.80100302 23 27 C23 27.66 23 28.32 23 29 C23.763125 29.12375 24.52625 29.2475 25.3125 29.375 C28 30 28 30 31 32 C40.35965262 35.18626472 50.21712341 36.12697489 60.03125 36.78125 C62.46207639 36.96036352 64.83897785 37.21806826 67.25 37.5625 C70.74798146 37.97059784 74.0377479 38.0178287 77.546875 37.96875 C82.05098435 38.02612719 86.52288524 38.53136743 91 39 C91.33 37.35 91.66 35.7 92 34 C92.66 34 93.32 34 94 34 C94 34.99 94 35.98 94 37 C95.72880982 37.05449838 97.45812712 37.09301688 99.1875 37.125 C100.15042969 37.14820313 101.11335938 37.17140625 102.10546875 37.1953125 C105.13890415 36.99062725 107.21899852 36.16501413 110 35 C112.8125 35.375 112.8125 35.375 115 36 C115 36.33 115 36.66 115 37 C109.95482513 38.61838726 105.45805299 39.31432823 100.125 39.5625 C95.7429287 39.37560658 95.7429287 39.37560658 92 41 C90.21224692 41.02909988 88.42324716 40.98634069 86.63671875 40.9140625 C85.52103516 40.87023437 84.40535156 40.82640625 83.25585938 40.78125 C82.07830078 40.7296875 80.90074219 40.678125 79.6875 40.625 C78.55248047 40.58117187 77.41746094 40.53734375 76.24804688 40.4921875 C68.81185685 40.18676498 61.41110116 39.68025823 54 39 C54.99 39.66 55.98 40.32 57 41 C57 41.66 57 42.32 57 43 C59.64 42.67 62.28 42.34 65 42 C65 42.66 65 43.32 65 44 C66.485 44.495 66.485 44.495 68 45 C67.505 45.99 67.505 45.99 67 47 C66.34 47 65.68 47 65 47 C64.67 46.34 64.34 45.68 64 45 C62.07299368 44.71094905 60.14322552 44.42751536 58.203125 44.24609375 C55.76042893 43.9732394 53.40791725 43.49357015 51 43 C49.91847656 42.82082031 48.83695313 42.64164062 47.72265625 42.45703125 C32.05702392 39.69840869 16.40018477 33.77947531 6.27734375 20.83984375 C1.90333802 14.53967035 -1.24641407 8.88525013 -1 1 C-0.67 0.67 -0.34 0.34 0 0 Z " fill="#8F1516" transform="translate(164,288)"/>
<path d="M0 0 C0.25 5.625 0.25 5.625 -2 9 C-2.88791147 17.43515901 0.16350777 25.10996235 5 32 C7.42164875 33.7856303 7.42164875 33.7856303 10.125 35.1875 C14.90709291 37.81418581 14.90709291 37.81418581 16 40 C17.155 40.309375 18.31 40.61875 19.5 40.9375 C21.2325 41.4634375 21.2325 41.4634375 23 42 C23.33 42.99 23.66 43.98 24 45 C24.66 45 25.32 45 26 45 C26 45.99 26 46.98 26 48 C28.31 48 30.62 48 33 48 C33 48.66 33 49.32 33 50 C33.969375 49.979375 34.93875 49.95875 35.9375 49.9375 C39 50 39 50 40 51 C41.34747084 51.23075082 42.70377565 51.41153063 44.0625 51.5625 C45.361875 51.706875 46.66125 51.85125 48 52 C48.495 54.475 48.495 54.475 49 57 C47.54176788 57.0270043 46.08339325 57.04639787 44.625 57.0625 C43.40683594 57.07990234 43.40683594 57.07990234 42.1640625 57.09765625 C40 57 40 57 38 56 C37.67 56.99 37.34 57.98 37 59 C34.47671825 58.56495142 33.26840377 58.29077075 31.5 56.375 C31.005 55.92125 30.51 55.4675 30 55 C29.34 55.165 28.68 55.33 28 55.5 C27.34 55.665 26.68 55.83 26 56 C24.5 54.6875 24.5 54.6875 23 53 C22.29875 52.649375 21.5975 52.29875 20.875 51.9375 C19 51 19 51 18 49 C17.05125 48.71125 16.1025 48.4225 15.125 48.125 C11.74680246 46.90884888 10.73002789 46.07560513 9 43 C9 42.34 9 41.68 9 41 C8.360625 40.87625 7.72125 40.7525 7.0625 40.625 C6.381875 40.41875 5.70125 40.2125 5 40 C4.67 39.34 4.34 38.68 4 38 C3.071875 37.814375 3.071875 37.814375 2.125 37.625 C-0.8233543 36.75783697 -1.42657206 35.63090796 -3 33 C-3.73046875 29.64453125 -3.73046875 29.64453125 -4.1875 25.8125 C-4.26718018 25.14847168 -4.34686035 24.48444336 -4.42895508 23.80029297 C-4.99251373 18.8233013 -5.25859373 13.99947883 -5 9 C-4.67 8.67 -4.34 8.34 -4 8 C-3.855625 6.845 -3.71125 5.69 -3.5625 4.5 C-3.376875 3.345 -3.19125 2.19 -3 1 C-1 0 -1 0 0 0 Z " fill="#F00606" transform="translate(170,193)"/>
<path d="M0 0 C1.98 0 3.96 0 6 0 C6.2475 0.804375 6.495 1.60875 6.75 2.4375 C7.72238859 5.171081 7.72238859 5.171081 10.125 5.8125 C10.74375 5.874375 11.3625 5.93625 12 6 C11.67 6.99 11.34 7.98 11 9 C9.02 9 7.04 9 5 9 C5 11.64 5 14.28 5 17 C4.01 17.495 4.01 17.495 3 18 C3 18.66 3 19.32 3 20 C2.34 20 1.68 20 1 20 C0.690625 20.94875 0.38125 21.8975 0.0625 22.875 C-1 26 -1 26 -2 28 C-2.99 28 -3.98 28 -5 28 C-5.020625 28.598125 -5.04125 29.19625 -5.0625 29.8125 C-6 32 -6 32 -9.0625 33.5625 C-10.36819606 34.05990802 -11.68140691 34.53786452 -13 35 C-18.3523724 36.41668719 -18.3523724 36.41668719 -22 40 C-24.64860427 40.59355614 -27.29197322 40.74209269 -30 41 C-29.25 39.0625 -29.25 39.0625 -28 37 C-25.875 36.25 -25.875 36.25 -24 36 C-24 34.35 -24 32.7 -24 31 C-23.0925 31.04125 -22.185 31.0825 -21.25 31.125 C-17.86660345 30.35624663 -17.86660345 30.35624663 -16.7109375 27.70703125 C-15.71197501 25.15931756 -14.80667822 22.61458648 -14 20 C-9.25 21.875 -9.25 21.875 -7 23 C-1.96744644 15.73929296 -0.8283798 8.69180598 0 0 Z M-12 25 C-11 27 -11 27 -11 27 Z " fill="#E70B0C" transform="translate(328,282)"/>
<path d="M0 0 C4.30789266 2.31963451 7.68463249 4.35309574 11 8 C11.804375 8.721875 12.60875 9.44375 13.4375 10.1875 C19.64017666 16.99531585 21.86816292 23.96219647 23 33 C20.02048117 34.98634589 18.96868376 35.31482475 15.5625 35.625 C14.80066406 35.69976562 14.03882813 35.77453125 13.25390625 35.8515625 C11.17319114 35.988594 9.08522253 36 7 36 C7 35.34 7 34.68 7 34 C5.865625 34.5775 4.73125 35.155 3.5625 35.75 C0.73829527 36.84633708 -0.57999152 37.11454777 -3.53515625 36.30859375 C-5.75790156 35.2976145 -7.88918361 34.22642341 -10 33 C-9.67 31.68 -9.34 30.36 -9 29 C-7.68 29 -6.36 29 -5 29 C-5 29.66 -5 30.32 -5 31 C-2.41748622 30.38019669 0.03491488 29.65502837 2.5625 28.8125 C3.696875 28.544375 4.83125 28.27625 6 28 C6.99 28.66 7.98 29.32 9 30 C10.32 30 11.64 30 13 30 C13.99 30 14.98 30 16 30 C16 27.36 16 24.72 16 22 C15.34 22 14.68 22 14 22 C14 21.34 14 20.68 14 20 C13.34 20 12.68 20 12 20 C11.79246094 19.44570312 11.58492188 18.89140625 11.37109375 18.3203125 C10.39893305 16.03431119 9.43017954 14.03477439 8 12 C4.56544696 10.5185026 4.56544696 10.5185026 1 10 C-0.35350594 9.37530495 -1.69934483 8.7283669 -3 8 C-2.34 7.01 -1.68 6.02 -1 5 C-0.61500109 3.34450469 -0.27206865 1.6777567 0 0 Z " fill="#881B19" transform="translate(309,174)"/>
<path d="M0 0 C0.33 0 0.66 0 1 0 C1 1.65 1 3.3 1 5 C1.99 5 2.98 5 4 5 C4 7.31 4 9.62 4 12 C4.66 12 5.32 12 6 12 C6.3403125 12.8971875 6.3403125 12.8971875 6.6875 13.8125 C8.33307014 16.5551169 10.27035797 17.41968093 13 19 C13 19.66 13 20.32 13 21 C13.763125 21.144375 14.52625 21.28875 15.3125 21.4375 C18 22 18 22 21 23 C21 23.66 21 24.32 21 25 C21.94875 25.0825 22.8975 25.165 23.875 25.25 C28.05903171 25.83440929 31.67972534 27.38233863 35.5546875 29.01171875 C38.65898047 30.26632917 41.76289369 31.15553748 45 32 C45 32.99 45 33.98 45 35 C36.96312781 35.54487269 30.5786535 33.52621783 23 31 C21.67099595 30.64980417 20.33939091 30.30809234 19 30 C19 29.34 19 28.68 19 28 C17.35 28 15.7 28 14 28 C13.7525 27.360625 13.505 26.72125 13.25 26.0625 C12.22926762 23.85101127 12.22926762 23.85101127 10.25 23.5 C9.5075 23.335 8.765 23.17 8 23 C3.66622265 20.5235558 1.17924965 18.49270528 -1 14 C-1.328125 10.95703125 -1.328125 10.95703125 -1.25 7.8125 C-1.23453125 6.76707031 -1.2190625 5.72164062 -1.203125 4.64453125 C-1 2 -1 2 0 0 Z " fill="#761312" transform="translate(206,198)"/>
<path d="M0 0 C0.495 0.99 0.495 0.99 1 2 C5.47142836 3.91632644 9.18301969 4.08920334 14 4 C16.4375 4.5 16.4375 4.5 18 5 C18 5.66 18 6.32 18 7 C19.299375 6.979375 20.59875 6.95875 21.9375 6.9375 C23.29165633 6.91600546 24.64756083 6.92851801 26 7 C27 8 27 8 27.09765625 10.28515625 C27.08605469 11.20167969 27.07445312 12.11820313 27.0625 13.0625 C27.05347656 13.98160156 27.04445313 14.90070313 27.03515625 15.84765625 C27.02355469 16.55792969 27.01195312 17.26820313 27 18 C26.505 17.01 26.505 17.01 26 16 C23.36 16 20.72 16 18 16 C17.505 14.515 17.505 14.515 17 13 C12.49192684 11.5724435 8.73024354 10.86087519 4 11 C3.34 10.67 2.68 10.34 2 10 C0.68 10 -0.64 10 -2 10 C-2.495 9.01 -2.495 9.01 -3 8 C-4.04800781 8.01160156 -5.09601563 8.02320313 -6.17578125 8.03515625 C-7.55468572 8.04453655 -8.93359211 8.0536365 -10.3125 8.0625 C-11.00279297 8.07087891 -11.69308594 8.07925781 -12.40429688 8.08789062 C-15.5483025 8.10307906 -17.99420019 8.00193327 -21 7 C-21 6.34 -21 5.68 -21 5 C-22.60875 5.7425 -22.60875 5.7425 -24.25 6.5 C-27.25416808 7.88653911 -28.45934895 8 -32 8 C-32 7.34 -32 6.68 -32 6 C-32.99 5.67 -33.98 5.34 -35 5 C-33.948125 5.04125 -32.89625 5.0825 -31.8125 5.125 C-28.14136421 5.23946407 -28.14136421 5.23946407 -25.5703125 3.94140625 C-22.54767824 2.834332 -21.16025976 3.07266523 -18.0625 3.8125 C-11.41219972 5.220692 -4.77624255 5.62409165 2 6 C1.34 5.34 0.68 4.68 0 4 C0 2.68 0 1.36 0 0 Z " fill="#8C0D0F" transform="translate(282,163)"/>
<path d="M0 0 C0.99 0.33 1.98 0.66 3 1 C2.67 2.32 2.34 3.64 2 5 C0.35 5.33 -1.3 5.66 -3 6 C-3.33 7.65 -3.66 9.3 -4 11 C-4.99 11.33 -5.98 11.66 -7 12 C-7.33 12.99 -7.66 13.98 -8 15 C-8.99 15 -9.98 15 -11 15 C-11 15.99 -11 16.98 -11 18 C-11.99 18 -12.98 18 -14 18 C-14 19.98 -14 21.96 -14 24 C-14.66 23.67 -15.32 23.34 -16 23 C-16 21.35 -16 19.7 -16 18 C-16.66 18 -17.32 18 -18 18 C-17.979375 19.134375 -17.95875 20.26875 -17.9375 21.4375 C-18 25 -18 25 -19 26 C-19.4238248 34.19394613 -19.7861789 47.0087601 -15 54 C-12.44480079 54.81171228 -12.44480079 54.81171228 -10 55 C-10 55.66 -10 56.32 -10 57 C-8.68 57.66 -7.36 58.32 -6 59 C-9.68754757 58.50168276 -11.60490662 57.89932357 -14 55 C-14 55.66 -14 56.32 -14 57 C-15.98 56.67 -17.96 56.34 -20 56 C-20.76322748 53.1166962 -21.04087578 51.19983715 -20.4375 48.25 C-20.0192562 45.14304608 -20.19687696 43.64484896 -20.9375 40.6875 C-23.00006385 32.29693413 -23.04042685 22.24006527 -18.6015625 14.58984375 C-17.15426466 12.58833673 -15.77072187 10.72260442 -14 9 C-13.34 9 -12.68 9 -12 9 C-11.67 7.68 -11.34 6.36 -11 5 C-10.34 5 -9.68 5 -9 5 C-9 4.34 -9 3.68 -9 3 C-6.69 3 -4.38 3 -2 3 C-2 2.34 -2 1.68 -2 1 C-1.34 0.67 -0.68 0.34 0 0 Z " fill="#D70D0B" transform="translate(185,176)"/>
<path d="M0 0 C0.86351578 0.00202423 1.72703156 0.00404846 2.61671448 0.00613403 C3.49839798 0.00517731 4.38008148 0.00422058 5.28848267 0.00323486 C7.15725272 0.00255295 9.02602512 0.00440802 10.89479065 0.00857544 C13.761137 0.01391721 16.6273262 0.00863412 19.4936676 0.00222778 C21.30551691 0.00288869 23.11736612 0.0041701 24.92921448 0.00613403 C26.2214518 0.00309769 26.2214518 0.00309769 27.53979492 0 C33.60946195 0.02399214 33.60946195 0.02399214 35.83937073 1.13894653 C35.46437073 3.07644653 35.46437073 3.07644653 34.83937073 5.13894653 C32.18713652 6.46506364 29.91704107 6.45853364 26.95655823 6.67410278 C25.78995667 6.7611145 24.6233551 6.84812622 23.42140198 6.93777466 C22.19808167 7.02478638 20.97476135 7.1117981 19.71437073 7.20144653 C18.48331604 7.29232544 17.25226135 7.38320435 15.98390198 7.47683716 C12.93597958 7.70129656 9.8878237 7.92183196 6.83937073 8.13894653 C6.50937073 9.12894653 6.17937073 10.11894653 5.83937073 11.13894653 C5.83937073 10.14894653 5.83937073 9.15894653 5.83937073 8.13894653 C4.62249573 8.18019653 3.40562073 8.22144653 2.15187073 8.26394653 C-1.37957054 8.27649162 -3.96066494 7.7389287 -7.16062927 6.13894653 C-7.20335027 4.47282748 -7.20126759 2.80511768 -7.16062927 1.13894653 C-5.26889234 -0.7527904 -2.51659162 0.00998704 0 0 Z " fill="#EB0809" transform="translate(169.16062927246094,279.8610534667969)"/>
<path d="M0 0 C0.66 0.33 1.32 0.66 2 1 C2.31693627 4.07428185 2.37994057 7.1259154 2.4609375 10.21484375 C2.68629819 13.13792322 2.68629819 13.13792322 5.0390625 14.37890625 C5.68617188 14.58386719 6.33328125 14.78882813 7 15 C7.680625 14.2575 7.680625 14.2575 8.375 13.5 C10 12 10 12 12 12 C11.76908487 15.40968298 11.52967322 18.81838633 11.27734375 22.2265625 C11.10936553 24.51201258 10.95250219 26.79836747 10.81640625 29.0859375 C10.75324219 29.96507812 10.69007813 30.84421875 10.625 31.75 C10.57601563 32.52859375 10.52703125 33.3071875 10.4765625 34.109375 C10 36 10 36 7 38 C4.76108858 32.54873741 3.52393706 27.86809507 3 22 C1.68 21.67 0.36 21.34 -1 21 C-1 20.01 -1 19.02 -1 18 C-1.9075 18 -2.815 18 -3.75 18 C-11 18 -11 18 -13 17 C-13 16.01 -13 15.02 -13 14 C-12.154375 14.144375 -11.30875 14.28875 -10.4375 14.4375 C-6.96406851 15.0058797 -3.48554338 15.51202393 0 16 C-0.33 14.68 -0.66 13.36 -1 12 C-3.31 11.67 -5.62 11.34 -8 11 C-8.33 9.68 -8.66 8.36 -9 7 C-8.34 7 -7.68 7 -7 7 C-7 7.66 -7 8.32 -7 9 C-5.68 9 -4.36 9 -3 9 C-2.01 6.03 -1.02 3.06 0 0 Z " fill="#CC1312" transform="translate(281,178)"/>
<path d="M0 0 C0.33 0.66 0.66 1.32 1 2 C4.54431502 2.71940932 8.0750426 3.2630794 11.65429688 3.76757812 C16.03125844 4.44877335 18.49099333 5.20042294 22 8 C24.64339291 8.46347813 24.64339291 8.46347813 27.4375 8.5 C31.82906293 8.77994027 34.35502687 9.42707779 38 12 C40.69254991 12.70670728 40.69254991 12.70670728 43 13 C40 15 40 15 38 16 C40.31 16.33 42.62 16.66 45 17 C45.495 18.485 45.495 18.485 46 20 C47.65 19.67 49.3 19.34 51 19 C50.505 20.485 50.505 20.485 50 22 C47.7895859 21.40349099 45.58174597 20.7974391 43.375 20.1875 C41.53035156 19.68283203 41.53035156 19.68283203 39.6484375 19.16796875 C36 18 36 18 32.71875 16.34375 C29.58012962 14.79247786 28.27022752 14.94198521 25 16 C25 15.34 25 14.68 25 14 C24.278125 14.0825 23.55625 14.165 22.8125 14.25 C20 14 20 14 17.75 12.125 C14.51883219 9.62818851 12.07241293 9.16254174 8.12890625 8.44140625 C6 8 6 8 3.4375 6.8125 C0.79692034 5.93230678 -0.31474358 6.10245607 -3 6.5625 C-6.23361215 7.10143536 -6.86340539 7.06545158 -10 5.5625 C-10.66 5.046875 -11.32 4.53125 -12 4 C-9.2780754 2.6390377 -7.8168043 3.29633752 -4.875 3.9375 C-3.50988281 4.22947266 -3.50988281 4.22947266 -2.1171875 4.52734375 C-1.41851562 4.68332031 -0.71984375 4.83929688 0 5 C0 3.35 0 1.7 0 0 Z " fill="#501717" transform="translate(220,246)"/>
<path d="M0 0 C0.78117188 0.06058594 1.56234375 0.12117188 2.3671875 0.18359375 C11.13408783 0.81816894 19.9054759 1.2561963 28.6875 1.625 C29.83395996 1.67712646 30.98041992 1.72925293 32.16162109 1.78295898 C33.24652832 1.82622314 34.33143555 1.8694873 35.44921875 1.9140625 C36.90847778 1.9752124 36.90847778 1.9752124 38.3972168 2.03759766 C40.9573739 2.11425076 40.9573739 2.11425076 43.15942383 1.38037109 C43.76681396 1.25484863 44.3742041 1.12932617 45 1 C45.99 1.66 46.98 2.32 48 3 C47.34 3.33 46.68 3.66 46 4 C46.99 4.33 47.98 4.66 49 5 C49 5.66 49 6.32 49 7 C42.33122899 8.13510996 35.96052655 8.44407898 29.25 7.4375 C26.10995644 6.82304702 26.10995644 6.82304702 23.5 7.5625 C19.9828726 8.1779973 17.33847053 7.11282351 14 6 C14 5.34 14 4.68 14 4 C11.36 4.33 8.72 4.66 6 5 C6 4.34 6 3.68 6 3 C4.02 2.34 2.04 1.68 0 1 C0 0.67 0 0.34 0 0 Z " fill="#CF1311" transform="translate(215,326)"/>
<path d="M0 0 C2.1681203 1.77391661 2.97286922 2.91234672 3.8125 5.625 C5.64390505 10.83004594 8.71521479 15.77853448 12.69140625 19.64453125 C14 21 14 21 14 23 C16.93720508 24.52299523 19.9168649 25.80100302 23 27 C23 27.66 23 28.32 23 29 C23.763125 29.103125 24.52625 29.20625 25.3125 29.3125 C28.17059424 30.04364039 29.15742885 30.76951913 31 33 C29.35 32.67 27.7 32.34 26 32 C25.67 32.66 25.34 33.32 25 34 C26.98 34.33 28.96 34.66 31 35 C31 35.66 31 36.32 31 37 C21.1322575 35.46307727 12.56332232 28.1959317 6 21 C1.45352713 14.60911623 -0.87338549 8.85009931 -1 1 C-0.67 0.67 -0.34 0.34 0 0 Z " fill="#781918" transform="translate(164,288)"/>
<path d="M0 0 C0.99 0.495 0.99 0.495 2 1 C1.67 1.66 1.34 2.32 1 3 C2.98 3.495 2.98 3.495 5 4 C5.061875 4.928125 5.061875 4.928125 5.125 5.875 C5.41375 6.57625 5.7025 7.2775 6 8 C8.97503122 9.15835673 8.97503122 9.15835673 12 10 C12.33 10.66 12.66 11.32 13 12 C15.53845667 12.45451602 15.53845667 12.45451602 18.609375 12.59765625 C20.33027344 12.71657227 20.33027344 12.71657227 22.0859375 12.83789062 C23.89964844 12.94907227 23.89964844 12.94907227 25.75 13.0625 C28.11997032 13.21734147 30.48977162 13.37479718 32.859375 13.53515625 C33.91608398 13.600979 34.97279297 13.66680176 36.06152344 13.73461914 C38.77328295 13.97952464 41.34462917 14.40906664 44 15 C44.495 16.98 44.495 16.98 45 19 C33.37469689 19.29307487 22.42049999 18.35627416 11 16 C11 15.34 11 14.68 11 14 C9.35 13.67 7.7 13.34 6 13 C5.67 11.68 5.34 10.36 5 9 C3.68 9 2.36 9 1 9 C0.67 6.03 0.34 3.06 0 0 Z " fill="#E20A0C" transform="translate(207,292)"/>
<path d="M0 0 C0.66 0.33 1.32 0.66 2 1 C2.40197001 3.32249342 2.72686657 5.65885633 3 8 C3.31966139 9.66934283 3.64731066 11.3373217 4 13 C2.68 12.67 1.36 12.34 0 12 C-0.721875 12.86625 -1.44375 13.7325 -2.1875 14.625 C-2.64511719 15.16898437 -3.10273438 15.71296875 -3.57421875 16.2734375 C-4.49355342 17.38671401 -5.39379507 18.51617446 -6.26953125 19.6640625 C-8.96754287 23.1414997 -10.93539948 24.51382448 -15 26 C-20.83689974 28.56319942 -25.3009561 30.60556099 -29 36 C-29.66 36 -30.32 36 -31 36 C-31 35.34 -31 34.68 -31 34 C-32.98 34 -34.96 34 -37 34 C-37 33.01 -37 32.02 -37 31 C-37.66 31.33 -38.32 31.66 -39 32 C-41.54615009 32.23172827 -44.07396225 32.41894529 -46.625 32.5625 C-47.33140625 32.60568359 -48.0378125 32.64886719 -48.765625 32.69335938 C-50.51018537 32.79944751 -52.25506697 32.90022889 -54 33 C-50.75126212 30.12701976 -48.20150775 29.48172899 -43.9375 28.9375 C-40.09821798 28.43920011 -38.26960277 28.17973518 -35 26 C-33.68 26 -32.36 26 -31 26 C-31 23.36 -31 20.72 -31 18 C-30.01 18 -29.02 18 -28 18 C-27.67 19.32 -27.34 20.64 -27 22 C-27.66 22 -28.32 22 -29 22 C-28.896875 22.763125 -28.79375 23.52625 -28.6875 24.3125 C-28.790625 25.199375 -28.89375 26.08625 -29 27 C-31.4375 28.6875 -31.4375 28.6875 -34 30 C-34.33 30.66 -34.66 31.32 -35 32 C-31.04 31.505 -31.04 31.505 -27 31 C-26.67 30.01 -26.34 29.02 -26 28 C-24.2578125 27.12109375 -24.2578125 27.12109375 -22.125 26.4375 C-19.29073539 25.51191912 -17.54841174 24.69894116 -15 23 C-13.68 23 -12.36 23 -11 23 C-10.67 21.68 -10.34 20.36 -10 19 C-9.01 19 -8.02 19 -7 19 C-6.690625 18.05125 -6.38125 17.1025 -6.0625 16.125 C-5 13 -5 13 -4 11 C-3.34 11 -2.68 11 -2 11 C-2.495 9.515 -2.495 9.515 -3 8 C-2.01 8 -1.02 8 0 8 C0 5.36 0 2.72 0 0 Z " fill="#C41012" transform="translate(333,291)"/>
<path d="M0 0 C4.43887706 0.93073229 8.61413953 2.27627139 12.875 3.8125 C12.875 4.4725 12.875 5.1325 12.875 5.8125 C13.9475 5.915625 15.02 6.01875 16.125 6.125 C19.72239269 6.78452199 21.33276191 7.27026191 23.875 9.8125 C23.875 10.4725 23.875 11.1325 23.875 11.8125 C24.535 11.8125 25.195 11.8125 25.875 11.8125 C29.4030138 18.61652662 30.91016381 23.63668093 29.375 31.3125 C29.21 31.8075 29.045 32.3025 28.875 32.8125 C28.215 32.8125 27.555 32.8125 26.875 32.8125 C26.89820313 32.00425781 26.92140625 31.19601562 26.9453125 30.36328125 C26.96335937 29.29464844 26.98140625 28.22601563 27 27.125 C27.02320313 26.06925781 27.04640625 25.01351563 27.0703125 23.92578125 C26.87220577 20.76795995 26.11935373 18.68823086 24.875 15.8125 C24.875 14.8225 24.875 13.8325 24.875 12.8125 C23.885 13.1425 22.895 13.4725 21.875 13.8125 C22.535 15.4625 23.195 17.1125 23.875 18.8125 C23.09125 18.090625 22.3075 17.36875 21.5 16.625 C17.99492222 13.6578718 14.12331059 11.88274896 9.94921875 10.0234375 C7.875 8.8125 7.875 8.8125 6.875 5.8125 C5.555 5.8125 4.235 5.8125 2.875 5.8125 C2.215 5.1525 1.555 4.4925 0.875 3.8125 C-1.44265729 3.09322705 -3.77595874 2.4215107 -6.125 1.8125 C-3.125 -0.1875 -3.125 -0.1875 0 0 Z " fill="#8D1111" transform="translate(263.125,260.1875)"/>
<path d="M0 0 C0.66 0 1.32 0 2 0 C2.28571429 8.57142857 2.28571429 8.57142857 0 12 C-3 12 -6 12 -9 12 C-9 11.34 -9 10.68 -9 10 C-10.134375 10.5775 -11.26875 11.155 -12.4375 11.75 C-15.26170473 12.84633708 -16.57999152 13.11454777 -19.53515625 12.30859375 C-21.75790156 11.2976145 -23.88918361 10.22642341 -26 9 C-25.67 7.68 -25.34 6.36 -25 5 C-23.68 5 -22.36 5 -21 5 C-21 5.66 -21 6.32 -21 7 C-18.41748622 6.38019669 -15.96508512 5.65502837 -13.4375 4.8125 C-12.303125 4.544375 -11.16875 4.27625 -10 4 C-9.01 4.66 -8.02 5.32 -7 6 C-5.68 6 -4.36 6 -3 6 C-2.01 6 -1.02 6 0 6 C0 4.02 0 2.04 0 0 Z " fill="#501615" transform="translate(325,198)"/>
<path d="M0 0 C2.97 0.495 2.97 0.495 6 1 C6 1.66 6 2.32 6 3 C6.66 3 7.32 3 8 3 C8 3.99 8 4.98 8 6 C10.31 6 12.62 6 15 6 C15 6.66 15 7.32 15 8 C15.969375 7.979375 16.93875 7.95875 17.9375 7.9375 C21 8 21 8 22 9 C23.34747084 9.23075082 24.70377565 9.41153063 26.0625 9.5625 C27.361875 9.706875 28.66125 9.85125 30 10 C30.33 11.65 30.66 13.3 31 15 C26.05 15 21.1 15 16 15 C15.67 13.68 15.34 12.36 15 11 C12.03 10.505 12.03 10.505 9 10 C9 9.01 9 8.02 9 7 C8.67 7.66 8.34 8.32 8 9 C7.34 9 6.68 9 6 9 C6 8.34 6 7.68 6 7 C4.68 7 3.36 7 2 7 C1.34 4.69 0.68 2.38 0 0 Z " fill="#F10505" transform="translate(188,235)"/>
<path d="M0 0 C1.09183594 0.226875 2.18367188 0.45375 3.30859375 0.6875 C7.06664816 0.83042577 10.82848106 0.71114658 14.58789062 0.6484375 C19.28388218 0.60080276 23.67675469 0.89805206 28.30859375 1.6875 C28.80359375 3.6675 28.80359375 3.6675 29.30859375 5.6875 C28.27734375 5.501875 27.24609375 5.31625 26.18359375 5.125 C22.39290616 4.51586592 22.39290616 4.51586592 18.99609375 5.25 C18.10921875 5.394375 17.22234375 5.53875 16.30859375 5.6875 C15.64859375 5.0275 14.98859375 4.3675 14.30859375 3.6875 C11.63909966 3.44434344 11.63909966 3.44434344 8.68359375 3.5625 C7.68070313 3.58054688 6.6778125 3.59859375 5.64453125 3.6171875 C4.48824219 3.65199219 4.48824219 3.65199219 3.30859375 3.6875 C2.97859375 4.3475 2.64859375 5.0075 2.30859375 5.6875 C1.31859375 5.6875 0.32859375 5.6875 -0.69140625 5.6875 C-0.69140625 5.0275 -0.69140625 4.3675 -0.69140625 3.6875 C-1.68140625 3.6875 -2.67140625 3.6875 -3.69140625 3.6875 C-4.02140625 5.3375 -4.35140625 6.9875 -4.69140625 8.6875 C-5.35140625 8.6875 -6.01140625 8.6875 -6.69140625 8.6875 C-7.02140625 8.0275 -7.35140625 7.3675 -7.69140625 6.6875 C-13.77549097 6.48935739 -13.77549097 6.48935739 -19.69140625 7.6875 C-19.03140625 7.3575 -18.37140625 7.0275 -17.69140625 6.6875 C-17.69140625 6.0275 -17.69140625 5.3675 -17.69140625 4.6875 C-16.94375 4.57792969 -16.19609375 4.46835938 -15.42578125 4.35546875 C-14.4409375 4.19691406 -13.45609375 4.03835937 -12.44140625 3.875 C-10.97960937 3.64876953 -10.97960937 3.64876953 -9.48828125 3.41796875 C-6.64827715 2.88571993 -6.64827715 2.88571993 -4.70703125 1.05078125 C-2.69140625 -0.3125 -2.69140625 -0.3125 0 0 Z " fill="#AF1115" transform="translate(238.69140625,186.3125)"/>
<path d="M0 0 C0.33 1.32 0.66 2.64 1 4 C3.31 4 5.62 4 8 4 C8.33 5.65 8.66 7.3 9 9 C4.23623816 9.19055047 0.35100024 9.07190488 -4 7 C-4.33 5.68 -4.66 4.36 -5 3 C-10.94 2.67 -16.88 2.34 -23 2 C-22.67 1.01 -22.34 0.02 -22 -1 C-15.71734949 -4.14132526 -6.53895816 -1.10129822 0 0 Z " fill="#E50B0E" transform="translate(272,185)"/>
<path d="M0 0 C0.99 0 1.98 0 3 0 C3.495 1.485 3.495 1.485 4 3 C6.475 4.98 6.475 4.98 9 7 C-5.52 7 -20.04 7 -35 7 C-35.33 8.65 -35.66 10.3 -36 12 C-34.35 12.33 -32.7 12.66 -31 13 C-31.99 13.495 -31.99 13.495 -33 14 C-35.625 13.0625 -35.625 13.0625 -38 12 C-38.125 6.25 -38.125 6.25 -37 4 C-35.35 4 -33.7 4 -32 4 C-31.67 3.34 -31.34 2.68 -31 2 C-30.01 2 -29.02 2 -28 2 C-27.67 2.66 -27.34 3.32 -27 4 C-26.01 4.33 -25.02 4.66 -24 5 C-23.67 4.01 -23.34 3.02 -23 2 C-22.50886719 2.32871094 -22.01773438 2.65742188 -21.51171875 2.99609375 C-17.96972637 4.41178899 -14.55985404 4.17242239 -10.8125 4.0625 C-8.20374412 4.00087585 -5.61048428 3.9793521 -3 4 C-2.505 4.495 -2.505 4.495 -2 5 C-1.34 3.35 -0.68 1.7 0 0 Z " fill="#881415" transform="translate(198,274)"/>
<path d="M0 0 C1.21945313 -0.00257813 2.43890625 -0.00515625 3.6953125 -0.0078125 C6.875 0.125 6.875 0.125 9.875 1.125 C9.875 1.785 9.875 2.445 9.875 3.125 C-3.7582574 4.45757403 -3.7582574 4.45757403 -10.125 3.125 C-10.125 3.785 -10.125 4.445 -10.125 5.125 C-11.28515625 5.19847656 -11.28515625 5.19847656 -12.46875 5.2734375 C-18.58501367 5.71247623 -24.23192791 6.42507536 -30.125 8.125 C-30.125 6.475 -30.125 4.825 -30.125 3.125 C-26.47651646 0.80489201 -23.43874018 0.9490731 -19.1875 1.0625 C-12.67046506 1.22281209 -6.51211227 -0.01382614 0 0 Z " fill="#E6090B" transform="translate(240.125,162.875)"/>
<path d="M0 0 C2.38564077 0.57584432 4.66682784 1.22227595 7 2 C7 2.66 7 3.32 7 4 C7.94875 4.0825 8.8975 4.165 9.875 4.25 C14.05903171 4.83440929 17.67972534 6.38233863 21.5546875 8.01171875 C24.65898047 9.26632917 27.76289369 10.15553748 31 11 C31 11.99 31 12.98 31 14 C22.96312781 14.54487269 16.5786535 12.52621783 9 10 C7.67099595 9.64980417 6.33939091 9.30809234 5 9 C5 8.34 5 7.68 5 7 C4.01 6.67 3.02 6.34 2 6 C3.32 6 4.64 6 6 6 C6 5.01 6 4.02 6 3 C3.03 2.505 3.03 2.505 0 2 C0 1.34 0 0.68 0 0 Z " fill="#4D1512" transform="translate(220,219)"/>
<path d="M0 0 C0.66 0.33 1.32 0.66 2 1 C2 1.66 2 2.32 2 3 C1.01 3.495 1.01 3.495 0 4 C0.33 4.66 0.66 5.32 1 6 C0.67 6.66 0.34 7.32 0 8 C-0.66 8 -1.32 8 -2 8 C-2.33 9.65 -2.66 11.3 -3 13 C-4.32 13 -5.64 13 -7 13 C-7 13.66 -7 14.32 -7 15 C-7.66 15 -8.32 15 -9 15 C-9 15.99 -9 16.98 -9 18 C-10.65 18 -12.3 18 -14 18 C-14.35766471 14.24452054 -14.08918275 12.18550011 -12.4375 8.75 C-9.49237005 5.42728928 -7.29742516 4.82642792 -3 4 C-3 3.34 -3 2.68 -3 2 C-2.01 1.34 -1.02 0.68 0 0 Z " fill="#BE0F13" transform="translate(221,185)"/>
<path d="M0 0 C11.19976305 -0.52958599 11.19976305 -0.52958599 16 3 C18.69254991 3.70670728 18.69254991 3.70670728 21 4 C18 6 18 6 16 7 C18.31 7.33 20.62 7.66 23 8 C23.33 8.99 23.66 9.98 24 11 C25.65 10.67 27.3 10.34 29 10 C28.67 10.99 28.34 11.98 28 13 C25.7895859 12.40349099 23.58174597 11.7974391 21.375 11.1875 C19.53035156 10.68283203 19.53035156 10.68283203 17.6484375 10.16796875 C14 9 14 9 10.71875 7.34375 C7.58012962 5.79247786 6.27022752 5.94198521 3 7 C3 5.68 3 4.36 3 3 C2.01 2.67 1.02 2.34 0 2 C0 1.34 0 0.68 0 0 Z " fill="#661314" transform="translate(242,255)"/>
<path d="M0 0 C1.10052726 3.50633105 1.0345273 6.65499269 0.9375 10.3125 C0.61555057 24.22904206 0.61555057 24.22904206 5 37 C7.55519921 37.81171228 7.55519921 37.81171228 10 38 C10 38.66 10 39.32 10 40 C11.32 40.66 12.64 41.32 14 42 C10.31245243 41.50168276 8.39509338 40.89932357 6 38 C6 38.66 6 39.32 6 40 C4.02 39.67 2.04 39.34 0 39 C-0.76322748 36.1166962 -1.04087578 34.19983715 -0.4375 31.25 C-0.0192562 28.14304608 -0.19687696 26.64484896 -0.9375 23.6875 C-2.95852835 15.46590167 -1.90863019 8.16280232 0 0 Z " fill="#860F12" transform="translate(165,193)"/>
<path d="M0 0 C1.890625 0.3046875 1.890625 0.3046875 4 1 C8.03310831 8.20197913 7.28122566 16.00069239 7 24 C6.34 24 5.68 24 5 24 C4.67 25.32 4.34 26.64 4 28 C3.67 27.01 3.34 26.02 3 25 C1.02 25.66 -0.96 26.32 -3 27 C-3.66 26.34 -4.32 25.68 -5 25 C-4.236875 24.608125 -3.47375 24.21625 -2.6875 23.8125 C0.36994044 21.75050528 1.41865035 20.30773433 3 17 C3.2225959 14.03703239 3.2225959 14.03703239 2.8125 11 C2.71582031 9.989375 2.61914062 8.97875 2.51953125 7.9375 C2.01032967 5.05840533 1.18924097 2.66233369 0 0 Z " fill="#A00F10" transform="translate(284,272)"/>
<path d="M0 0 C0 0.99 0 1.98 0 3 C-3.61973402 4.31626692 -6.09567131 5 -10 5 C-10 5.66 -10 6.32 -10 7 C-10.99902344 6.98839844 -11.99804688 6.97679687 -13.02734375 6.96484375 C-14.31769531 6.95582031 -15.60804688 6.94679688 -16.9375 6.9375 C-18.86916016 6.92009766 -18.86916016 6.92009766 -20.83984375 6.90234375 C-23.86298403 6.63467451 -23.86298403 6.63467451 -25 8 C-26.66617115 8.04063832 -28.33388095 8.042721 -30 8 C-30 7.34 -30 6.68 -30 6 C-20.32154969 2.6378402 -10.33458938 0 0 0 Z " fill="#E40B0B" transform="translate(296,322)"/>
<path d="M0 0 C9.07739621 1.68631471 9.07739621 1.68631471 13.125 3.0625 C16.75956782 4.24768516 20.19955851 4.60685088 24 5 C24.33 6.65 24.66 8.3 25 10 C18.25 9.125 18.25 9.125 16 8 C13.9907774 8 11.98098092 8.00243795 9.97265625 8.0625 C8 8 8 8 5 7 C5 6.01 5 5.02 5 4 C2.03 3.505 2.03 3.505 -1 3 C-0.67 2.01 -0.34 1.02 0 0 Z " fill="#BB1617" transform="translate(190,319)"/>
<path d="M0 0 C2.1681203 1.77391661 2.97286922 2.91234672 3.8125 5.625 C5.8717686 11.47765813 9.47573502 16.74584039 14 21 C13.67 21.66 13.34 22.32 13 23 C11.68 22.01 10.36 21.02 9 20 C9 20.66 9 21.32 9 22 C9.66 22 10.32 22 11 22 C10.67 22.99 10.34 23.98 10 25 C3.73025776 18.01371579 -1.30468954 10.75006535 -1 1 C-0.67 0.67 -0.34 0.34 0 0 Z " fill="#4A1114" transform="translate(164,288)"/>
<path d="M0 0 C4.30279806 2.31689126 7.69204877 4.34984692 11 8 C11.7425 8.7425 12.485 9.485 13.25 10.25 C14.11625 11.11625 14.11625 11.11625 15 12 C14.34 12.66 13.68 13.32 13 14 C12.67 12.68 12.34 11.36 12 10 C11.34 10 10.68 10 10 10 C10.66 12.64 11.32 15.28 12 18 C9.7522025 15.94766315 8.9977758 14.99332739 8 12 C5.68925595 11.25881795 3.35188447 10.59793673 1 10 C-0.35350594 9.37530495 -1.69934483 8.7283669 -3 8 C-2.34 7.01 -1.68 6.02 -1 5 C-0.61500109 3.34450469 -0.27206865 1.6777567 0 0 Z " fill="#860F11" transform="translate(309,174)"/>
<path d="M0 0 C1.1653125 0.00515625 2.330625 0.0103125 3.53125 0.015625 C4.6965625 0.01046875 5.861875 0.0053125 7.0625 0 C10.03125 0.265625 10.03125 0.265625 12.03125 2.265625 C13.02125 1.935625 14.01125 1.605625 15.03125 1.265625 C18.15625 1.578125 18.15625 1.578125 21.03125 2.265625 C21.36125 2.925625 21.69125 3.585625 22.03125 4.265625 C24.05588255 4.91775792 24.05588255 4.91775792 26.03125 5.265625 C26.36125 4.275625 26.69125 3.285625 27.03125 2.265625 C29.01125 2.595625 30.99125 2.925625 33.03125 3.265625 C31.15625 4.328125 31.15625 4.328125 29.03125 5.265625 C28.37125 4.935625 27.71125 4.605625 27.03125 4.265625 C27.03125 4.925625 27.03125 5.585625 27.03125 6.265625 C21.26368509 6.37048982 15.74979545 5.97803639 10.03125 5.265625 C8.34400167 5.07587367 6.65650649 4.88830204 4.96875 4.703125 C3.669375 4.55875 2.37 4.414375 1.03125 4.265625 C1.03125 3.605625 1.03125 2.945625 1.03125 2.265625 C-0.94875 2.265625 -2.92875 2.265625 -4.96875 2.265625 C-2.96875 0.265625 -2.96875 0.265625 0 0 Z " fill="#900E0E" transform="translate(248.96875,158.734375)"/>
<path d="M0 0 C0.99 0.33 1.98 0.66 3 1 C2.67 1.99 2.34 2.98 2 4 C2.09268505 6.06618749 2.09268505 6.06618749 2.4375 8.1875 C2.623125 9.445625 2.80875 10.70375 3 12 C1.68 11.67 0.36 11.34 -1 11 C-1 12.32 -1 13.64 -1 15 C-0.34 15 0.32 15 1 15 C0.979375 15.9075 0.95875 16.815 0.9375 17.75 C0.98919074 20.43791858 1.07340854 22.49820306 2 25 C2.66 25.33 3.32 25.66 4 26 C3.01 26.33 2.02 26.66 1 27 C0.35165346 25.730447 -0.29357815 24.45930294 -0.9375 23.1875 C-1.29714844 22.47980469 -1.65679687 21.77210938 -2.02734375 21.04296875 C-4.20213355 16.47503677 -4.08135681 12.96276529 -4 8 C-2.68 7.34 -1.36 6.68 0 6 C0 4.02 0 2.04 0 0 Z " fill="#9E0F0C" transform="translate(171,194)"/>
<path d="M0 0 C1.51400391 0.01740234 1.51400391 0.01740234 3.05859375 0.03515625 C4.07050781 0.04417969 5.08242188 0.05320312 6.125 0.0625 C7.29869141 0.07990234 7.29869141 0.07990234 8.49609375 0.09765625 C8.49609375 0.75765625 8.49609375 1.41765625 8.49609375 2.09765625 C6.84609375 2.09765625 5.19609375 2.09765625 3.49609375 2.09765625 C3.49609375 3.41765625 3.49609375 4.73765625 3.49609375 6.09765625 C1.63984375 6.06671875 1.63984375 6.06671875 -0.25390625 6.03515625 C-3.21647802 6.02996786 -5.63863024 6.35823018 -8.50390625 7.09765625 C-10.83691558 7.13653974 -13.17100426 7.14251975 -15.50390625 7.09765625 C-15.50390625 6.43765625 -15.50390625 5.77765625 -15.50390625 5.09765625 C-14.64925781 4.82050781 -13.79460937 4.54335938 -12.9140625 4.2578125 C-11.80933594 3.89558594 -10.70460938 3.53335937 -9.56640625 3.16015625 C-8.46425781 2.80050781 -7.36210937 2.44085938 -6.2265625 2.0703125 C-0.48421346 0.01888508 -0.48421346 0.01888508 0 0 Z " fill="#D1100F" transform="translate(269.50390625,302.90234375)"/>
<path d="M0 0 C2.97 0 5.94 0 9 0 C9 0.66 9 1.32 9 2 C5.98968256 2.93423645 5.13349732 3.04449911 2 2 C2 2.66 2 3.32 2 4 C-0.64 4 -3.28 4 -6 4 C-6 4.66 -6 5.32 -6 6 C-8.64 6.66 -11.28 7.32 -14 8 C-14.33 9.32 -14.66 10.64 -15 12 C-16.63064764 13.05771739 -18.30280873 14.05273046 -20 15 C-21.36984198 16.29579647 -22.7151049 17.61992749 -24 19 C-24.33 18.01 -24.66 17.02 -25 16 C-24.01 16 -23.02 16 -22 16 C-21.896875 15.360625 -21.79375 14.72125 -21.6875 14.0625 C-21.460625 13.381875 -21.23375 12.70125 -21 12 C-20.01 11.67 -19.02 11.34 -18 11 C-17.814375 10.0409375 -17.814375 10.0409375 -17.625 9.0625 C-17 7 -17 7 -14.6875 5.75 C-12 5 -12 5 -8 5 C-7.67 4.01 -7.34 3.02 -7 2 C-4.69 2 -2.38 2 0 2 C0 1.34 0 0.68 0 0 Z " fill="#8B1314" transform="translate(199,175)"/>
<path d="M0 0 C1.98 0 3.96 0 6 0 C6.12375 0.61875 6.2475 1.2375 6.375 1.875 C6.87197356 4.19120832 6.87197356 4.19120832 9 6 C4.78080897 7.25180279 1.03911435 6.67252421 -3.25 6.0625 C-3.99507813 5.96259766 -4.74015625 5.86269531 -5.5078125 5.75976562 C-7.33945442 5.51319844 -9.16986251 5.25749609 -11 5 C-11 4.34 -11 3.68 -11 3 C-11.66 2.67 -12.32 2.34 -13 2 C-8.38926889 0.70323188 -4.66159911 1.28890861 0 2 C0 1.34 0 0.68 0 0 Z " fill="#CE1113" transform="translate(276,163)"/>
<path d="M0 0 C0.625 1.875 0.625 1.875 1 4 C0.34 4.66 -0.32 5.32 -1 6 C-1.6425235 8.06874034 -1.6425235 8.06874034 -2 10 C-2.99 10 -3.98 10 -5 10 C-5 10.66 -5 11.32 -5 12 C-5.886875 12.268125 -6.77375 12.53625 -7.6875 12.8125 C-11.0011806 13.8666068 -11.0011806 13.8666068 -13.6875 15.6875 C-14.8321875 16.3371875 -14.8321875 16.3371875 -16 17 C-16.99 16.67 -17.98 16.34 -19 16 C-18.236875 15.690625 -17.47375 15.38125 -16.6875 15.0625 C-12.83637881 12.10698839 -12.18074737 8.57899591 -11 4 C-6.25 5.875 -6.25 5.875 -4 7 C-2.68 4.69 -1.36 2.38 0 0 Z M-9 9 C-8 11 -8 11 -8 11 Z " fill="#931716" transform="translate(325,298)"/>
<path d="M0 0 C0.99 0 1.98 0 3 0 C3 1.32 3 2.64 3 4 C4.32 4 5.64 4 7 4 C7.33 5.32 7.66 6.64 8 8 C8.804375 8.12375 9.60875 8.2475 10.4375 8.375 C11.283125 8.58125 12.12875 8.7875 13 9 C13.33 9.66 13.66 10.32 14 11 C15.98 11 17.96 11 20 11 C20 11.66 20 12.32 20 13 C20.639375 13.12375 21.27875 13.2475 21.9375 13.375 C22.618125 13.58125 23.29875 13.7875 24 14 C24.33 14.66 24.66 15.32 25 16 C25.33 15.34 25.66 14.68 26 14 C28.97 14.495 28.97 14.495 32 15 C31.67 15.66 31.34 16.32 31 17 C29.68 16.67 28.36 16.34 27 16 C26.67 17.32 26.34 18.64 26 20 C25.01 19.67 24.02 19.34 23 19 C23 17.68 23 16.36 23 15 C22.33613281 14.86722656 21.67226562 14.73445313 20.98828125 14.59765625 C16.99414062 13.79882812 16.99414062 13.79882812 13 13 C12.09765625 12.86078125 11.1953125 12.7215625 10.265625 12.578125 C8 12 8 12 6.4375 9.6875 C5.963125 8.800625 5.48875 7.91375 5 7 C4.29875 6.29875 3.5975 5.5975 2.875 4.875 C1 3 1 3 0 0 Z " fill="#930E10" transform="translate(205,297)"/>
<path d="M0 0 C2.37065269 0.40873322 3.68905493 0.6749611 5.37890625 2.44140625 C7.22604746 4.21733238 8.71081347 4.8143322 11.125 5.625 C14.91666667 6.91666667 14.91666667 6.91666667 16 8 C16.66 7.67 17.32 7.34 18 7 C18 7.99 18 8.98 18 10 C19.98 10 21.96 10 24 10 C24.33 11.65 24.66 13.3 25 15 C26.32 15.33 27.64 15.66 29 16 C28.01 16.33 27.02 16.66 26 17 C25.195625 16.34 24.39125 15.68 23.5625 15 C22.716875 14.34 21.87125 13.68 21 13 C18.90178785 13.39938767 18.90178785 13.39938767 17 14 C15.5 12.6875 15.5 12.6875 14 11 C13.29875 10.649375 12.5975 10.29875 11.875 9.9375 C10 9 10 9 9 7 C8.05125 6.731875 7.1025 6.46375 6.125 6.1875 C2.42215244 4.78041793 1.65940314 3.50318441 0 0 Z " fill="#AE0E12" transform="translate(179,235)"/>
<path d="M0 0 C2.27113803 0.14100857 4.54190725 0.28796755 6.8125 0.4375 C8.07707031 0.51871094 9.34164062 0.59992188 10.64453125 0.68359375 C14 1 14 1 17 2 C13.57837746 5.14789274 10.5782822 5.66086799 6 6 C5.34 5.67 4.68 5.34 4 5 C3.67 5.99 3.34 6.98 3 8 C1.88625 7.2575 1.88625 7.2575 0.75 6.5 C-2.06318188 4.68076525 -2.06318188 4.68076525 -6 5 C-6 4.34 -6 3.68 -6 3 C-5.195625 2.87625 -4.39125 2.7525 -3.5625 2.625 C-2.716875 2.41875 -1.87125 2.2125 -1 2 C-0.67 1.34 -0.34 0.68 0 0 Z " fill="#9D0E0F" transform="translate(230,165)"/>
<path d="M0 0 C1.53333984 0.00676758 1.53333984 0.00676758 3.09765625 0.01367188 C5.60683194 0.025397 8.1158849 0.04180824 10.625 0.0625 C10.625 0.3925 10.625 0.7225 10.625 1.0625 C9.03558594 1.15337891 9.03558594 1.15337891 7.4140625 1.24609375 C6.02602779 1.33050127 4.63800768 1.41514917 3.25 1.5 C2.55132812 1.53931641 1.85265625 1.57863281 1.1328125 1.61914062 C-2.74860492 1.80530134 -2.74860492 1.80530134 -6.375 3.0625 C-8.5 2.625 -8.5 2.625 -10.375 2.0625 C-10.375 4.3725 -10.375 6.6825 -10.375 9.0625 C-11.695 9.0625 -13.015 9.0625 -14.375 9.0625 C-16.125 7.3125 -16.125 7.3125 -17.375 5.0625 C-17.375 3.7425 -17.375 2.4225 -17.375 1.0625 C-11.58854356 -0.19156138 -5.88631884 -0.04936913 0 0 Z " fill="#960F11" transform="translate(190.375,286.9375)"/>
<path d="M0 0 C7.87430684 -0.26247689 7.87430684 -0.26247689 12 2 C14.32495277 2.38749213 16.65851268 2.72982839 19 3 C19.33 4.65 19.66 6.3 20 8 C17.69 7.67 15.38 7.34 13 7 C13 6.34 13 5.68 13 5 C10.69 5 8.38 5 6 5 C6 4.34 6 3.68 6 3 C3.69 3.33 1.38 3.66 -1 4 C-0.67 2.68 -0.34 1.36 0 0 Z " fill="#CC0D0C" transform="translate(288,169)"/>
<path d="M0 0 C0.8765625 -0.01224609 1.753125 -0.02449219 2.65625 -0.03710938 C3.49929687 -0.03904297 4.34234375 -0.04097656 5.2109375 -0.04296875 C5.9848584 -0.04707764 6.7587793 -0.05118652 7.55615234 -0.05541992 C9.625 0.1875 9.625 0.1875 12.625 2.1875 C5.44449816 2.89898265 -1.24528851 3.44568438 -8.375 2.1875 C-8.375 2.8475 -8.375 3.5075 -8.375 4.1875 C-5.075 4.5175 -1.775 4.8475 1.625 5.1875 C1.625 6.1775 1.625 7.1675 1.625 8.1875 C-2.92305635 8.36585515 -6.2544254 8.18535435 -10.375 6.1875 C-10.417721 4.52138095 -10.41563832 2.85367115 -10.375 1.1875 C-8.14264991 -1.04485009 -2.99806334 0.00218518 0 0 Z " fill="#D20F12" transform="translate(172.375,279.8125)"/>
<path d="M0 0 C0.99 0.2165625 0.99 0.2165625 2 0.4375 C5.65599551 1.12299916 9.30622195 1.56175515 13 2 C13.33 3.65 13.66 5.3 14 7 C9.05 7 4.1 7 -1 7 C-1 4 -1 4 0.5 2.3125 C1.2425 1.6628125 1.2425 1.6628125 2 1 C1.34 0.67 0.68 0.34 0 0 Z " fill="#DF0C0E" transform="translate(205,243)"/>
<path d="M0 0 C0 0.66 0 1.32 0 2 C2.31 2 4.62 2 7 2 C7 3.32 7 4.64 7 6 C6.33355469 5.86722656 5.66710937 5.73445312 4.98046875 5.59765625 C-1.66777016 4.32379789 -8.25031187 3.49610861 -15 3 C-14.67 2.01 -14.34 1.02 -14 0 C-9.72000646 -2.13999677 -4.50951645 -1.09321611 0 0 Z " fill="#EE0504" transform="translate(264,184)"/>
<path d="M0 0 C0.99 0.33 1.98 0.66 3 1 C2.67 1.66 2.34 2.32 2 3 C0.02 3 -1.96 3 -4 3 C-4.33 3.99 -4.66 4.98 -5 6 C-5.66 6 -6.32 6 -7 6 C-7 6.99 -7 7.98 -7 9 C-6.34 9.33 -5.68 9.66 -5 10 C-5.33 10.66 -5.66 11.32 -6 12 C-7.32 12 -8.64 12 -10 12 C-10 11.01 -10 10.02 -10 9 C-11.32 9 -12.64 9 -14 9 C-14 9.66 -14 10.32 -14 11 C-15.98 11 -17.96 11 -20 11 C-19.1028125 10.6596875 -19.1028125 10.6596875 -18.1875 10.3125 C-15.7788621 9.1099042 -15.7788621 9.1099042 -14.5 6.375 C-14.005 5.59125 -13.51 4.8075 -13 4 C-11.68 4 -10.36 4 -9 4 C-8.360625 3.67 -7.72125 3.34 -7.0625 3 C-4.57270294 1.79282567 -2.7326975 1.84818347 0 2 C0 1.34 0 0.68 0 0 Z " fill="#B50D11" transform="translate(197,168)"/>
<path d="M0 0 C0.66 0 1.32 0 2 0 C3.55070196 2.21009135 4.89433142 4.51321393 6.26953125 6.8359375 C8.33557399 9.41965686 9.89245812 9.98160189 13 11 C13.61359375 11.34804688 14.2271875 11.69609375 14.859375 12.0546875 C17.92103091 13.40673263 20.9399523 13.69591974 24.25 14.125 C25.51328125 14.29257812 26.7765625 14.46015625 28.078125 14.6328125 C29.04234375 14.75398438 30.0065625 14.87515625 31 15 C31 15.33 31 15.66 31 16 C18.06960951 16.2139219 18.06960951 16.2139219 12 15 C11.34 14.01 10.68 13.02 10 12 C9.01 12 8.02 12 7 12 C7 11.34 7 10.68 7 10 C6.34 10 5.68 10 5 10 C4.67 8.68 4.34 7.36 4 6 C2.68 5.67 1.36 5.34 0 5 C0 3.35 0 1.7 0 0 Z " fill="#931111" transform="translate(208,290)"/>
<path d="M0 0 C2.00720923 0.28674418 4.0085944 0.61866701 6 1 C5.34 1.66 4.68 2.32 4 3 C4.99 3.66 5.98 4.32 7 5 C0.44665263 5.12495789 -6.08132831 4.97052347 -12.625 4.625 C-13.69137695 4.5787146 -13.69137695 4.5787146 -14.77929688 4.53149414 C-16.52554772 4.4294598 -18.26513586 4.22371727 -20 4 C-20.33 3.34 -20.66 2.68 -21 2 C-20.39937744 1.97494385 -19.79875488 1.9498877 -19.17993164 1.92407227 C-16.47388563 1.8084472 -13.76821717 1.68557064 -11.0625 1.5625 C-10.11697266 1.52318359 -9.17144531 1.48386719 -8.19726562 1.44335938 C-7.29814453 1.40146484 -6.39902344 1.35957031 -5.47265625 1.31640625 C-4.64000244 1.27974854 -3.80734863 1.24309082 -2.94946289 1.20532227 C-0.99661142 1.20632897 -0.99661142 1.20632897 0 0 Z " fill="#E00D0C" transform="translate(257,327)"/>
<path d="M0 0 C0.33 1.32 0.66 2.64 1 4 C-0.98 5.65 -2.96 7.3 -5 9 C-4.34 9.33 -3.68 9.66 -3 10 C-3.144375 10.70125 -3.28875 11.4025 -3.4375 12.125 C-4.01478375 15.07556141 -4.51695141 18.03270151 -5 21 C-5.66 20.67 -6.32 20.34 -7 20 C-7 18.35 -7 16.7 -7 15 C-7.66 15 -8.32 15 -9 15 C-9 17.31 -9 19.62 -9 22 C-9.66 22.33 -10.32 22.66 -11 23 C-10.7896198 12.25148447 -10.7896198 12.25148447 -7.5625 8.3125 C-5 6 -5 6 -3 6 C-2.67 4.68 -2.34 3.36 -2 2 C-1.34 2 -0.68 2 0 2 C0 1.34 0 0.68 0 0 Z " fill="#BA0D0F" transform="translate(176,179)"/>
<path d="M0 0 C-0.23091513 3.40968298 -0.47032678 6.81838633 -0.72265625 10.2265625 C-0.89063447 12.51201258 -1.04749781 14.79836747 -1.18359375 17.0859375 C-1.24675781 17.96507812 -1.30992187 18.84421875 -1.375 19.75 C-1.42398437 20.52859375 -1.47296875 21.3071875 -1.5234375 22.109375 C-2 24 -2 24 -5 26 C-5.66 23.69 -6.32 21.38 -7 19 C-6.34 19.33 -5.68 19.66 -5 20 C-5 20.66 -5 21.32 -5 22 C-4.34 22 -3.68 22 -3 22 C-3 16.72 -3 11.44 -3 6 C-4.32 6.33 -5.64 6.66 -7 7 C-7.33 5.35 -7.66 3.7 -8 2 C-7.01 2.33 -6.02 2.66 -5 3 C-4.54625 2.505 -4.0925 2.01 -3.625 1.5 C-2 0 -2 0 0 0 Z " fill="#631313" transform="translate(293,190)"/>
<path d="M0 0 C4.75 1.1875 4.75 1.1875 7 4 C7 4.66 7 5.32 7 6 C5.68 6.33 4.36 6.66 3 7 C3 9.64 3 12.28 3 15 C1.68 15 0.36 15 -1 15 C-0.67 10.05 -0.34 5.1 0 0 Z " fill="#E90A09" transform="translate(330,284)"/>
<path d="M0 0 C1.2375 0.2475 2.475 0.495 3.75 0.75 C5.6371875 1.12125 5.6371875 1.12125 7.5625 1.5 C10.75 2.75 10.75 2.75 12.1875 5.375 C12.373125 6.15875 12.55875 6.9425 12.75 7.75 C11.1 7.75 9.45 7.75 7.75 7.75 C7.42 7.09 7.09 6.43 6.75 5.75 C5.43 5.75 4.11 5.75 2.75 5.75 C2.09 5.09 1.43 4.43 0.75 3.75 C-1.56765729 3.03072705 -3.90095874 2.3590107 -6.25 1.75 C-3.25 -0.25 -3.25 -0.25 0 0 Z " fill="#8F1315" transform="translate(263.25,260.25)"/>
<path d="M0 0 C1.32 0 2.64 0 4 0 C4 0.66 4 1.32 4 2 C4.598125 1.835 5.19625 1.67 5.8125 1.5 C8 1 8 1 11 1 C10.67 1.99 10.34 2.98 10 4 C11.98 4 13.96 4 16 4 C14.66666667 4.66666667 13.33333333 5.33333333 12 6 C11.3915625 6.391875 10.783125 6.78375 10.15625 7.1875 C8 8 8 8 5.640625 7.3203125 C4.85171875 6.92585937 4.0628125 6.53140625 3.25 6.125 C2.05117188 5.54105469 2.05117188 5.54105469 0.828125 4.9453125 C0.22484375 4.63335937 -0.3784375 4.32140625 -1 4 C-0.67 2.68 -0.34 1.36 0 0 Z " fill="#491516" transform="translate(300,203)"/>
<path d="M0 0 C1.98 0 3.96 0 6 0 C6.2475 0.804375 6.495 1.60875 6.75 2.4375 C7.72238859 5.171081 7.72238859 5.171081 10.125 5.8125 C11.053125 5.9053125 11.053125 5.9053125 12 6 C11.67 6.99 11.34 7.98 11 9 C9.68 8.67 8.36 8.34 7 8 C7.33 7.67 7.66 7.34 8 7 C5.72584713 3.62911733 5.72584713 3.62911733 2 2 C2.02320313 2.59167969 2.04640625 3.18335938 2.0703125 3.79296875 C2.17411464 8.33801959 2.13708357 11.85940059 0 16 C-0.66 16 -1.32 16 -2 16 C-1.34 10.72 -0.68 5.44 0 0 Z " fill="#951113" transform="translate(328,282)"/>
<path d="M0 0 C0.66 0.33 1.32 0.66 2 1 C2.4140625 3.94140625 2.4140625 3.94140625 2.625 7.5625 C2.69976562 8.76003906 2.77453125 9.95757812 2.8515625 11.19140625 C2.90054687 12.11824219 2.94953125 13.04507813 3 14 C2.41734375 13.68289062 1.8346875 13.36578125 1.234375 13.0390625 C-1.77517159 11.63951811 -4.7225052 11.37817248 -8 11 C-8.33 9.68 -8.66 8.36 -9 7 C-8.34 7 -7.68 7 -7 7 C-7 7.66 -7 8.32 -7 9 C-5.68 9 -4.36 9 -3 9 C-2.01 6.03 -1.02 3.06 0 0 Z " fill="#A21317" transform="translate(281,178)"/>
<path d="M0 0 C0.99 0 1.98 0 3 0 C3 1.98 3 3.96 3 6 C5.31 6.33 7.62 6.66 10 7 C10.66 6.01 11.32 5.02 12 4 C12.99 4 13.98 4 15 4 C15 5.32 15 6.64 15 8 C17.31 8 19.62 8 22 8 C22 8.66 22 9.32 22 10 C15.21989344 10.26077333 8.59963582 9.64483231 2 8 C0 6 0 6 -0.125 2.875 C-0.08375 1.92625 -0.0425 0.9775 0 0 Z " fill="#881213" transform="translate(250,175)"/>
<path d="M0 0 C19.34042553 -0.19148936 19.34042553 -0.19148936 29 1 C27 3 27 3 23.98828125 3.23046875 C12.86264572 3.1004135 12.86264572 3.1004135 8.9375 2.4375 C5.95817106 1.99377016 3.88662091 2.21273975 1 3 C0.67 2.01 0.34 1.02 0 0 Z " fill="#951214" transform="translate(235,331)"/>
<path d="M0 0 C0.33 0 0.66 0 1 0 C1 1.65 1 3.3 1 5 C1.99 5 2.98 5 4 5 C4 7.31 4 9.62 4 12 C4.66 12 5.32 12 6 12 C6.66 13.65 7.32 15.3 8 17 C4.26360784 15.75453595 3.81243487 14.36595047 2 11 C2 12.98 2 14.96 2 17 C0.515625 15.87890625 0.515625 15.87890625 -1 14 C-1.328125 11.15234375 -1.328125 11.15234375 -1.25 7.9375 C-1.23453125 6.87402344 -1.2190625 5.81054688 -1.203125 4.71484375 C-1 2 -1 2 0 0 Z " fill="#831112" transform="translate(206,198)"/>
<path d="M0 0 C0.680625 0.13535156 1.36125 0.27070313 2.0625 0.41015625 C7.10050517 1.47550517 7.10050517 1.47550517 9.375 3.75 C7.60425083 3.77705729 5.83338289 3.79642195 4.0625 3.8125 C3.07636719 3.82410156 2.09023438 3.83570313 1.07421875 3.84765625 C-1.625 3.75 -1.625 3.75 -4.625 2.75 C-4.625 2.09 -4.625 1.43 -4.625 0.75 C-6.23375 1.4925 -6.23375 1.4925 -7.875 2.25 C-10.87916808 3.63653911 -12.08434895 3.75 -15.625 3.75 C-15.625 3.09 -15.625 2.43 -15.625 1.75 C-16.615 1.42 -17.605 1.09 -18.625 0.75 C-17.01625 0.811875 -17.01625 0.811875 -15.375 0.875 C-11.81283818 1.06719331 -11.81283818 1.06719331 -9.8671875 -0.3359375 C-6.4636935 -1.7234246 -3.46123508 -0.77579407 0 0 Z " fill="#760D0F" transform="translate(265.625,167.25)"/>
<path d="M0 0 C1.66611905 -0.042721 3.33382885 -0.04063832 5 0 C5.33 0.33 5.66 0.66 6 1 C8.35313555 1.07271741 10.70833668 1.08370868 13.0625 1.0625 C14.35285156 1.05347656 15.64320313 1.04445312 16.97265625 1.03515625 C17.97167969 1.02355469 18.97070312 1.01195312 20 1 C20 1.33 20 1.66 20 2 C17.64741656 2.50866669 15.29338596 3.0070625 12.9375 3.5 C11.95233398 3.71462891 11.95233398 3.71462891 10.94726562 3.93359375 C4.84239281 5.19667088 -0.88408284 5.48264658 -7 4 C-4 2 -4 2 -1.8125 2.375 C-1.214375 2.58125 -0.61625 2.7875 0 3 C0 2.01 0 1.02 0 0 Z " fill="#870E0D" transform="translate(222,160)"/>
<path d="M0 0 C4.455 0.99 4.455 0.99 9 2 C6 4 6 4 4 5 C6.31 5.33 8.62 5.66 11 6 C11.33 6.99 11.66 7.98 12 9 C13.65 8.67 15.3 8.34 17 8 C16.67 8.99 16.34 9.98 16 11 C13.76989746 10.3783476 11.54095304 9.7525397 9.3125 9.125 C8.07113281 8.77695312 6.82976562 8.42890625 5.55078125 8.0703125 C2.61183146 7.18442444 -0.17771887 6.19798549 -3 5 C-2.01 4.34 -1.02 3.68 0 3 C0 2.01 0 1.02 0 0 Z " fill="#691010" transform="translate(254,257)"/>
<path d="M0 0 C2.38564077 0.57584432 4.66682784 1.22227595 7 2 C7 2.66 7 3.32 7 4 C8.32 4 9.64 4 11 4 C11 4.66 11 5.32 11 6 C12.32 6.33 13.64 6.66 15 7 C15 7.99 15 8.98 15 10 C12.03 10 9.06 10 6 10 C5.67 9.01 5.34 8.02 5 7 C4.01 6.67 3.02 6.34 2 6 C3.32 6 4.64 6 6 6 C6 5.01 6 4.02 6 3 C3.03 2.505 3.03 2.505 0 2 C0 1.34 0 0.68 0 0 Z " fill="#691513" transform="translate(220,219)"/>
<path d="M0 0 C0.103125 0.639375 0.20625 1.27875 0.3125 1.9375 C0.539375 2.618125 0.76625 3.29875 1 4 C1.99 4.33 2.98 4.66 4 5 C4.33 5.99 4.66 6.98 5 8 C5.66 8.33 6.32 8.66 7 9 C7.33 8.01 7.66 7.02 8 6 C9.98 6.66 11.96 7.32 14 8 C13.01 8.66 12.02 9.32 11 10 C11 10.99 11 11.98 11 13 C11.99 13.33 12.98 13.66 14 14 C13.01 14.495 13.01 14.495 12 15 C8.26415094 13.52830189 8.26415094 13.52830189 7 11 C6.38125 10.87625 5.7625 10.7525 5.125 10.625 C3 10 3 10 1.25 8.3125 C-0.32663401 5.39572708 -0.22275681 3.26709987 0 0 Z " fill="#E00B0F" transform="translate(167,220)"/>
<path d="M0 0 C-7.25464025 4.83642683 -13.67500827 5.66499835 -22 4 C-23.6662553 3.9629721 -25.33401319 3.95240038 -27 4 C-25.5625 2.4375 -25.5625 2.4375 -23 1 C-20.67948611 1.06493975 -18.46335965 1.38971741 -16.16796875 1.73046875 C-12.22296648 2.22092849 -9.06812006 1.02078239 -5.3125 -0.125 C-2 -1 -2 -1 0 0 Z " fill="#A31415" transform="translate(268,303)"/>
<path d="M0 0 C1.98 0 3.96 0 6 0 C6 3.3 6 6.6 6 10 C5.67 9.34 5.34 8.68 5 8 C2.36 8 -0.28 8 -3 8 C-3.33 7.01 -3.66 6.02 -4 5 C-6.00016466 3.79117904 -6.00016466 3.79117904 -8 3 C-6.02 3 -4.04 3 -2 3 C-2 3.66 -2 4.32 -2 5 C-0.35 5 1.3 5 3 5 C3.33 3.68 3.66 2.36 4 1 C2.68 0.67 1.36 0.34 0 0 Z " fill="#951418" transform="translate(303,171)"/>
<path d="M0 0 C5.46864457 1.01591421 10.76390013 2.07091057 16 4 C16 4.33 16 4.66 16 5 C13.69 5 11.38 5 9 5 C9.33 5.99 9.66 6.98 10 8 C8.35 7.67 6.7 7.34 5 7 C5 6.01 5 5.02 5 4 C2.03 3.505 2.03 3.505 -1 3 C-0.67 2.01 -0.34 1.02 0 0 Z " fill="#861717" transform="translate(190,319)"/>
<path d="M0 0 C1.2065625 0.0309375 1.2065625 0.0309375 2.4375 0.0625 C1.4475 0.3925 0.4575 0.7225 -0.5625 1.0625 C-0.5625 2.7125 -0.5625 4.3625 -0.5625 6.0625 C-1.5525 6.3925 -2.5425 6.7225 -3.5625 7.0625 C-3.8925 6.4025 -4.2225 5.7425 -4.5625 5.0625 C-10.64658472 4.86435739 -10.64658472 4.86435739 -16.5625 6.0625 C-15.9025 5.7325 -15.2425 5.4025 -14.5625 5.0625 C-14.5625 4.4025 -14.5625 3.7425 -14.5625 3.0625 C-13.78003906 2.92972656 -12.99757812 2.79695312 -12.19140625 2.66015625 C-11.17949219 2.48355469 -10.16757813 2.30695313 -9.125 2.125 C-8.11566406 1.95097656 -7.10632813 1.77695313 -6.06640625 1.59765625 C-3.18494227 0.98180513 -2.9634087 0.07227826 0 0 Z " fill="#8D1216" transform="translate(235.5625,187.9375)"/>
<path d="M0 0 C0.99 0 1.98 0 3 0 C3 2 3 2 1.8125 3.5 C-0.34166025 5.28275331 -2.39494264 5.98734042 -5 7 C-13.13881893 10.51913124 -13.13881893 10.51913124 -19 17 C-19.66 16.67 -20.32 16.34 -21 16 C-20.34 14.68 -19.68 13.36 -19 12 C-18.34 12 -17.68 12 -17 12 C-16.67 11.01 -16.34 10.02 -16 9 C-14.2578125 8.12109375 -14.2578125 8.12109375 -12.125 7.4375 C-9.29073539 6.51191912 -7.54841174 5.69894116 -5 4 C-3.68 4 -2.36 4 -1 4 C-0.67 2.68 -0.34 1.36 0 0 Z " fill="#8F1213" transform="translate(323,310)"/>
<path d="M0 0 C9.17286652 0.35010941 9.17286652 0.35010941 12.625 3.0625 C13.07875 3.701875 13.5325 4.34125 14 5 C12.35 4.67 10.7 4.34 9 4 C8.67 4.66 8.34 5.32 8 6 C10.97 6.495 10.97 6.495 14 7 C14 7.66 14 8.32 14 9 C10.68437443 8.44739574 7.84937793 7.83174295 5 6 C4.67 5.01 4.34 4.02 4 3 C1.99983534 1.79117904 1.99983534 1.79117904 0 1 C0 0.67 0 0.34 0 0 Z " fill="#8B1314" transform="translate(181,316)"/>
<path d="M0 0 C0.33 0.99 0.66 1.98 1 3 C0.071875 3.3403125 0.071875 3.3403125 -0.875 3.6875 C-3.61410209 5.37929835 -4.05024472 6.99244161 -5 10 C-4.34 10 -3.68 10 -3 10 C-3 10.99 -3 11.98 -3 13 C-4.65 13 -6.3 13 -8 13 C-8.37076301 9.10698835 -8.10260771 7.19422173 -6.25 3.6875 C-4 1 -4 1 -1.75 0.125 C-1.1725 0.08375 -0.595 0.0425 0 0 Z " fill="#A10E11" transform="translate(215,190)"/>
<path d="M0 0 C0.33 0 0.66 0 1 0 C1 5.28 1 10.56 1 16 C-1 16 -1 16 -2.5625 14.5 C-4.57415567 11.0014684 -4.66579094 8.01050867 -5 4 C-6.32 3.67 -7.64 3.34 -9 3 C-8.67 2.34 -8.34 1.68 -8 1 C-6.125 1.5 -6.125 1.5 -4 3 C-3.01505446 5.65177645 -2.54087618 8.20547307 -2 11 C-1.34 11 -0.68 11 0 11 C0 7.37 0 3.74 0 0 Z " fill="#A61417" transform="translate(289,196)"/>
<path d="M0 0 C3.875 4.75 3.875 4.75 5 7 C5.99 7.33 6.98 7.66 8 8 C8 9.65 8 11.3 8 13 C5.03824877 12.38722388 3.61941217 11.74627478 1 10 C0.48828125 7.6171875 0.48828125 7.6171875 0.3125 4.875 C0.24675781 3.96492187 0.18101562 3.05484375 0.11328125 2.1171875 C0.07589844 1.41851562 0.03851563 0.71984375 0 0 Z " fill="#A41317" transform="translate(207,207)"/>
<path d="M0 0 C-0.99 0.33 -1.98 0.66 -3 1 C-3 1.66 -3 2.32 -3 3 C-1.35 3 0.3 3 2 3 C1.67 3.99 1.34 4.98 1 6 C0.34 6 -0.32 6 -1 6 C-1 6.66 -1 7.32 -1 8 C-1.99 8 -2.98 8 -4 8 C-4.33 7.01 -4.66 6.02 -5 5 C-7.00016466 3.79117904 -7.00016466 3.79117904 -9 3 C-5.92807025 0.26939578 -4.09590633 -0.34132553 0 0 Z " fill="#BD0F10" transform="translate(269,327)"/>
<path d="M0 0 C-7.92 0.495 -7.92 0.495 -16 1 C-15.34 -0.32 -14.68 -1.64 -14 -3 C-8.18471542 -4.80919965 -4.87105755 -3.2473717 0 0 Z " fill="#F60405" transform="translate(200,285)"/>
<path d="M0 0 C2.31 0 4.62 0 7 0 C7 3.63 7 7.26 7 11 C6.34 11 5.68 11 5 11 C3.74335022 8.09399739 3 6.20395416 3 3 C2.34 3 1.68 3 1 3 C0.67 2.01 0.34 1.02 0 0 Z " fill="#E50B0B" transform="translate(282,196)"/>
<path d="M0 0 C-6.31343284 6.48880597 -6.31343284 6.48880597 -9 8 C-11.75 7.6875 -11.75 7.6875 -14 7 C-9.43166501 2.17786862 -6.76869549 -0.37603864 0 0 Z " fill="#BE0C0D" transform="translate(234,183)"/>
<path d="M0 0 C-0.33 0.66 -0.66 1.32 -1 2 C-3.0625 2.625 -3.0625 2.625 -5 3 C-5.061875 3.598125 -5.12375 4.19625 -5.1875 4.8125 C-6.33135807 7.89211788 -8.17695452 8.42434671 -11 10 C-12.36984198 11.29579647 -13.7151049 12.61992749 -15 14 C-15.33 13.01 -15.66 12.02 -16 11 C-15.01 11 -14.02 11 -13 11 C-12.896875 10.360625 -12.79375 9.72125 -12.6875 9.0625 C-12.460625 8.381875 -12.23375 7.70125 -12 7 C-11.01 6.67 -10.02 6.34 -9 6 C-8.814375 5.0409375 -8.814375 5.0409375 -8.625 4.0625 C-8.41875 3.381875 -8.2125 2.70125 -8 2 C-5.10888212 0.47835901 -3.28176588 0 0 0 Z " fill="#A01418" transform="translate(190,180)"/>
<path d="M0 0 C1.9375 0.6875 1.9375 0.6875 4 2 C4.75 4.625 4.75 4.625 5 7 C2 9 2 9 -1 9 C-1.125 2.25 -1.125 2.25 0 0 Z " fill="#811A1A" transform="translate(327,200)"/>
<path d="M0 0 C1.63001953 0.15275391 1.63001953 0.15275391 3.29296875 0.30859375 C4.54013672 0.43427734 4.54013672 0.43427734 5.8125 0.5625 C5.8125 1.2225 5.8125 1.8825 5.8125 2.5625 C2.79759443 3.56746852 0.77068308 3.66585303 -2.375 3.625 C-3.27605469 3.61597656 -4.17710937 3.60695312 -5.10546875 3.59765625 C-5.79253906 3.58605469 -6.47960937 3.57445312 -7.1875 3.5625 C-7.1875 2.9025 -7.1875 2.2425 -7.1875 1.5625 C-7.8475 1.2325 -8.5075 0.9025 -9.1875 0.5625 C-5.76060364 -0.57979879 -3.57647782 -0.34611076 0 0 Z " fill="#E30A0A" transform="translate(272.1875,164.4375)"/>
<path d="M0 0 C1.890625 0.2734375 1.890625 0.2734375 4 1 C6.91570753 5.46059733 7.52056621 10.79433792 7 16 C6.34 16.66 5.68 17.32 5 18 C4.96132813 17.14728516 4.96132813 17.14728516 4.921875 16.27734375 C4.49285581 10.43683251 3.11860383 6.92940606 0 2 C0 1.34 0 0.68 0 0 Z " fill="#D1100D" transform="translate(284,272)"/>
<path d="M0 0 C1.9375 0.8125 1.9375 0.8125 4 2 C4.33 2.99 4.66 3.98 5 5 C5.66 5.33 6.32 5.66 7 6 C7 6.66 7 7.32 7 8 C3.85375007 8.26218749 2.38162983 8.24754367 -0.3125 6.5 C-0.869375 6.005 -1.42625 5.51 -2 5 C-1.125 1.125 -1.125 1.125 0 0 Z " fill="#491011" transform="translate(238,252)"/>
<path d="M0 0 C0.25 5.625 0.25 5.625 -2 9 C-2.66613335 11.27538323 -2.66613335 11.27538323 -3.125 13.6875 C-3.29257813 14.49574219 -3.46015625 15.30398437 -3.6328125 16.13671875 C-3.75398437 16.75160156 -3.87515625 17.36648437 -4 18 C-4.33 18 -4.66 18 -5 18 C-5.02689216 16.52093108 -5.04634621 15.04172517 -5.0625 13.5625 C-5.07410156 12.73878906 -5.08570313 11.91507813 -5.09765625 11.06640625 C-5 9 -5 9 -4 8 C-3.855625 6.845 -3.71125 5.69 -3.5625 4.5 C-3.376875 3.345 -3.19125 2.19 -3 1 C-1 0 -1 0 0 0 Z " fill="#E50B0A" transform="translate(170,193)"/>
<path d="M0 0 C4.62 0 9.24 0 14 0 C14 0.99 14 1.98 14 3 C4.58997722 3.18451025 4.58997722 3.18451025 0 2 C0 1.34 0 0.68 0 0 Z " fill="#ED0806" transform="translate(238,308)"/>
<path d="M0 0 C4.455 0.99 4.455 0.99 9 2 C9 2.99 9 3.98 9 5 C6.03 5 3.06 5 0 5 C0 3.35 0 1.7 0 0 Z " fill="#3F1B1B" transform="translate(242,228)"/>
<path d="M0 0 C0.33 0.66 0.66 1.32 1 2 C0.34 2 -0.32 2 -1 2 C-1 2.66 -1 3.32 -1 4 C-5.95 4.33 -10.9 4.66 -16 5 C-11.99222838 1.99417129 -10.49949826 1.48362475 -5.75 0.8125 C-4.13351562 0.57466797 -4.13351562 0.57466797 -2.484375 0.33203125 C-1.66453125 0.22246094 -0.8446875 0.11289062 0 0 Z " fill="#8B1214" transform="translate(295,319)"/>
<path d="M0 0 C2.36715956 0.40813096 3.68772885 0.67353471 5.375 2.4375 C7.23364771 4.22466126 8.76320029 4.85290502 11.1875 5.6875 C11.90292969 5.93886719 12.61835938 6.19023437 13.35546875 6.44921875 C13.89816406 6.63097656 14.44085938 6.81273437 15 7 C14.67 8.32 14.34 9.64 14 11 C10.125 9.25 10.125 9.25 9 7 C8.05125 6.731875 7.1025 6.46375 6.125 6.1875 C2.42215244 4.78041793 1.65940314 3.50318441 0 0 Z " fill="#8B0F14" transform="translate(179,235)"/>
<path d="M0 0 C0.33 0.66 0.66 1.32 1 2 C3.12576782 2.46651207 3.12576782 2.46651207 5.5625 2.625 C6.38878906 2.69976562 7.21507812 2.77453125 8.06640625 2.8515625 C8.70449219 2.90054688 9.34257812 2.94953125 10 3 C10.33 3.99 10.66 4.98 11 6 C13.00016466 7.20882096 13.00016466 7.20882096 15 8 C11.31245243 7.50168276 9.39509338 6.89932357 7 4 C7 4.66 7 5.32 7 6 C4.03 5.505 4.03 5.505 1 5 C0.67 3.35 0.34 1.7 0 0 Z " fill="#731317" transform="translate(164,227)"/>
<path d="M0 0 C0.99 0.33 1.98 0.66 3 1 C2.67 1.99 2.34 2.98 2 4 C2.09268505 6.06618749 2.09268505 6.06618749 2.4375 8.1875 C2.623125 9.445625 2.80875 10.70375 3 12 C0.525 11.01 0.525 11.01 -2 10 C-2 8.68 -2 7.36 -2 6 C-1.34 6 -0.68 6 0 6 C0 4.02 0 2.04 0 0 Z " fill="#A00F13" transform="translate(171,194)"/>
<path d="M0 0 C2.64 0 5.28 0 8 0 C8 0.99 8 1.98 8 3 C8.66 3.66 9.32 4.32 10 5 C8.68 5 7.36 5 6 5 C6 4.34 6 3.68 6 3 C3.69 3.33 1.38 3.66 -1 4 C-0.67 2.68 -0.34 1.36 0 0 Z " fill="#D41213" transform="translate(288,169)"/>
<path d="M0 0 C0.33 1.32 0.66 2.64 1 4 C-1.95664519 5.4783226 -4.74229737 5.06032783 -8 5 C-8 3.68 -8 2.36 -8 1 C-6.865625 1.020625 -5.73125 1.04125 -4.5625 1.0625 C-1.18424326 1.41577477 -1.18424326 1.41577477 0 0 Z " fill="#ED0609" transform="translate(207,168)"/>
<path d="M0 0 C0 0.99 0 1.98 0 3 C-3.67410785 4.17571451 -7.16929183 4.07366746 -11 4 C-11 3.34 -11 2.68 -11 2 C-7.17010894 0.19769832 -4.21878192 -0.19622241 0 0 Z " fill="#E4090B" transform="translate(265,306)"/>
<path d="M0 0 C0.66 0 1.32 0 2 0 C2.28571429 8.57142857 2.28571429 8.57142857 0 12 C-0.99 12 -1.98 12 -3 12 C-3 11.01 -3 10.02 -3 9 C-3.99 8.67 -4.98 8.34 -6 8 C-5.34 7.67 -4.68 7.34 -4 7 C-3.34 7.33 -2.68 7.66 -2 8 C-2 7.34 -2 6.68 -2 6 C-1.34 6 -0.68 6 0 6 C0 4.02 0 2.04 0 0 Z " fill="#611B15" transform="translate(325,198)"/>
<path d="M0 0 C-0.33 2.31 -0.66 4.62 -1 7 C-2.98 7 -4.96 7 -7 7 C-7.33 5.35 -7.66 3.7 -8 2 C-7.01 2.33 -6.02 2.66 -5 3 C-4.54625 2.505 -4.0925 2.01 -3.625 1.5 C-2 0 -2 0 0 0 Z " fill="#7F1419" transform="translate(293,190)"/>
<path d="M0 0 C0 2.64 0 5.28 0 8 C-2.64 8 -5.28 8 -8 8 C-8 7.67 -8 7.34 -8 7 C-5.69 7 -3.38 7 -1 7 C-1.33 5.68 -1.66 4.36 -2 3 C-4.64 2.67 -7.28 2.34 -10 2 C-6.3558226 -0.4294516 -4.28758728 -0.16179575 0 0 Z " fill="#B51C20" transform="translate(220,243)"/>
<path d="M0 0 C0.99 0.66 1.98 1.32 3 2 C1.68 2.33 0.36 2.66 -1 3 C-1 2.34 -1 1.68 -1 1 C-1.66 1 -2.32 1 -3 1 C-3.33 1.99 -3.66 2.98 -4 4 C-5.98 4 -7.96 4 -10 4 C-9.67 3.01 -9.34 2.02 -9 1 C-5.98131566 -0.50934217 -3.32702771 -0.17510672 0 0 Z " fill="#E60A08" transform="translate(259,183)"/>
<path d="M0 0 C-1 3 -1 3 -4 5 C-6.6875 5.125 -6.6875 5.125 -9 5 C-8.1875 2.5625 -8.1875 2.5625 -7 0 C-3.86650268 -1.04449911 -3.01031744 -0.93423645 0 0 Z " fill="#E20C08" transform="translate(236,185)"/>
<path d="M0 0 C-0.93972656 0.18175781 -0.93972656 0.18175781 -1.8984375 0.3671875 C-2.71570313 0.53476563 -3.53296875 0.70234375 -4.375 0.875 C-5.18710938 1.03742188 -5.99921875 1.19984375 -6.8359375 1.3671875 C-9.18673923 1.86658932 -9.18673923 1.86658932 -11 4 C-13.625 4.125 -13.625 4.125 -16 4 C-15.67 3.01 -15.34 2.02 -15 1 C-13.25215171 0.63536268 -11.50159498 0.2836922 -9.75 -0.0625 C-8.28820312 -0.35833984 -8.28820312 -0.35833984 -6.796875 -0.66015625 C-4.131881 -0.98397535 -2.51128277 -0.85503199 0 0 Z " fill="#8B0F11" transform="translate(224,171)"/>
<path d="M0 0 C0.99 0 1.98 0 3 0 C3.33 1.32 3.66 2.64 4 4 C3.34 4 2.68 4 2 4 C2 5.65 2 7.3 2 9 C-0.31 9.33 -2.62 9.66 -5 10 C-4.67 9.34 -4.34 8.68 -4 8 C-2.68 8 -1.36 8 0 8 C0 5.36 0 2.72 0 0 Z " fill="#921A1B" transform="translate(302,309)"/>
<path d="M0 0 C0.33 0.99 0.66 1.98 1 3 C0.67 3.66 0.34 4.32 0 5 C0.66 5.33 1.32 5.66 2 6 C2 6.99 2 7.98 2 9 C1.01 9 0.02 9 -1 9 C-1 9.99 -1 10.98 -1 12 C-1.66 11.67 -2.32 11.34 -3 11 C-2.67 9.68 -2.34 8.36 -2 7 C-2.99 6.67 -3.98 6.34 -5 6 C-4.360625 5.7525 -3.72125 5.505 -3.0625 5.25 C-0.81258459 4.18437567 -0.81258459 4.18437567 -0.25 1.875 C-0.1675 1.25625 -0.085 0.6375 0 0 Z " fill="#D71014" transform="translate(175,182)"/>
<path d="M0 0 C0.66 0 1.32 0 2 0 C2.66 0.99 3.32 1.98 4 3 C4.66 3 5.32 3 6 3 C5.67 4.65 5.34 6.3 5 8 C4.01 8 3.02 8 2 8 C0.23537317 4.91190305 0 3.76687864 0 0 Z " fill="#AA161C" transform="translate(319,184)"/>
<path d="M0 0 C0.66 0 1.32 0 2 0 C2 1.65 2 3.3 2 5 C3.65 4.67 5.3 4.34 7 4 C6.67 5.65 6.34 7.3 6 9 C2.83884224 7.63016497 2.0072908 7.0109362 0 4 C0 2.68 0 1.36 0 0 Z " fill="#6C1414" transform="translate(173,288)"/>
<path d="M0 0 C0.33 1.32 0.66 2.64 1 4 C-0.65 4 -2.3 4 -4 4 C-4.33 3.34 -4.66 2.68 -5 2 C-6.32 2 -7.64 2 -9 2 C-9 1.34 -9 0.68 -9 0 C-5.93109813 -1.53445094 -3.29905734 -0.54984289 0 0 Z " fill="#B5181C" transform="translate(275,264)"/>
<path d="M0 0 C6.75 1.625 6.75 1.625 9 5 C8.67 5.99 8.34 6.98 8 8 C7.67 7.01 7.34 6.02 7 5 C4.03 4.505 4.03 4.505 1 4 C0.67 2.68 0.34 1.36 0 0 Z " fill="#A91A1A" transform="translate(219,220)"/>
<path d="M0 0 C0.625 1.875 0.625 1.875 1 4 C0.34 4.66 -0.32 5.32 -1 6 C-1.6425235 8.06874034 -1.6425235 8.06874034 -2 10 C-2.99 10 -3.98 10 -5 10 C-5 10.66 -5 11.32 -5 12 C-5.99 11.67 -6.98 11.34 -8 11 C-6 8 -6 8 -4 6.0625 C-2.09849981 4.10157793 -1.06645044 2.48838437 0 0 Z " fill="#B61013" transform="translate(325,298)"/>
<path d="M0 0 C0.33 0.66 0.66 1.32 1 2 C3.32156597 2.40729228 5.6568787 2.74438677 8 3 C4.25 4.125 4.25 4.125 2 3 C2 4.32 2 5.64 2 7 C-0.86724686 6.42655063 -1.8614515 6.1385485 -4 4 C-3.01 3.34 -2.02 2.68 -1 2 C-0.67 1.34 -0.34 0.68 0 0 Z " fill="#7D0D0C" transform="translate(275,264)"/>
<path d="M0 0 C-1.98 0.66 -3.96 1.32 -6 2 C-6 2.66 -6 3.32 -6 4 C-7.98 4 -9.96 4 -12 4 C-11.34 3.67 -10.68 3.34 -10 3 C-10.66 2.67 -11.32 2.34 -12 2 C-12 1.34 -12 0.68 -12 0 C-10.56359829 -0.19573608 -9.12580496 -0.38127816 -7.6875 -0.5625 C-6.88699219 -0.66691406 -6.08648437 -0.77132812 -5.26171875 -0.87890625 C-3 -1 -3 -1 0 0 Z " fill="#D50B0F" transform="translate(236,164)"/>
<path d="M0 0 C0 0.66 0 1.32 0 2 C-1.7015625 2.2165625 -1.7015625 2.2165625 -3.4375 2.4375 C-6.80777201 2.61171478 -6.80777201 2.61171478 -8 4 C-9.66617115 4.04063832 -11.33388095 4.042721 -13 4 C-13 3.34 -13 2.68 -13 2 C-8.49646738 0.24252386 -4.82360189 -0.19294408 0 0 Z " fill="#EA0904" transform="translate(279,326)"/>
<path d="M0 0 C0.99 0.495 0.99 0.495 2 1 C2.40197001 3.32249342 2.72686657 5.65885633 3 8 C3.31966139 9.66934283 3.64731066 11.3373217 4 13 C3.01 13 2.02 13 1 13 C-0.00496852 9.98509443 -0.10335303 7.95818308 -0.0625 4.8125 C-0.05347656 3.91144531 -0.04445313 3.01039063 -0.03515625 2.08203125 C-0.02355469 1.39496094 -0.01195312 0.70789063 0 0 Z " fill="#A3191F" transform="translate(333,291)"/>
<path d="M0 0 C2.97 0.495 2.97 0.495 6 1 C6 2.32 6 3.64 6 5 C4.02 5 2.04 5 0 5 C0 3.35 0 1.7 0 0 Z " fill="#B81314" transform="translate(277,267)"/>
<path d="M0 0 C0.6875 1.8125 0.6875 1.8125 1 4 C-0.1875 5.8125 -0.1875 5.8125 -2 7 C-4.1875 6.6875 -4.1875 6.6875 -6 6 C-4.95125002 3.37812506 -4.35068687 2.20628639 -1.875 0.75 C-1.25625 0.5025 -0.6375 0.255 0 0 Z " fill="#EE0609" transform="translate(180,181)"/>
<path d="M0 0 C1.2065625 0.0309375 1.2065625 0.0309375 2.4375 0.0625 C1.4375 2.0625 1.4375 2.0625 -1.8125 3.1875 C-4.93950635 3.91713482 -7.38872905 4.25484975 -10.5625 4.0625 C-10.5625 3.4025 -10.5625 2.7425 -10.5625 2.0625 C-9.428125 1.918125 -8.29375 1.77375 -7.125 1.625 C-3.80350664 1.10055368 -3.09809271 0.07556324 0 0 Z " fill="#7A0E0D" transform="translate(211.5625,163.9375)"/>
<path d="M0 0 C0 0.33 0 0.66 0 1 C-5.4185766 1.22577402 -9.77487721 0.46670113 -15 -1 C-15 -1.33 -15 -1.66 -15 -2 C-9.28728072 -3.6112798 -5.31329355 -2.08989546 0 0 Z " fill="#850D0C" transform="translate(215,329)"/>
<path d="M0 0 C1.32 0.99 2.64 1.98 4 3 C3.67 4.32 3.34 5.64 3 7 C2.67 6.01 2.34 5.02 2 4 C0.02 4.66 -1.96 5.32 -4 6 C-4.66 5.34 -5.32 4.68 -6 4 C-5.195625 3.525625 -4.39125 3.05125 -3.5625 2.5625 C-1.15246512 1.23099846 -1.15246512 1.23099846 0 0 Z " fill="#8A0B0B" transform="translate(285,293)"/>
<path d="M0 0 C0 0.99 0 1.98 0 3 C-2.64 3.33 -5.28 3.66 -8 4 C-8 3.01 -8 2.02 -8 1 C-5.29120665 -0.35439668 -2.99066732 -0.06501451 0 0 Z " fill="#EE0605" transform="translate(198,173)"/>
<path d="M0 0 C2.64 0.99 5.28 1.98 8 3 C8 3.99 8 4.98 8 6 C7.01 6 6.02 6 5 6 C5 5.34 5 4.68 5 4 C2.03 3.505 2.03 3.505 -1 3 C-0.67 2.01 -0.34 1.02 0 0 Z " fill="#BB171A" transform="translate(190,319)"/>
<path d="M0 0 C2.475 0.99 2.475 0.99 5 2 C5 5 5 5 3 8 C2.34 8 1.68 8 1 8 C0.67 5.36 0.34 2.72 0 0 Z M2 5 C3 7 3 7 3 7 Z " fill="#8A1411" transform="translate(314,302)"/>
<path d="M0 0 C4.19469571 0.59924224 8.00999834 1.57499941 12 3 C8.64574534 4.11808489 6.41010364 3.78694699 3 3 C2.01 3 1.02 3 0 3 C0 2.01 0 1.02 0 0 Z " fill="#821217" transform="translate(268,192)"/>
<path d="M0 0 C3.96 0 7.92 0 12 0 C11.67 1.32 11.34 2.64 11 4 C10.01 4 9.02 4 8 4 C7.34 3.34 6.68 2.68 6 2 C4.01178687 1.60235737 2.01055661 1.26224651 0 1 C0 0.67 0 0.34 0 0 Z " fill="#6F0F12" transform="translate(247,188)"/>
<path d="M0 0 C0.99 0.33 1.98 0.66 3 1 C2.67 1.66 2.34 2.32 2 3 C0.02 3 -1.96 3 -4 3 C-4.33 3.99 -4.66 4.98 -5 6 C-6.32 6 -7.64 6 -9 6 C-9 5.34 -9 4.68 -9 4 C-5.86501708 2.14223235 -3.62528568 1.79859524 0 2 C0 1.34 0 0.68 0 0 Z " fill="#A20F12" transform="translate(197,168)"/>
<path d="M0 0 C2.64 0 5.28 0 8 0 C8 0.66 8 1.32 8 2 C6.35 2 4.7 2 3 2 C3 2.66 3 3.32 3 4 C2.01 4 1.02 4 0 4 C0 2.68 0 1.36 0 0 Z " fill="#E6090E" transform="translate(270,303)"/>
<path d="M0 0 C0.99 0.33 1.98 0.66 3 1 C2.67 2.32 2.34 3.64 2 5 C0.68 5.33 -0.64 5.66 -2 6 C-2 5.34 -2 4.68 -2 4 C-2.66 3.67 -3.32 3.34 -4 3 C-3.34 3 -2.68 3 -2 3 C-2 2.34 -2 1.68 -2 1 C-1.34 0.67 -0.68 0.34 0 0 Z " fill="#EA090C" transform="translate(185,176)"/>
<path d="M0 0 C1.32257813 0.19142578 1.32257813 0.19142578 2.671875 0.38671875 C4.00992188 0.56654297 4.00992188 0.56654297 5.375 0.75 C6.05046875 0.85699219 6.7259375 0.96398437 7.421875 1.07421875 C7.421875 1.73421875 7.421875 2.39421875 7.421875 3.07421875 C2.801875 3.07421875 -1.818125 3.07421875 -6.578125 3.07421875 C-2.578125 0.07421875 -2.578125 0.07421875 0 0 Z " fill="#6F0D0F" transform="translate(247.578125,303.92578125)"/>
<path d="M0 0 C0.99 0.33 1.98 0.66 3 1 C4.1875 4.5625 4.1875 4.5625 5 8 C2 7 2 7 0 4 C0 2.68 0 1.36 0 0 Z " fill="#5F191F" transform="translate(167,300)"/>
<path d="M0 0 C0 1.32 0 2.64 0 4 C-2.64 4 -5.28 4 -8 4 C-8 3.34 -8 2.68 -8 2 C-2.25 0 -2.25 0 0 0 Z " fill="#970E10" transform="translate(278,299)"/>
<path d="M0 0 C0 0.99 0 1.98 0 3 C-0.99 3 -1.98 3 -3 3 C-3 3.66 -3 4.32 -3 5 C-4.32 4.67 -5.64 4.34 -7 4 C-7 3.34 -7 2.68 -7 2 C-4.35261084 0.5393715 -3.10551666 0 0 0 Z " fill="#D30D10" transform="translate(287,297)"/>
<path d="M0 0 C0.99 0 1.98 0 3 0 C3.33 0.99 3.66 1.98 4 3 C5.62332967 4.38576923 7.28724465 5.72641268 9 7 C7.68 7 6.36 7 5 7 C5 6.34 5 5.68 5 5 C3.02 4.34 1.04 3.68 -1 3 C-0.67 2.01 -0.34 1.02 0 0 Z " fill="#60090C" transform="translate(198,274)"/>
<path d="M0 0 C0.33 0.66 0.66 1.32 1 2 C0.67 2.66 0.34 3.32 0 4 C-1.32 4 -2.64 4 -4 4 C-4 4.66 -4 5.32 -4 6 C-4.66 6 -5.32 6 -6 6 C-6 4.68 -6 3.36 -6 2 C-4.02 1.34 -2.04 0.68 0 0 Z " fill="#7D120C" transform="translate(218,194)"/>
<path d="M0 0 C3.125 0.375 3.125 0.375 6 1 C5.67 1.66 5.34 2.32 5 3 C3.68 2.67 2.36 2.34 1 2 C0.67 3.32 0.34 4.64 0 6 C-0.99 5.67 -1.98 5.34 -3 5 C-2 2 -2 2 0 0 Z " fill="#620F11" transform="translate(231,311)"/>
<path d="M0 0 C0.66 0.33 1.32 0.66 2 1 C2.4140625 3.94140625 2.4140625 3.94140625 2.625 7.5625 C2.69976562 8.76003906 2.77453125 9.95757812 2.8515625 11.19140625 C2.90054687 12.11824219 2.94953125 13.04507813 3 14 C2.34 14 1.68 14 1 14 C1 10.7 1 7.4 1 4 C0.34 4 -0.32 4 -1 4 C-0.67 2.68 -0.34 1.36 0 0 Z " fill="#681611" transform="translate(281,178)"/>
<path d="M0 0 C2.97 0.33 5.94 0.66 9 1 C9.33 1.99 9.66 2.98 10 4 C9.01 4 8.02 4 7 4 C7 3.34 7 2.68 7 2 C5.02 2.33 3.04 2.66 1 3 C0.67 2.01 0.34 1.02 0 0 Z " fill="#7D0F14" transform="translate(237,311)"/>
<path d="M0 0 C3.3 0.33 6.6 0.66 10 1 C10 1.33 10 1.66 10 2 C7.36 2 4.72 2 2 2 C2 2.66 2 3.32 2 4 C2.99 4.33 3.98 4.66 5 5 C3.35 4.67 1.7 4.34 0 4 C0 2.68 0 1.36 0 0 Z " fill="#DD0E0F" transform="translate(218,304)"/>
<path d="M0 0 C2.66666667 1.33333333 5.33333333 2.66666667 8 4 C8 4.33 8 4.66 8 5 C6.02 5 4.04 5 2 5 C1.34 3.35 0.68 1.7 0 0 Z " fill="#A61513" transform="translate(218,300)"/>
<path d="M0 0 C1.32 0 2.64 0 4 0 C3.67 1.65 3.34 3.3 3 5 C1.68 4.67 0.36 4.34 -1 4 C-0.67 2.68 -0.34 1.36 0 0 Z " fill="#400E11" transform="translate(300,203)"/>
<path d="M0 0 C1.125 1.75 1.125 1.75 2 4 C1.125 6.25 1.125 6.25 0 8 C-0.66 8 -1.32 8 -2 8 C-2 7.34 -2 6.68 -2 6 C-2.66 6 -3.32 6 -4 6 C-4 5.34 -4 4.68 -4 4 C-3.01 3.67 -2.02 3.34 -1 3 C-0.67 2.01 -0.34 1.02 0 0 Z " fill="#790E0F" transform="translate(325,188)"/>
<path d="M0 0 C1.98 0 3.96 0 6 0 C6.33 0.99 6.66 1.98 7 3 C5.02 3 3.04 3 1 3 C0.67 2.01 0.34 1.02 0 0 Z " fill="#F00502" transform="translate(211,246)"/>
<path d="M0 0 C0.33 0.99 0.66 1.98 1 3 C0.38125 3.28875 -0.2375 3.5775 -0.875 3.875 C-3.13325765 4.93720042 -3.13325765 4.93720042 -5 7 C-5 5.35 -5 3.7 -5 2 C-3.35 1.34 -1.7 0.68 0 0 Z " fill="#8E0F0E" transform="translate(215,190)"/>
<path d="M0 0 C3.625 0.375 3.625 0.375 7 1 C7 1.99 7 2.98 7 4 C6.01 4 5.02 4 4 4 C4 3.34 4 2.68 4 2 C2.02 2 0.04 2 -2 2 C-1.34 1.34 -0.68 0.68 0 0 Z " fill="#78090A" transform="translate(246,159)"/>
<path d="M0 0 C3.3 0 6.6 0 10 0 C10 0.33 10 0.66 10 1 C9.05125 1.309375 8.1025 1.61875 7.125 1.9375 C4.13919592 2.87394742 4.13919592 2.87394742 2 4 C2 3.34 2 2.68 2 2 C1.34 2 0.68 2 0 2 C0 1.34 0 0.68 0 0 Z " fill="#960C0D" transform="translate(292,325)"/>
<path d="M0 0 C-0.33 0.66 -0.66 1.32 -1 2 C-2.65 1.67 -4.3 1.34 -6 1 C-6.33 1.99 -6.66 2.98 -7 4 C-7.99 3.67 -8.98 3.34 -10 3 C-9.01 2.67 -8.02 2.34 -7 2 C-7 1.34 -7 0.68 -7 0 C-3.98968256 -0.93423645 -3.13349732 -1.04449911 0 0 Z " fill="#650B0D" transform="translate(280,307)"/>
<path d="M0 0 C2.97 0.495 2.97 0.495 6 1 C6.33 2.32 6.66 3.64 7 5 C5.68 5 4.36 5 3 5 C3 4.01 3 3.02 3 2 C2.01 1.67 1.02 1.34 0 1 C0 0.67 0 0.34 0 0 Z " fill="#931A1F" transform="translate(248,256)"/>
<path d="M0 0 C2.475 0.495 2.475 0.495 5 1 C5 2.65 5 4.3 5 6 C4.01 6 3.02 6 2 6 C1.34 4.02 0.68 2.04 0 0 Z " fill="#F80208" transform="translate(188,235)"/>
<path d="M0 0 C1.32 0.33 2.64 0.66 4 1 C0.535 3.97 0.535 3.97 -3 7 C-3.33 6.01 -3.66 5.02 -4 4 C-3.01 4 -2.02 4 -1 4 C-0.67 2.68 -0.34 1.36 0 0 Z " fill="#8B0E09" transform="translate(178,187)"/>
<path d="M0 0 C0.33 0 0.66 0 1 0 C0.67 2.31 0.34 4.62 0 7 C-0.66 7 -1.32 7 -2 7 C-2.33 7.66 -2.66 8.32 -3 9 C-2.44271087 5.65626525 -1.64826111 2.96687001 0 0 Z " fill="#EF0605" transform="translate(327,300)"/>
<path d="M0 0 C-0.33 2.31 -0.66 4.62 -1 7 C-1.66 7 -2.32 7 -3 7 C-3.33 5.02 -3.66 3.04 -4 1 C-2 0 -2 0 0 0 Z " fill="#D61212" transform="translate(208,290)"/>
<path d="M0 0 C0.33 0.66 0.66 1.32 1 2 C3.02463255 2.65213292 3.02463255 2.65213292 5 3 C4.67 3.99 4.34 4.98 4 6 C2.68 5.67 1.36 5.34 0 5 C0.33 4.67 0.66 4.34 1 4 C0.59070014 1.94603274 0.59070014 1.94603274 0 0 Z " fill="#730D11" transform="translate(335,285)"/>
<path d="M0 0 C1.875 0.1875 1.875 0.1875 4 1 C5.25 3.5625 5.25 3.5625 6 6 C5.01 6.33 4.02 6.66 3 7 C0 2.25 0 2.25 0 0 Z " fill="#CE1417" transform="translate(284,272)"/>
<path d="M0 0 C4 0 4 0 5.75 1.5 C6.1625 1.995 6.575 2.49 7 3 C6.67 3.66 6.34 4.32 6 5 C4.02 4.01 2.04 3.02 0 2 C0 1.34 0 0.68 0 0 Z " fill="#DF0D0B" transform="translate(183,236)"/>
<path d="M0 0 C2.1519437 3.22791555 2.20086443 4.28400809 2 8 C-0.475 7.01 -0.475 7.01 -3 6 C-2.01 5.67 -1.02 5.34 0 5 C0 3.35 0 1.7 0 0 Z " fill="#541013" transform="translate(172,198)"/>
<path d="M0 0 C0.99 0 1.98 0 3 0 C4.6875 2 4.6875 2 6 4 C4.68 4.33 3.36 4.66 2 5 C1.34 3.35 0.68 1.7 0 0 Z " fill="#DB0A06" transform="translate(279,165)"/>
</svg>
