<svg xmlns="http://www.w3.org/2000/svg" width="501" height="498"><path fill="#bd0f11" d="m252.5 158.813 3.531-.043C259 159 259 159 261 161l3-1c3.125.313 3.125.313 6 1l1 2c2.025.652 2.025.652 4 1l1-3 7 2v2c4.535 1.77 8.159 2.09 13 2 2.438.5 2.438.5 4 1v2l3.813-.312c2.226-.008 2.226-.008 4.187.312 1.688 2.313 1.688 2.313 3 5a99 99 0 0 0 5 3 91 91 0 0 1 4 4l2.438 2.188c6.202 6.807 8.43 13.774 9.562 22.812-2.98 1.986-4.031 2.315-7.437 2.625l-2.31.227c-2.08.137-4.168.148-6.253.148v-2l-3.437 1.75c-2.825 1.096-4.143 1.365-7.098.559-2.223-1.011-4.354-2.083-6.465-3.309l1-4h4v2a90 90 0 0 0 7.563-2.187L315 202l3 2h7v-8h-2v-2h-2l-.629-1.68c-.972-2.286-1.94-4.285-3.371-6.32-3.435-1.481-3.435-1.481-7-2-1.354-.625-2.7-1.272-4-2l1-3h-7l-1-3c-4.508-1.428-8.27-2.14-13-2l-2-1h-4l-1-2-3.176.035-4.137.028-2.091.025c-3.144.015-5.59-.086-8.596-1.088v-2l-3.25 1.5c-3.004 1.387-4.21 1.5-7.75 1.5v-2c-3.223-.15-5.556-.184-8.562 1.063-2.914 1.12-4.483.781-7.438-.063l-1 3-2.117-1.574c-3.654-1.807-5.145-1.347-9.008-.238l-3.133.855c-2.907.887-2.907.887-5.742 2.957-2.687.125-2.687.125-5 0v2c-3.01.934-3.867 1.044-7 0v2h-8v2l-8 2-1 4a113 113 0 0 1-5 3c-3.836 3.444-3.836 3.444-6 8 .093 2.066.093 2.066.438 4.188L174 206l-4-1v4h2l-.062 2.75c.051 3.732.051 3.732 1.062 7.25l3 1v4l3.188.875c3.04.897 5.9 1.89 8.812 3.125v4h5v2l5 2v3h2l1-3h3l1 3q1.985.558 4 1l1 2 2.188-.625c3.355-.447 4.928-.137 7.812 1.625.64 2.586.64 2.586 1 5l3.578.55 4.672.762 2.355.358c4.37.728 6.888 1.541 10.395 4.33 2.643.463 2.643.463 5.438.5 4.502.15 6.758 1.157 10.562 3.5q3.504 1.125 7.063 2.063c7.446 1.978 7.446 1.978 10.937 3.937v2l3.25.313c3.597.659 5.208 1.145 7.75 3.687v2h2c3.817 7.362 5.27 12.81 3 21l-1 3h-2l-1 4h-2l-1 4h-2v2l-3 1-1 2-5-1-1 3-1.695-.55c-2.69-.525-4.51-.216-7.18.363l-2.66.574c-2.63.618-2.63.618-5.777 1.738-2.762.9-4.81.95-7.688.875-1.343.29-2.682.61-4 1v-2l-3.187.563c-3.384.388-5.577.32-8.813-.563l-1 4-3-1v-4l-2.012-.402L218 310l-2.734-.422C213 309 213 309 211.438 306.688L210 304l-1.937-1.812c-3.74-3.967-5.893-8.892-7.063-14.188q-3.688.21-7.375.438l-2.117.119c-3.882.186-3.882.186-7.508 1.443-2.125-.437-2.125-.437-4-1v7h-4c-1.75-1.75-1.75-1.75-3-4v-4l-3.687.125c-3.532.013-6.113-.525-9.313-2.125-.125-5.75-.125-5.75 1-8h5l1-2h3l1 2 3 1 1-3 1.488.996c3.542 1.416 6.952 1.176 10.7 1.067 2.608-.062 5.202-.084 7.812-.063l1 1 2-5h3l1 3 3.063 1.625C208 281 208 281 208.395 283.258A63 63 0 0 1 208 290h2c1.55 2.21 2.894 4.513 4.27 6.836 2.066 2.584 3.622 3.146 6.73 4.164l1.879 1.055c2.964 1.32 5.849 1.638 9.059 2.07l3.652.508c3.81.41 7.165.647 10.91-.195 2.818-.494 4.717.005 7.5.562 2.35-.286 2.35-.286 5-1q2.34-.574 4.688-1.125l2.324-.57C268 302 268 302 270 303v-2l3.625-1.25c4.84-1.833 8.785-4.006 12.313-7.875 1.637-4.43 1.253-8.343.062-12.875-6.649-9.651-24.032-14.343-35-17h-6v-2l-2.187.25C240 260 240 260 237.75 258.125c-3.231-2.497-5.678-2.962-9.621-3.684C226 254 226 254 223.438 252.812c-3.115-1.038-5.324-.497-8.512.032-2.666.216-4.531-.75-6.926-1.844l-3 1-2.437-2-2.563-2c-2.098.4-2.098.4-4 1-1.5-1.312-1.5-1.312-3-3l-2.125-1.062C189 244 189 244 188 242l-2.875-.875c-3.502-1.26-4.034-2.215-6.125-5.125a125 125 0 0 0-5-2c-1.812-1.625-1.812-1.625-3-3v2l-6-1c-.763-2.883-1.04-4.8-.437-7.75.418-3.107.24-4.605-.5-7.562-2.063-8.391-2.103-18.448 2.335-26.098 1.448-2.002 2.831-3.867 4.602-5.59h2l1-4h2l1-3 1.875-.375c2.413-.446 2.413-.446 3.625-3.187L184 172h4l1.938-1c2.49-1.207 4.33-1.152 7.062-1v-2h4v-2l3.063-.375c3.78-.6 7.27-1.539 10.937-2.625 4.701-1.15 4.701-1.15 7 0v-3a100 100 0 0 1 5 0l1 1c3.596.073 7.181-.004 10.777-.062C242 161 242 161 244 162v-2c2.848-1.424 5.328-1.17 8.5-1.187"/><path fill="#9d1315" d="M328 282h6l.75 2.438c.972 2.733.972 2.733 3.375 3.375L340 288l-1 3c-2.062.688-2.062.688-4 1 .553 4.03 1.156 8.02 2 12l-4-1-2.187 2.625-1.387 1.648q-1.381 1.67-2.696 3.391c-2.698 3.477-4.665 4.85-8.73 6.336-6.849 2.875-6.849 2.875-12.187 7.813L304 327q-3.5.063-7 0c-2.314 1.896-2.314 1.896-4 4h-2v-3l-2.562 1.438c-3.592 1.632-6.518 2.26-10.438 2.562l-2-1c-1.999.318-1.999.318-4.125.938l-2.195.59L268 333v2h-3l-1-2-2.937.5a57.5 57.5 0 0 1-16.813-.062c-3.169-.427-5.176-.103-8.25.562-2.312-.437-2.312-.437-4-1l-1 2h-2l-1-2c-1.927-.29-3.857-.572-5.797-.754-2.443-.273-4.795-.752-7.203-1.246l-3.277-.543c-15.666-2.759-31.323-8.678-41.446-21.617-4.594-6.617-6.89-11.722-7.277-19.84h3l1.125 3.438c2.09 5.593 5.254 11.02 9.563 15.199C178 309 178 309 178 311c2.937 1.523 5.917 2.801 9 4v2l2.313.375C192 318 192 318 195 320c9.36 3.186 19.217 4.127 29.031 4.781 2.431.18 4.808.437 7.219.781 3.498.409 6.788.456 10.297.407 4.504.057 8.976.562 13.453 1.031l1-5h2v3q2.593.079 5.188.125l2.917.07c3.051-.206 5.104-1.001 7.895-2.195 2.203-.379 2.203-.379 4.25-.562 3.54-.02 3.54-.02 4.75-1.438 3.03-.538 6.07-.966 9.117-1.402 3.063-.448 3.063-.448 5.883-2.598h4v-8h3l1 5c2.971-1.205 4.655-2.24 6-5.203a111 111 0 0 0 2-6.797c4.75 1.875 4.75 1.875 7 3 5.033-7.26 6.172-14.308 7-23m-12 25 1 2Z"/><path fill="#c50e11" d="M250 175h3v6l7 1 2-3h3v4h7v2h2v2h4l3-9 2 1c.317 3.074.38 6.126.46 9.215.226 2.923.226 2.923 2.58 4.164L288 193l1.375-1.5C291 190 291 190 293 190q-.344 5.114-.723 10.227a493 493 0 0 0-.46 6.859l-.192 2.664-.148 2.36C291 214 291 214 288 216c-2.239-5.451-3.476-10.132-4-16l-4-1v-3h-2.75c-7.25 0-7.25 0-9.25-1-1.125-2.062-1.125-2.062-2-4-4.704-.141-4.704-.141-9.312.625L255 192l-2-2c-2.67-.243-2.67-.243-5.625-.125l-3.04.055L242 190l-1 2h-3v-2h-3l-1 5h-2l-1-2c-6.084-.198-6.084-.198-12 1l-1 4h-4v2h-2v3h-2v7h2l.688 1.813c1.645 2.742 3.582 3.607 6.312 5.187v2l2.313.438C224 220 224 220 227 221v2l2.875.25c4.184.584 7.805 2.132 11.68 3.762 3.104 1.254 6.208 2.144 9.445 2.988v3c-8.037.545-14.421-1.474-22-4a131 131 0 0 0-4-1v-2h-5l-.75-1.937c-1.02-2.212-1.02-2.212-3-2.563L214 221c-4.344-2.483-6.776-4.526-9-9-1.116-6.195-.726-11.69 2.563-17.125 3.052-4.029 5.49-5.183 10.437-5.875v-2c2.647-1.46 3.894-2 7-2l1.672-.992c3.455-1.496 6.884-1.218 10.578-1.133l2.258.027c1.83.024 3.661.06 5.492.098v-2h5z"/><path fill="#d20f10" d="m252.5 158.813 3.531-.043C259 159 259 159 261 161l3-1c3.125.313 3.125.313 6 1l1 2c2.025.652 2.025.652 4 1l1-3 7 2v2c4.535 1.77 8.159 2.09 13 2 2.438.5 2.438.5 4 1v2l3.813-.312c2.226-.008 2.226-.008 4.187.312 1.688 2.313 1.688 2.313 3 5a99 99 0 0 0 5 3 91 91 0 0 1 4 4l2.438 2.188c6.202 6.807 8.43 13.774 9.562 22.812-2.98 1.986-4.031 2.315-7.437 2.625l-2.31.227c-2.08.137-4.168.148-6.253.148v-2l-3.437 1.75c-2.825 1.096-4.143 1.365-7.098.559-2.223-1.011-4.354-2.083-6.465-3.309l1-4h4v2a90 90 0 0 0 7.563-2.187L315 202l3 2h7v-8h-2v-2h-2l-.629-1.68c-.972-2.286-1.94-4.285-3.371-6.32-3.435-1.481-3.435-1.481-7-2-1.354-.625-2.7-1.272-4-2l1-3h-7l-1-3c-4.508-1.428-8.27-2.14-13-2l-2-1h-4l-1-2-3.176.035-4.137.028-2.091.025c-3.144.015-5.59-.086-8.596-1.088v-2l-3.25 1.5c-3.004 1.387-4.21 1.5-7.75 1.5v-2c-3.223-.15-5.556-.184-8.562 1.063-2.914 1.12-4.483.781-7.438-.063l-1 3-2.25-1.5c-2.813-1.82-2.813-1.82-6.75-1.5v-2l2.438-.375L229 167l1-2 2.852.219 3.773.281 3.727.281c3.228.194 6.415.259 9.648.219v-2c-12.445-.134-12.445-.134-24.84.844-3.488.252-6.719-.27-10.16-.844 3-2 3-2 5.188-1.625L222 163v-3a100 100 0 0 1 5 0l1 1c3.596.073 7.181-.004 10.777-.062C242 161 242 161 244 162v-2c2.848-1.424 5.328-1.17 8.5-1.187"/><path fill="#a51114" d="m171 194 3 1-1 3c.093 2.066.093 2.066.438 4.188L174 206l-4-1v4h2l-.062 2.75c.051 3.732.051 3.732 1.062 7.25l3 1v4l3.188.875c3.04.897 5.9 1.89 8.812 3.125v4h5v2l5 2v3h2l1-3h3l1 3q1.985.558 4 1l1 2 2.188-.625c3.355-.447 4.928-.137 7.812 1.625.64 2.586.64 2.586 1 5l3.578.55 4.672.762 2.355.358c4.37.728 6.888 1.541 10.395 4.33 2.643.463 2.643.463 5.438.5 4.391.28 6.917.927 10.562 3.5 2.693.707 2.693.707 5 1-3 2-3 2-5 3l7 1 1 3 5-1-1 3q-3.315-.897-6.625-1.812l-3.727-1.02C256 264 256 264 252.718 262.344c-3.138-1.552-4.448-1.402-7.718-.344v-2l-2.187.25C240 260 240 260 237.75 258.125c-3.231-2.497-5.678-2.962-9.621-3.684C226 254 226 254 223.438 252.812c-2.641-.88-3.753-.71-6.438-.25-3.234.54-3.863.503-7-1L208 250c2.52-1.26 3.854-.919 6.625-.562l2.477.308L219 250l-1-4-3.562-.375c-3.98-.49-7.616-1.43-11.438-2.625v-2h-7v-3h-2l-1.25-1.375c-2.331-2.165-4.728-2.752-7.75-3.625v-2l-1.562-.75L181 229l-3.375-1.375c-6.067-3.413-8.526-11.327-10.625-17.625-.128-2.674-.044-5.321 0-8l4-2z"/><path fill="#8f1516" d="M164 288c2.168 1.774 2.973 2.912 3.813 5.625 1.83 5.205 4.902 10.154 8.878 14.02C178 309 178 309 178 311c2.937 1.523 5.917 2.801 9 4v2l2.313.375C192 318 192 318 195 320c9.36 3.186 19.217 4.127 29.031 4.781 2.431.18 4.808.437 7.219.781 3.498.409 6.788.456 10.297.407 4.504.057 8.976.562 13.453 1.031l1-5h2v3q2.593.079 5.188.125l2.917.07c3.034-.204 5.114-1.03 7.895-2.195 2.813.375 2.813.375 5 1v1c-5.045 1.618-9.542 2.314-14.875 2.563-4.382-.187-4.382-.187-8.125 1.437a95 95 0 0 1-5.363-.086l-3.381-.133-3.568-.156-3.44-.133A441 441 0 0 1 218 327l3 2v2l8-1v2l3 1-1 2h-2l-1-2c-1.927-.29-3.857-.572-5.797-.754-2.443-.273-4.795-.752-7.203-1.246l-3.277-.543c-15.666-2.759-31.323-8.678-41.446-21.617-4.374-6.3-7.523-11.955-7.277-19.84z"/><path fill="#f00606" d="M170 193c.25 5.625.25 5.625-2 9-.888 8.435 2.164 16.11 7 23 2.422 1.786 2.422 1.786 5.125 3.188 4.782 2.626 4.782 2.626 5.875 4.812l3.5.938L193 235l1 3h2v3h7v2l2.938-.062C209 243 209 243 210 244c1.347.23 2.704.412 4.063.563L218 245l1 5q-2.187.039-4.375.063l-2.46.035C210 250 210 250 208 249l-1 3c-2.523-.435-3.732-.71-5.5-2.625L200 248l-2 .5-2 .5c-1.5-1.312-1.5-1.312-3-3l-2.125-1.062C189 244 189 244 188 242l-2.875-.875c-3.378-1.216-4.395-2.05-6.125-5.125v-2l-1.937-.375L175 233l-1-2-1.875-.375c-2.948-.867-3.552-1.994-5.125-4.625-.73-3.355-.73-3.355-1.187-7.187l-.242-2.013c-.564-4.977-.83-9.8-.571-14.8l1-1 .438-3.5.562-3.5c2-1 2-1 3-1"/><path fill="#e70b0c" d="M328 282h6l.75 2.438c.972 2.733.972 2.733 3.375 3.375L340 288l-1 3h-6v8l-2 1v2h-2l-.937 2.875C327 308 327 308 326 310h-3l-.062 1.813c-.938 2.187-.938 2.187-4 3.75q-1.96.745-3.938 1.437c-5.352 1.417-5.352 1.417-9 5-2.649.594-5.292.742-8 1 .75-1.937.75-1.937 2-4 2.125-.75 2.125-.75 4-1v-5l2.75.125c3.383-.769 3.383-.769 4.54-3.418A109 109 0 0 0 314 302c4.75 1.875 4.75 1.875 7 3 5.033-7.26 6.172-14.308 7-23m-12 25 1 2Z"/><path fill="#881b19" d="M309 174c4.308 2.32 7.685 4.353 11 8l2.438 2.188c6.202 6.807 8.43 13.774 9.562 22.812-2.98 1.986-4.031 2.315-7.437 2.625l-2.31.227c-2.08.137-4.168.148-6.253.148v-2l-3.437 1.75c-2.825 1.096-4.143 1.365-7.098.559-2.223-1.011-4.354-2.083-6.465-3.309l1-4h4v2a90 90 0 0 0 7.563-2.187L315 202l3 2h7v-8h-2v-2h-2l-.629-1.68c-.972-2.286-1.94-4.285-3.371-6.32-3.435-1.481-3.435-1.481-7-2-1.354-.625-2.7-1.272-4-2l2-3a75 75 0 0 0 1-5"/><path fill="#761312" d="M206 198h1v5h3v7h2l.688 1.813c1.645 2.742 3.582 3.607 6.312 5.187v2l2.313.438C224 220 224 220 227 221v2l2.875.25c4.184.584 7.805 2.132 11.68 3.762 3.104 1.254 6.208 2.144 9.445 2.988v3c-8.037.545-14.421-1.474-22-4a131 131 0 0 0-4-1v-2h-5l-.75-1.937c-1.02-2.212-1.02-2.212-3-2.563L214 221c-4.334-2.476-6.82-4.507-9-9-.328-3.043-.328-3.043-.25-6.187.015-1.046.03-2.091.047-3.168C205 200 205 200 206 198"/><path fill="#8c0d0f" d="m282 163 1 2c4.471 1.916 8.183 2.09 13 2 2.438.5 2.438.5 4 1v2l3.938-.062A59 59 0 0 1 308 170c1 1 1 1 1.098 3.285l-.036 2.778-.027 2.785L309 181l-1-2h-8l-1-3c-4.508-1.428-8.27-2.14-13-2l-2-1h-4l-1-2-3.176.035-4.137.028-2.091.025c-3.144.015-5.59-.086-8.596-1.088v-2l-3.25 1.5c-3.004 1.387-4.21 1.5-7.75 1.5v-2l-3-1 3.188.125c3.67.114 3.67.114 6.242-1.184 3.022-1.107 4.41-.868 7.507-.129 6.65 1.409 13.287 1.812 20.063 2.188l-2-2z"/><path fill="#d70d0b" d="m185 176 3 1-1 4-5 1-1 5-3 1-1 3h-3v3h-3v6l-2-1v-5h-2l.063 3.438C167 201 167 201 166 202c-.424 8.194-.786 21.009 4 28 2.555.812 2.555.812 5 1v2l4 2c-3.688-.498-5.605-1.1-8-4v2l-6-1c-.763-2.883-1.04-4.8-.437-7.75.418-3.107.24-4.605-.5-7.562-2.063-8.391-2.103-18.448 2.335-26.098 1.448-2.002 2.831-3.867 4.602-5.59h2l1-4h2v-2h7v-2z"/><path fill="#eb0809" d="m169.16 279.861 2.617.006 2.672-.003q2.804 0 5.606.006 4.3.006 8.6-.007 2.717 0 5.435.004l2.61-.006c6.07.024 6.07.024 8.3 1.139-.375 1.937-.375 1.937-1 4-2.652 1.326-4.922 1.32-7.883 1.535l-3.535.264-3.707.263-3.73.276q-4.573.336-9.145.662l-1 3v-3l-3.687.125c-3.532.013-6.113-.525-9.313-2.125a100 100 0 0 1 0-5c1.892-1.892 4.644-1.129 7.16-1.139"/><path fill="#cc1312" d="m281 178 2 1c.317 3.074.38 6.126.46 9.215.226 2.923.226 2.923 2.58 4.164L288 193l1.375-1.5C291 190 291 190 293 190q-.344 5.114-.723 10.227a493 493 0 0 0-.46 6.859l-.192 2.664-.148 2.36C291 214 291 214 288 216c-2.239-5.451-3.476-10.132-4-16l-4-1v-3h-2.75c-7.25 0-7.25 0-9.25-1v-3l2.563.438c3.473.568 6.951 1.074 10.437 1.562l-1-4-7-1-1-4h2v2h4z"/><path fill="#501717" d="m220 246 1 2c3.544.72 7.075 1.263 10.654 1.768 4.377.68 6.837 1.432 10.346 4.232 2.643.463 2.643.463 5.438.5 4.391.28 6.917.927 10.562 3.5 2.693.707 2.693.707 5 1-3 2-3 2-5 3l7 1 1 3 5-1-1 3q-3.315-.897-6.625-1.812l-3.727-1.02C256 264 256 264 252.718 262.344c-3.138-1.552-4.448-1.402-7.718-.344v-2l-2.187.25C240 260 240 260 237.75 258.125c-3.231-2.497-5.678-2.962-9.621-3.684C226 254 226 254 223.438 252.812c-2.641-.88-3.753-.71-6.438-.25-3.234.54-3.863.503-7-1L208 250c2.722-1.361 4.183-.704 7.125-.062l2.758.59L220 251z"/><path fill="#cf1311" d="m215 326 2.367.184c8.767.634 17.538 1.072 26.32 1.441l3.475.158 3.287.131 2.948.124c2.56.076 2.56.076 4.762-.658L260 327l3 2-2 1 3 1v2c-6.669 1.135-13.04 1.444-19.75.438-3.14-.615-3.14-.615-5.75.125-3.517.615-6.162-.45-9.5-1.563v-2l-8 1v-2l-6-2z"/><path fill="#781918" d="M164 288c2.168 1.774 2.973 2.912 3.813 5.625 1.83 5.205 4.902 10.154 8.878 14.02C178 309 178 309 178 311c2.937 1.523 5.917 2.801 9 4v2l2.313.313c2.858.73 3.844 1.457 5.687 3.687l-5-1-1 2 6 1v2c-9.868-1.537-18.437-8.804-25-16-4.546-6.39-6.873-12.15-7-20z"/><path fill="#e20a0c" d="m207 292 2 1-1 2 4 1 .125 1.875L213 300c2.975 1.158 2.975 1.158 6 2l1 2c2.538.455 2.538.455 5.61.598l3.476.24 3.664.224q3.555.233 7.11.473l3.202.2c2.711.245 5.283.674 7.938 1.265l1 4c-11.625.293-22.58-.644-34-3v-2l-5-1-1-4h-4z"/><path fill="#c41012" d="m333 291 2 1c.402 2.322.727 4.659 1 7 .32 1.67.647 3.337 1 5l-4-1-2.187 2.625-1.387 1.648q-1.381 1.67-2.696 3.391c-2.698 3.477-4.665 4.85-8.73 6.336-5.837 2.563-10.301 4.606-14 10h-2v-2h-6v-3l-2 1c-2.546.232-5.074.419-7.625.563l-2.14.13q-2.618.158-5.235.307c3.249-2.873 5.798-3.518 10.063-4.062 3.839-.499 5.667-.758 8.937-2.938h4v-8h3l1 4h-2l.313 2.313L304 318c-2.437 1.688-2.437 1.688-5 3l-1 2 8-1 1-3c1.742-.879 1.742-.879 3.875-1.562 2.834-.926 4.577-1.74 7.125-3.438h4l1-4h3l.938-2.875C328 304 328 304 329 302h2l-1-3h3z"/><path fill="#8d1111" d="M263.125 260.188c4.439.93 8.614 2.276 12.875 3.812v2l3.25.313c3.597.659 5.208 1.145 7.75 3.687v2h2c3.528 6.804 5.035 11.824 3.5 19.5l-.5 1.5h-2l.07-2.45.055-3.238.07-3.199c-.198-3.158-.95-5.237-2.195-8.113v-3l-3 1 2 5-2.375-2.187c-3.505-2.968-7.377-4.743-11.55-6.602C271 269 271 269 270 266h-4l-2-2a154 154 0 0 0-7-2c3-2 3-2 6.125-1.812"/><path fill="#501615" d="M325 198h2c.286 8.571.286 8.571-2 12h-9v-2l-3.437 1.75c-2.825 1.096-4.143 1.365-7.098.559-2.223-1.011-4.354-2.083-6.465-3.309l1-4h4v2a90 90 0 0 0 7.563-2.187L315 202l3 2h7z"/><path fill="#f10505" d="m188 235 6 1v2h2v3h7v2l2.938-.062C209 243 209 243 210 244c1.347.23 2.704.412 4.063.563L218 245l1 5h-15l-1-4-6-1v-3l-1 2h-2v-2h-4z"/><path fill="#af1115" d="M238.691 186.313 242 187c3.758.143 7.52.024 11.28-.04 4.695-.047 9.088.25 13.72 1.04l1 4-3.125-.562c-3.79-.61-3.79-.61-7.187.125L255 192l-2-2c-2.67-.243-2.67-.243-5.625-.125l-3.04.055L242 190l-1 2h-3v-2h-3l-1 5h-2l-1-2c-6.084-.198-6.084-.198-12 1l2-1v-2l2.266-.332 2.984-.48 2.953-.458c2.84-.532 2.84-.532 4.781-2.367C236 186 236 186 238.691 186.313"/><path fill="#e50b0e" d="m272 185 1 4h7l1 5c-4.764.19-8.649.072-13-2l-1-4-18-1 1-3c6.283-3.141 15.461-.101 22 1"/><path fill="#881415" d="M198 274h3l1 3 5 4h-44l-1 5 5 1-2 1c-2.625-.937-2.625-.937-5-2-.125-5.75-.125-5.75 1-8h5l1-2h3l1 2 3 1 1-3 1.488.996c3.542 1.416 6.952 1.176 10.7 1.067 2.608-.062 5.202-.084 7.812-.063l1 1z"/><path fill="#e6090b" d="m240.125 162.875 3.695-.008C247 163 247 163 250 164v2c-13.633 1.333-13.633 1.333-20 0v2l-2.344.148c-6.116.44-11.763 1.152-17.656 2.852v-5c3.648-2.32 6.686-2.176 10.938-2.062 6.517.16 12.675-1.077 19.187-1.063"/><path fill="#4d1512" d="M220 219a85 85 0 0 1 7 2v2l2.875.25c4.184.584 7.805 2.132 11.68 3.762 3.104 1.254 6.208 2.144 9.445 2.988v3c-8.037.545-14.421-1.474-22-4a131 131 0 0 0-4-1v-2l-3-1h4v-3l-6-1z"/><path fill="#be0f13" d="m221 185 2 1v2l-2 1 1 2-1 2h-2l-1 5h-4v2h-2v3h-5c-.358-3.755-.09-5.814 1.563-9.25 2.945-3.323 5.14-3.924 9.437-4.75v-2z"/><path fill="#661314" d="M242 255c11.2-.53 11.2-.53 16 3 2.693.707 2.693.707 5 1-3 2-3 2-5 3l7 1 1 3 5-1-1 3q-3.315-.897-6.625-1.812l-3.727-1.02C256 264 256 264 252.718 262.344c-3.138-1.552-4.448-1.402-7.718-.344v-4l-3-1z"/><path fill="#860f12" d="M165 193c1.1 3.506 1.035 6.655.938 10.313-.322 13.916-.322 13.916 4.062 26.687 2.555.812 2.555.812 5 1v2l4 2c-3.688-.498-5.605-1.1-8-4v2l-6-1c-.763-2.883-1.04-4.8-.437-7.75.418-3.107.24-4.605-.5-7.562-2.022-8.222-.972-15.525.937-23.688"/><path fill="#a00f10" d="M284 272c1.89.305 1.89.305 4 1 4.033 7.202 3.281 15 3 23h-2l-1 4-1-3-6 2-2-2 2.313-1.187c3.057-2.062 4.106-3.505 5.687-6.813.223-2.963.223-2.963-.187-6l-.293-3.062c-.51-2.88-1.33-5.276-2.52-7.938"/><path fill="#e40b0b" d="M296 322v3c-3.62 1.316-6.096 2-10 2v2l-3.027-.035c-1.29-.01-2.581-.018-3.91-.027l-3.903-.036c-3.023-.267-3.023-.267-4.16 1.098-1.666.04-3.334.043-5 0v-2c9.678-3.362 19.665-6 30-6"/><path fill="#bb1617" d="M190 319c9.077 1.686 9.077 1.686 13.125 3.063 3.635 1.185 7.075 1.544 10.875 1.937l1 5c-6.75-.875-6.75-.875-9-2-2.01 0-4.019.002-6.027.063C198 327 198 327 195 326v-3l-6-1z"/><path fill="#4a1114" d="M164 288c2.168 1.774 2.973 2.912 3.813 5.625 2.059 5.853 5.663 11.12 10.187 15.375l-1 2-4-3v2h2l-1 3c-6.27-6.986-11.305-14.25-11-24z"/><path fill="#860f11" d="M309 174c4.303 2.317 7.692 4.35 11 8l2.25 2.25L324 186l-2 2-1-4h-2l2 8c-2.248-2.052-3.002-3.007-4-6a119 119 0 0 0-7-2c-1.354-.625-2.7-1.272-4-2l2-3a75 75 0 0 0 1-5"/><path fill="#900e0e" d="m248.969 158.734 3.531.016 3.531-.016C259 159 259 159 261 161l3-1c3.125.313 3.125.313 6 1l1 2c2.025.652 2.025.652 4 1l1-3 6 1c-1.875 1.063-1.875 1.063-4 2l-2-1v2c-5.768.105-11.281-.288-17-1q-2.531-.285-5.062-.562L250 163v-2h-6c2-2 2-2 4.969-2.266"/><path fill="#9e0f0c" d="m171 194 3 1-1 3c.093 2.066.093 2.066.438 4.188L174 206l-4-1v4h2l-.062 2.75c.051 2.688.135 4.748 1.062 7.25l2 1-3 1q-.972-1.905-1.937-3.812l-1.09-2.145c-2.175-4.568-2.054-8.08-1.973-13.043l4-2z"/><path fill="#d1100f" d="m269.504 302.902 3.058.036 3.067.027L278 303v2h-5v4l-3.75-.062c-2.963-.006-5.385.323-8.25 1.062-2.333.039-4.667.045-7 0v-2l2.59-.84 3.348-1.098 3.34-1.09c5.742-2.05 5.742-2.05 6.226-2.07"/><path fill="#8b1314" d="M199 175h9v2c-3.01.934-3.867 1.044-7 0v2h-8v2l-8 2-1 4a88 88 0 0 1-5 3 89 89 0 0 0-4 4l-1-3h3l.313-1.937L178 187l3-1 .375-1.937C182 182 182 182 184.313 180.75 187 180 187 180 191 180l1-3h7z"/><path fill="#ce1113" d="M276 163h6l.375 1.875c.497 2.316.497 2.316 2.625 4.125-4.22 1.252-7.96.673-12.25.063l-2.258-.303A929 929 0 0 1 265 168v-2l-2-1c4.61-1.297 8.338-.711 13 0z"/><path fill="#931716" d="M325 298c.625 1.875.625 1.875 1 4l-2 2c-.643 2.069-.643 2.069-1 4h-3v2l-2.687.813c-3.314 1.054-3.314 1.054-6 2.875L309 315l-3-1 2.313-.937c3.85-2.956 4.506-6.484 5.687-11.063 4.75 1.875 4.75 1.875 7 3zm-9 9 1 2Z"/><path fill="#930e10" d="M205 297h3v4h4l1 4 2.438.375L218 306l1 2h6v2l1.938.375L229 311l1 2 1-2 6 1-1 2-4-1-1 4-3-1v-4l-2.012-.402L218 310l-2.734-.422C213 309 213 309 211.438 306.688L210 304l-2.125-2.125C206 300 206 300 205 297"/><path fill="#ae0e12" d="M179 235c2.37.409 3.69.675 5.379 2.441 1.847 1.776 3.332 2.373 5.746 3.184 3.792 1.292 3.792 1.292 4.875 2.375l2-1v3h6l1 5 4 1-3 1-2.437-2-2.563-2c-2.098.4-2.098.4-4 1-1.5-1.312-1.5-1.312-3-3l-2.125-1.062C189 244 189 244 188 242l-2.875-.812c-3.703-1.408-4.466-2.685-6.125-6.188"/><path fill="#9d0e0f" d="M230 165q3.406.212 6.813.438c1.264.08 2.529.162 3.832.246C244 166 244 166 247 167c-3.422 3.148-6.422 3.66-11 4l-2-1-1 3-2.25-1.5c-2.813-1.82-2.813-1.82-6.75-1.5v-2l2.438-.375L229 167z"/><path fill="#960f11" d="m190.375 286.938 3.098.013q3.763.018 7.527.049v1c-1.59.09-1.59.09-3.21.184l-4.165.253-2.117.12c-3.882.186-3.882.186-7.508 1.443-2.125-.437-2.125-.437-4-1v7h-4c-1.75-1.75-1.75-1.75-3-4v-4c5.786-1.254 11.489-1.112 17.375-1.062"/><path fill="#cc0d0c" d="M288 169c7.874-.262 7.874-.262 12 2 2.325.387 4.659.73 7 1l1 5-7-1v-2h-7v-2l-7 1z"/><path fill="#d20f12" d="m172.375 279.813 2.656-.038 2.555-.005 2.345-.013C182 280 182 280 185 282c-7.18.711-13.87 1.258-21 0v2l10 1v3c-4.548.178-7.88-.002-12-2a100 100 0 0 1 0-5c2.232-2.232 7.377-1.185 10.375-1.187"/><path fill="#df0c0e" d="m205 243 2 .438c3.656.685 7.306 1.124 11 1.562l1 5h-15c0-3 0-3 1.5-4.687L207 244z"/><path fill="#ee0504" d="M264 184v2h7v4l-2.02-.402c-6.648-1.274-13.23-2.102-19.98-2.598l1-3c4.28-2.14 9.49-1.093 14 0"/><path fill="#b50d11" d="m197 168 3 1-1 2h-6l-1 3h-2v3l2 1-1 2h-4v-3h-4v2h-6l1.813-.687c2.408-1.203 2.408-1.203 3.687-3.938L184 172h4l1.938-1c2.49-1.207 4.33-1.152 7.062-1z"/><path fill="#931111" d="M208 290h2c1.55 2.21 2.894 4.513 4.27 6.836 2.066 2.584 3.622 3.146 6.73 4.164l1.86 1.055c3.061 1.352 6.08 1.64 9.39 2.07l3.828.508L239 305v1c-12.93.214-12.93.214-19-1l-2-3h-3v-2h-2l-1-4-4-1z"/><path fill="#e00d0c" d="M257 327q3.012.43 6 1l-2 2 3 2c-6.553.125-13.081-.03-19.625-.375l-2.154-.094c-1.747-.102-3.486-.307-5.221-.531l-1-2 1.82-.076q4.059-.175 8.118-.361l2.865-.12 2.724-.127 2.524-.11c1.952 0 1.952 0 2.949-1.206"/><path fill="#ba0d0f" d="m176 179 1 4-6 5 2 1-.437 2.125c-.578 2.95-1.08 5.908-1.563 8.875l-2-1v-5h-2v7l-2 1c.21-10.749.21-10.749 3.438-14.687C171 185 171 185 173 185l1-4h2z"/><path fill="#631313" d="M293 190q-.344 5.114-.723 10.227a493 493 0 0 0-.46 6.859l-.192 2.664-.148 2.36C291 214 291 214 288 216l-2-7 2 1v2h2v-16l-4 1-1-5 3 1 1.375-1.5C291 190 291 190 293 190"/><path fill="#e90a09" d="M330 284c4.75 1.188 4.75 1.188 7 4v2l-4 1v8h-4z"/><path fill="#8f1315" d="m263.25 260.25 3.75.75 3.813.75C274 263 274 263 275.438 265.625L276 268h-5l-1-2h-4l-2-2a154 154 0 0 0-7-2c3-2 3-2 6.25-1.75"/><path fill="#491516" d="M300 203h4v2l1.813-.5C308 204 308 204 311 204l-1 3h6l-4 2-1.844 1.188c-2.156.812-2.156.812-4.515.132l-2.391-1.195-2.422-1.18L299 207z"/><path fill="#951113" d="M328 282h6l.75 2.438c.972 2.733.972 2.733 3.375 3.375L340 288l-1 3-4-1 1-1c-2.274-3.37-2.274-3.37-6-5l.07 1.793c.104 4.545.067 8.066-2.07 12.207h-2z"/><path fill="#a21317" d="m281 178 2 1c.414 2.941.414 2.941.625 6.563l.227 3.628L284 192l-1.766-.96c-3.01-1.4-5.957-1.662-9.234-2.04l-1-4h2v2h4z"/><path fill="#881213" d="M250 175h3v6l7 1 2-3h3v4h7v2c-6.78.26-13.4-.355-20-2-2-2-2-2-2.125-5.125z"/><path fill="#951214" d="M235 331c19.34-.191 19.34-.191 29 1-2 2-2 2-5.012 2.23-11.125-.13-11.125-.13-15.05-.793-2.98-.443-5.051-.224-7.938.563z"/><path fill="#831112" d="M206 198h1v5h3v7h2l2 5c-3.736-1.245-4.188-2.634-6-6v6c-1.484-1.121-1.484-1.121-3-3-.328-2.848-.328-2.848-.25-6.062.015-1.064.03-2.127.047-3.223C205 200 205 200 206 198"/><path fill="#760d0f" d="m265.625 167.25 2.063.41c5.038 1.066 5.038 1.066 7.312 3.34q-2.656.039-5.312.063l-2.989.035C264 171 264 171 261 170v-2l-3.25 1.5c-3.004 1.387-4.21 1.5-7.75 1.5v-2l-3-1 3.25.125c3.562.192 3.562.192 5.508-1.21 3.403-1.388 6.406-.44 9.867.335"/><path fill="#870e0d" d="M222 160a100 100 0 0 1 5 0l1 1c2.353.073 4.708.084 7.063.063l3.91-.028L242 161v1a1081 1081 0 0 1-7.062 1.5l-1.99.434c-6.106 1.263-11.832 1.549-17.948.066 3-2 3-2 5.188-1.625L222 163z"/><path fill="#691010" d="m254 257 9 2c-3 2-3 2-5 3l7 1 1 3 5-1-1 3q-3.345-.933-6.687-1.875l-3.762-1.055A83 83 0 0 1 251 262l3-2z"/><path fill="#691513" d="M220 219a85 85 0 0 1 7 2v2h4v2l4 1v3h-9l-1-3-3-1h4v-3l-6-1z"/><path fill="#e00b0f" d="m167 220 .313 1.938L168 224l3 1 1 3 2 1 1-3 6 2-3 2v3l3 1-2 1c-3.736-1.472-3.736-1.472-5-4l-1.875-.375C170 230 170 230 168.25 228.313c-1.577-2.917-1.473-5.046-1.25-8.313"/><path fill="#a31415" d="M268 303c-7.255 4.836-13.675 5.665-22 4a99 99 0 0 0-5 0c1.438-1.562 1.438-1.562 4-3 2.32.065 4.537.39 6.832.73 3.945.49 7.1-.71 10.856-1.855C266 302 266 302 268 303"/><path fill="#951418" d="M303 171h6v10l-1-2h-8l-1-3c-2-1.209-2-1.209-4-2h6v2h5l1-4z"/><path fill="#861717" d="M190 319c5.469 1.016 10.764 2.07 16 4v1h-7l1 3-5-1v-3l-6-1z"/><path fill="#8d1216" d="M235.563 187.938 238 188l-3 1v5l-3 1-1-2c-6.084-.198-6.084-.198-12 1l2-1v-2l2.371-.402 3.066-.536 3.06-.527c2.88-.616 3.102-1.525 6.065-1.597"/><path fill="#8f1213" d="M323 310h3c0 2 0 2-1.187 3.5-2.155 1.783-4.208 2.487-6.813 3.5-8.139 3.52-8.139 3.52-14 10l-2-1 2-4h2l1-3c1.742-.879 1.742-.879 3.875-1.562 2.834-.926 4.577-1.74 7.125-3.438h4z"/><path fill="#8b1314" d="M181 316c9.173.35 9.173.35 12.625 3.063L195 321l-5-1-1 2 6 1v2c-3.316-.553-6.15-1.168-9-3l-1-3c-2-1.209-2-1.209-4-2z"/><path fill="#a10e11" d="m215 190 1 3-1.875.688c-2.74 1.691-3.175 3.304-4.125 6.312h2v3h-5c-.37-3.893-.103-5.806 1.75-9.312C211 191 211 191 213.25 190.125z"/><path fill="#a61417" d="M289 196h1v16c-2 0-2 0-3.562-1.5-2.012-3.499-2.104-6.49-2.438-10.5l-4-1 1-2c1.875.5 1.875.5 4 2 .985 2.652 1.46 5.205 2 8h2z"/><path fill="#a41317" d="M207 207c3.875 4.75 3.875 4.75 5 7l3 1v5c-2.962-.613-4.38-1.254-7-3-.512-2.383-.512-2.383-.687-5.125l-.2-2.758z"/><path fill="#bd0f10" d="m269 327-3 1v2h5l-1 3h-2v2h-3l-1-3c-2-1.209-2-1.209-4-2 3.072-2.73 4.904-3.341 9-3"/><path fill="#f60405" d="m200 285-16 1 2-4c5.815-1.81 9.129-.247 14 3"/><path fill="#e50b0b" d="M282 196h7v11h-2c-1.257-2.906-2-4.796-2-8h-2z"/><path fill="#be0c0d" d="M234 183c-6.313 6.489-6.313 6.489-9 8-2.75-.312-2.75-.312-5-1 4.568-4.822 7.231-7.376 14-7"/><path fill="#a01418" d="m190 180-1 2c-2.062.625-2.062.625-4 1l-.187 1.813c-1.144 3.08-2.99 3.611-5.813 5.187a89 89 0 0 0-4 4l-1-3h3l.313-1.937L178 187l3-1 .375-1.937L182 182c2.891-1.522 4.718-2 8-2"/><path fill="#811a1a" d="M327 200c1.938.688 1.938.688 4 2 .75 2.625.75 2.625 1 5-3 2-3 2-6 2-.125-6.75-.125-6.75 1-9"/><path fill="#e30a0a" d="m272.188 164.438 3.292.308L278 165v2c-3.015 1.005-5.042 1.103-8.187 1.063l-2.731-.028L265 168v-2l-2-1c3.427-1.142 5.611-.909 9.188-.562"/><path fill="#d1100d" d="M284 272c1.89.273 1.89.273 4 1 2.916 4.46 3.52 9.794 3 15l-2 2-.078-1.723c-.43-5.84-1.803-9.348-4.922-14.277z"/><path fill="#491011" d="M238 252c1.938.813 1.938.813 4 2l1 3 2 1v2c-3.146.262-4.618.248-7.312-1.5L236 257c.875-3.875.875-3.875 2-5"/><path fill="#e50b0a" d="M170 193c.25 5.625.25 5.625-2 9-.666 2.275-.666 2.275-1.125 4.688l-.508 2.449L166 211h-1q-.04-2.22-.062-4.437l-.036-2.497C165 202 165 202 166 201l.438-3.5.562-3.5c2-1 2-1 3-1"/><path fill="#ed0806" d="M238 308h14v3c-9.41.185-9.41.185-14-1z"/><path fill="#3f1b1b" d="m242 228 9 2v3h-9z"/><path fill="#8b1214" d="m295 319 1 2h-2v2l-15 1c4.008-3.006 5.5-3.516 10.25-4.187l3.266-.481z"/><path fill="#8b0f14" d="M179 235c2.367.408 3.688.674 5.375 2.438 1.859 1.787 3.388 2.415 5.813 3.25.715.25 1.43.502 2.167.761L194 242l-1 4c-3.875-1.75-3.875-1.75-5-4l-2.875-.812c-3.703-1.408-4.466-2.685-6.125-6.188"/><path fill="#731317" d="m164 227 1 2c2.126.467 2.126.467 4.563.625l2.503.227L174 230l1 3c2 1.209 2 1.209 4 2-3.688-.498-5.605-1.1-8-4v2l-6-1z"/><path fill="#a00f13" d="m171 194 3 1-1 3c.093 2.066.093 2.066.438 4.188L174 206l-5-2v-4h2z"/><path fill="#d41213" d="M288 169h8v3l2 2h-4v-2l-7 1z"/><path fill="#ed0609" d="m207 168 1 4c-2.957 1.478-5.742 1.06-9 1v-4l3.438.063c3.378.353 3.378.353 4.562-1.063"/><path fill="#e4090b" d="M265 306v3c-3.674 1.176-7.17 1.074-11 1v-2c3.83-1.802 6.781-2.196 11-2"/><path fill="#611b15" d="M325 198h2c.286 8.571.286 8.571-2 12h-3v-3l-3-1 2-1 2 1v-2h2z"/><path fill="#7f1419" d="m293 190-1 7h-6l-1-5 3 1 1.375-1.5C291 190 291 190 293 190"/><path fill="#b51c20" d="M220 243v8h-8v-1h7l-1-4-8-1c3.644-2.43 5.712-2.162 10-2"/><path fill="#e60a08" d="m259 183 3 2-4 1v-2h-2l-1 3h-6l1-3c3.019-1.51 5.673-1.175 9-1"/><path fill="#e20c08" d="M236 185c-1 3-1 3-4 5-2.687.125-2.687.125-5 0 .813-2.437.813-2.437 2-5 3.133-1.044 3.99-.934 7 0"/><path fill="#8b0f11" d="m224 171-1.898.367-2.477.508-2.46.492c-2.352.5-2.352.5-4.165 2.633-2.625.125-2.625.125-5 0l1-3c1.748-.365 3.498-.716 5.25-1.062l2.953-.598c2.665-.324 4.286-.195 6.797.66"/><path fill="#921a1b" d="M302 309h3l1 4h-2v5l-7 1 1-2h4z"/><path fill="#d71014" d="m175 182 1 3-1 2 2 1v3h-3v3l-2-1 1-4-3-1 1.938-.75c2.25-1.066 2.25-1.066 2.812-3.375z"/><path fill="#aa161c" d="M319 184h2l2 3h2l-1 5h-3c-1.765-3.088-2-4.233-2-8"/><path fill="#6c1414" d="M173 288h2v5l5-1-1 5c-3.161-1.37-3.993-1.99-6-5z"/><path fill="#b5181c" d="m275 264 1 4h-5l-1-2h-4v-2c3.069-1.534 5.7-.55 9 0"/><path fill="#a91a1a" d="M219 220c6.75 1.625 6.75 1.625 9 5l-1 3-1-3-6-1z"/><path fill="#b61013" d="M325 298c.625 1.875.625 1.875 1 4l-2 2c-.643 2.069-.643 2.069-1 4h-3v2l-3-1c2-3 2-3 4-4.937 1.902-1.961 2.934-3.575 4-6.063"/><path fill="#7d0d0c" d="m275 264 1 2c2.322.407 4.657.744 7 1-3.75 1.125-3.75 1.125-6 0v4c-2.867-.573-3.861-.861-6-3l3-2z"/><path fill="#d50b0f" d="m236 164-6 2v2h-6l2-1-2-1v-2q2.154-.292 4.313-.562l2.425-.317C233 163 233 163 236 164"/><path fill="#ea0904" d="M279 326v2l-3.437.438c-3.37.174-3.37.174-4.563 1.562-1.666.04-3.334.043-5 0v-2c4.504-1.757 8.176-2.193 13-2"/><path fill="#a3191f" d="m333 291 2 1c.402 2.322.727 4.659 1 7 .32 1.67.647 3.337 1 5h-3c-1.005-3.015-1.103-5.042-1.062-8.187l.027-2.731z"/><path fill="#b81314" d="m277 267 6 1v4h-6z"/><path fill="#ee0609" d="M180 181c.688 1.813.688 1.813 1 4-1.187 1.813-1.187 1.813-3 3-2.187-.312-2.187-.312-4-1 1.049-2.622 1.65-3.794 4.125-5.25z"/><path fill="#7a0e0d" d="M211.563 163.938 214 164c-1 2-1 2-4.25 3.125-3.127.73-5.576 1.067-8.75.875v-2l3.438-.437c3.321-.525 4.026-1.55 7.125-1.625"/><path fill="#850d0c" d="M215 329v1c-5.419.226-9.775-.533-15-2v-1c5.713-1.611 9.687-.09 15 2"/><path fill="#8a0b0b" d="m285 293 4 3-1 4-1-3-6 2-2-2 2.438-1.437c2.41-1.332 2.41-1.332 3.562-2.563"/><path fill="#ee0605" d="M198 173v3l-8 1v-3c2.709-1.354 5.01-1.065 8-1"/><path fill="#bb171a" d="m190 319 8 3v3h-3v-2l-6-1z"/><path fill="#8a1411" d="m314 302 5 2c0 3 0 3-2 6h-2zm2 5 1 2Z"/><path fill="#821217" d="M268 192c4.195.6 8.01 1.575 12 3-3.354 1.118-5.59.787-9 0h-3z"/><path fill="#6f0f12" d="M247 188h12l-1 4h-3l-2-2a90 90 0 0 0-6-1z"/><path fill="#a20f12" d="m197 168 3 1-1 2h-6l-1 3h-4v-2c3.135-1.858 5.375-2.201 9-2z"/><path fill="#e6090e" d="M270 303h8v2h-5v2h-3z"/><path fill="#ea090c" d="m185 176 3 1-1 4-4 1v-2l-2-1h2v-2z"/><path fill="#6f0d0f" d="m247.578 303.926 2.672.387 2.703.363L255 305v2h-14c4-3 4-3 6.578-3.074"/><path fill="#5f191f" d="m167 300 3 1c1.188 3.563 1.188 3.563 2 7-3-1-3-1-5-4z"/><path fill="#970e10" d="M278 299v4h-8v-2c5.75-2 5.75-2 8-2"/><path fill="#d30d10" d="M287 297v3h-3v2l-4-1v-2c2.647-1.46 3.894-2 7-2"/><path fill="#60090c" d="M198 274h3l1 3a95 95 0 0 0 5 4h-4v-2l-6-2z"/><path fill="#7d120c" d="m218 194 1 2-1 2h-4v2h-2v-4z"/><path fill="#620f11" d="M231 311c3.125.375 3.125.375 6 1l-1 2-4-1-1 4-3-1c1-3 1-3 3-5"/><path fill="#681611" d="m281 178 2 1c.414 2.941.414 2.941.625 6.563l.227 3.628L284 192h-2v-10h-2z"/><path fill="#7d0f14" d="m237 311 9 1 1 3h-3v-2l-6 1z"/><path fill="#dd0e0f" d="m218 304 10 1v1h-8v2l3 1-5-1z"/><path fill="#a61513" d="m218 300 8 4v1h-6z"/><path fill="#400e11" d="M300 203h4l-1 5-4-1z"/><path fill="#790e0f" d="M325 188c1.125 1.75 1.125 1.75 2 4-.875 2.25-.875 2.25-2 4h-2v-2h-2v-2l3-1z"/><path fill="#f00502" d="M211 246h6l1 3h-6z"/><path fill="#8e0f0e" d="m215 190 1 3-1.875.875c-2.258 1.062-2.258 1.062-4.125 3.125v-5z"/><path fill="#78090a" d="M246 159c3.625.375 3.625.375 7 1v3h-3v-2h-6z"/><path fill="#960c0d" d="M292 325h10v1l-2.875.938c-2.986.936-2.986.936-5.125 2.062v-2h-2z"/><path fill="#650b0d" d="m280 307-1 2-5-1-1 3-3-1 3-1v-2c3.01-.934 3.867-1.044 7 0"/><path fill="#931a1f" d="m248 256 6 1 1 4h-4v-3l-3-1z"/><path fill="#f80208" d="m188 235 5 1v5h-3z"/><path fill="#8b0e09" d="m178 187 4 1-7 6-1-3h3z"/><path fill="#ef0605" d="M327 300h1l-1 7h-2l-1 2c.557-3.344 1.352-6.033 3-9"/><path fill="#d61212" d="m208 290-1 7h-2l-1-6c2-1 2-1 4-1"/><path fill="#730d11" d="m335 285 1 2c2.025.652 2.025.652 4 1l-1 3-4-1 1-1c-.41-2.054-.41-2.054-1-4"/><path fill="#ce1417" d="M284 272c1.875.188 1.875.188 4 1 1.25 2.563 1.25 2.563 2 5l-3 1c-3-4.75-3-4.75-3-7"/><path fill="#df0d0b" d="M183 236c4 0 4 0 5.75 1.5L190 239l-1 2-6-3z"/><path fill="#541013" d="M172 198c2.152 3.228 2.2 4.284 2 8l-5-2 3-1z"/><path fill="#db0a06" d="M279 165h3c1.688 2 1.688 2 3 4l-4 1z"/></svg>